{"glyphs":{"0":{"ha":524,"x_min":0,"x_max":521,"o":"m 252 812 l 260 812 q 351 776 302 812 l 388 732 l 396 734 l 396 732 q 440 638 427 686 q 458 586 449 631 l 456 578 q 469 534 464 578 l 461 534 q 471 508 471 517 l 469 492 q 481 469 473 492 l 479 471 l 477 471 l 477 469 q 495 453 495 466 q 521 430 508 447 l 481 385 l 474 372 l 477 365 l 474 357 l 477 344 l 453 219 l 456 208 q 425 143 444 163 q 349 39 425 95 q 284 0 303 2 l 263 5 l 250 3 q 122 78 186 3 l 86 138 q 71 182 86 161 l 73 190 l 65 198 l 71 205 l 71 208 q 47 307 52 208 q 41 326 43 307 l 41 341 l 44 351 l 41 362 l 41 365 l 44 378 l 0 425 l 0 430 q 41 484 41 475 q 68 625 41 532 q 91 685 83 649 q 156 755 127 747 l 154 758 l 154 760 q 214 800 179 800 q 252 812 220 812 m 237 739 l 237 737 l 250 734 l 252 734 l 252 737 l 239 739 l 237 739 m 260 734 l 260 729 l 273 726 l 279 726 l 279 729 l 260 734 m 201 688 l 203 674 l 203 672 l 198 667 l 201 646 l 198 528 l 195 511 l 198 508 l 198 505 l 195 503 l 195 500 l 198 497 l 198 495 l 195 492 l 195 490 q 239 432 199 473 l 239 430 q 198 370 198 383 l 195 320 l 198 310 l 193 304 l 198 300 l 198 289 l 195 286 l 198 284 l 198 281 l 195 268 l 198 260 l 195 250 l 198 185 l 198 182 q 187 177 198 177 l 187 172 q 201 149 201 172 q 252 94 214 94 l 266 94 q 326 164 307 94 q 317 177 324 177 l 323 193 l 317 211 l 320 221 l 317 279 l 320 281 l 323 281 l 317 294 l 320 317 l 317 338 l 320 367 q 276 430 320 378 q 320 490 320 479 l 317 492 l 317 495 l 326 505 q 317 524 317 515 l 320 562 l 317 593 l 320 602 l 317 617 l 317 641 l 320 651 q 297 716 317 672 l 294 716 l 292 713 q 258 719 280 719 l 255 719 q 203 688 220 719 l 201 688 m 443 539 l 443 536 l 448 536 l 458 539 l 458 542 l 453 542 l 443 539 m 401 536 l 401 531 l 404 531 l 414 539 l 412 539 l 401 536 m 430 536 l 430 534 l 440 534 l 440 536 l 430 536 m 388 524 l 388 521 l 396 521 q 404 526 396 526 l 404 528 l 401 528 l 388 524 m 372 521 l 372 518 l 375 515 l 375 513 l 372 511 l 372 505 l 375 505 q 382 513 375 513 l 391 511 l 378 521 l 372 521 m 354 508 l 357 508 l 362 513 l 359 513 l 354 508 m 450 484 l 450 481 l 461 479 l 464 479 l 464 481 l 453 484 l 450 484 m 177 456 l 177 450 l 187 453 l 187 456 l 177 456 m 161 446 l 164 446 l 170 450 l 167 450 l 161 446 m 125 437 l 125 435 l 127 435 l 140 437 l 140 443 l 125 437 m 89 422 l 91 422 l 106 427 l 106 430 l 104 430 q 89 422 89 427 m 94 201 l 99 195 l 102 195 l 102 201 l 94 201 m 154 187 q 161 182 154 182 l 167 182 l 167 185 l 154 187 m 174 180 q 182 174 174 174 l 185 174 l 185 177 l 174 180 m 328 130 l 338 122 l 344 122 l 344 125 l 331 130 l 328 130 m 347 122 l 347 117 l 349 117 l 354 122 l 347 122 m 388 106 l 388 104 l 399 104 l 399 106 l 388 106 m 281 60 l 281 57 l 286 57 l 297 60 l 297 62 l 292 62 l 281 60 z "},"1":{"ha":307,"x_min":0,"x_max":303,"o":"m 229 809 l 229 762 l 227 760 l 229 751 l 224 713 l 229 697 l 229 669 l 227 659 l 229 648 l 229 642 l 224 642 l 216 648 l 213 648 l 227 631 l 227 626 l 224 604 l 229 549 l 224 511 l 224 509 q 273 429 224 478 l 273 421 l 224 358 l 229 336 l 213 331 l 213 328 l 227 326 l 224 311 l 227 287 l 213 284 l 213 281 q 229 254 229 281 l 229 243 l 224 233 l 229 189 l 229 164 l 224 164 q 248 82 224 82 q 290 74 248 76 l 303 74 q 227 19 303 43 l 175 11 l 153 27 q 115 0 130 0 q 90 24 109 14 l 90 22 q 106 11 90 16 l 106 3 l 98 3 q 8 55 8 28 q 0 71 3 56 l 3 74 l 14 74 q 77 109 77 74 l 79 140 l 77 243 l 77 268 l 79 279 l 77 290 l 79 314 l 77 336 l 79 353 l 77 377 q 35 424 71 377 l 79 481 l 77 484 l 77 492 l 79 511 l 77 536 l 77 560 l 79 585 l 77 602 l 79 604 l 82 604 l 79 607 l 79 610 q 58 724 79 724 l 55 735 l 33 735 l 24 741 q 3 727 24 731 l 3 730 q 52 777 30 766 l 55 779 l 55 782 l 58 779 l 63 779 l 60 782 l 60 785 l 93 804 l 109 804 q 156 777 126 804 q 229 809 191 809 m 90 760 l 96 754 l 98 754 l 93 760 l 90 760 m 106 746 l 106 743 l 112 738 l 112 741 l 106 746 m 164 692 l 172 678 l 175 678 l 175 686 l 170 692 l 164 692 m 178 678 l 178 672 l 189 667 l 191 667 l 178 678 m 197 661 q 210 650 198 656 l 210 656 l 199 661 l 197 661 m 178 323 l 178 320 l 186 320 l 189 323 l 191 323 l 199 320 l 208 320 l 208 323 l 189 326 l 178 323 m 85 323 q 106 309 86 309 l 104 311 l 104 317 l 106 314 l 125 314 l 131 320 l 128 320 l 109 317 l 109 323 l 106 323 l 90 317 l 90 323 l 85 323 m 134 320 l 134 317 l 147 314 l 153 314 l 147 323 l 134 320 m 159 323 l 164 317 l 167 317 l 172 323 l 159 323 m 144 300 l 144 295 l 159 295 l 159 298 l 144 300 m 167 292 l 167 290 l 183 290 l 183 292 l 167 292 m 82 186 l 85 186 l 90 191 l 87 191 l 82 186 m 58 63 l 63 58 l 66 58 l 60 63 l 58 63 m 79 35 l 79 33 l 85 27 l 85 30 l 79 35 z "},"2":{"ha":479,"x_min":0,"x_max":437,"o":"m 206 812 l 225 812 q 375 748 327 812 q 410 711 375 743 q 431 649 426 675 l 429 638 q 437 616 437 637 l 434 576 l 437 566 q 420 504 429 504 l 423 501 l 423 498 q 372 405 413 467 q 359 327 368 405 l 332 330 l 295 330 q 241 290 255 294 q 193 247 241 281 q 158 217 174 217 l 158 212 l 172 220 l 172 217 q 132 142 132 160 l 134 142 l 150 140 l 163 140 l 174 142 l 214 137 l 217 140 l 217 142 l 244 140 l 257 140 l 271 142 l 287 140 l 298 140 q 423 163 347 140 l 426 161 l 426 5 l 423 3 l 423 0 l 410 3 l 383 3 l 354 5 l 332 0 l 295 0 l 279 3 l 271 0 l 260 3 l 246 0 l 214 5 l 185 5 l 177 0 l 134 0 l 123 3 l 113 0 l 78 0 l 54 3 l 40 0 l 40 3 l 37 0 l 5 0 l 0 5 l 0 40 l 8 51 l 5 54 l 11 59 q 3 64 3 59 l 3 73 l 5 83 l 3 86 l 3 88 q 27 185 13 185 q 56 250 27 206 q 96 298 66 275 q 136 351 113 326 q 188 442 188 391 l 185 458 l 185 472 q 225 486 185 481 q 262 611 251 486 l 262 641 q 222 708 262 675 l 203 708 q 147 673 157 708 q 136 641 136 657 l 136 611 l 134 571 l 136 552 l 134 531 l 136 520 l 129 517 q 67 523 67 519 l 67 526 l 62 526 q 56 517 62 517 l 40 517 l 37 520 l 35 520 l 37 531 l 35 574 l 37 574 l 35 576 l 37 601 l 35 644 l 37 644 l 35 646 l 35 654 l 40 660 l 35 681 l 40 708 l 37 711 l 37 719 q 45 724 37 724 l 45 729 l 43 726 l 37 726 l 37 743 l 35 770 l 37 793 l 37 802 l 104 764 l 110 764 q 193 810 168 810 l 206 812 m 91 759 l 118 734 l 121 734 q 94 759 121 739 l 91 759 m 99 737 q 113 729 99 732 l 115 729 l 115 732 l 99 737 m 134 726 l 144 716 l 144 713 l 150 713 l 136 726 l 134 726 m 249 719 l 249 716 l 260 716 l 260 719 l 249 719 m 153 708 l 158 697 l 161 697 l 161 700 l 158 708 l 153 708 m 273 601 l 273 595 l 284 593 q 273 601 284 597 m 300 585 l 300 582 l 313 574 l 316 574 q 302 585 315 579 l 300 585 m 298 576 l 298 574 l 305 571 l 305 576 l 298 576 m 321 560 l 321 557 l 330 555 l 332 555 l 332 557 l 324 560 l 321 560 m 346 550 l 346 547 l 349 545 l 349 542 l 346 539 l 354 536 l 361 539 l 361 542 l 346 550 m 359 534 l 359 531 l 361 523 l 364 523 l 364 531 l 361 534 l 359 534 m 391 520 l 397 515 l 399 515 l 394 520 l 391 520 m 397 496 l 408 486 l 408 488 l 399 496 l 397 496 m 158 239 l 158 236 l 166 236 l 169 239 l 169 241 l 166 241 l 158 239 m 142 228 l 142 222 l 150 225 l 150 231 l 142 228 m 107 203 l 110 201 l 110 196 q 102 191 102 196 l 104 191 q 123 199 115 199 l 123 201 l 118 201 l 118 203 q 136 217 118 210 l 136 222 l 107 203 m 136 212 l 134 209 l 134 206 l 136 206 l 147 209 l 147 212 l 136 212 m 43 166 l 40 163 l 40 161 l 43 161 l 51 163 l 51 166 l 43 166 m 239 113 l 241 113 l 257 123 l 257 129 l 239 113 m 262 86 l 260 83 l 260 81 l 262 81 l 271 83 l 271 86 l 262 86 m 193 78 l 193 75 l 203 75 l 203 81 l 193 78 m 225 78 l 225 73 l 239 75 l 239 78 l 225 78 m 150 62 l 150 56 q 182 70 163 66 l 182 73 l 180 73 l 150 62 m 121 43 l 123 43 l 129 48 l 126 48 l 121 43 m 88 32 l 88 29 l 96 29 l 99 32 l 99 35 l 96 35 l 88 32 z "},"3":{"ha":439,"x_min":0,"x_max":429,"o":"m 226 812 q 411 667 357 812 l 416 625 l 416 604 l 414 594 l 416 585 q 404 547 416 547 l 401 549 l 396 549 l 396 547 q 408 539 408 545 q 389 502 406 522 l 386 502 l 389 492 l 368 461 q 429 427 394 454 q 361 384 427 420 q 381 353 381 359 l 378 353 l 371 356 l 391 344 q 416 243 416 290 l 416 220 q 328 35 416 104 l 256 3 l 208 0 q 58 65 137 0 q 25 113 25 102 q 3 173 18 115 l 7 178 l 0 193 l 0 205 q 25 245 6 245 l 33 245 l 33 248 l 22 251 l 22 253 q 65 278 41 278 q 125 243 96 278 q 143 205 139 231 l 140 203 l 138 203 l 136 205 l 133 205 l 133 201 q 143 195 143 201 q 130 136 143 180 q 195 90 130 109 l 208 90 q 253 158 253 98 l 258 163 l 253 170 l 253 298 q 235 376 253 340 l 228 374 q 151 384 200 381 l 103 381 l 100 384 q 148 479 138 479 q 198 474 198 478 q 256 557 256 494 l 260 587 l 258 602 l 260 647 l 260 650 q 216 722 260 694 l 198 722 q 118 672 173 722 l 123 644 l 120 637 l 123 622 l 120 589 l 123 562 q 113 519 123 519 l 111 519 l 103 524 l 98 519 l 80 522 l 78 522 l 65 519 l 60 524 l 55 519 l 47 519 l 28 532 l 28 536 q 33 602 28 587 l 30 604 l 33 617 l 30 642 l 33 642 q 28 669 28 652 l 28 702 q 35 707 28 707 l 35 712 l 30 712 l 33 734 q 28 742 28 734 l 30 760 l 28 785 l 28 800 l 30 800 l 80 758 l 83 758 q 198 808 152 808 l 201 810 l 216 808 l 226 808 l 226 812 m 37 594 l 45 587 l 45 589 l 40 594 l 37 594 m 381 592 l 378 589 l 378 587 l 396 589 l 396 592 l 381 592 m 351 585 l 351 582 l 353 582 l 371 585 l 371 587 l 359 587 l 351 585 m 58 574 l 62 569 l 65 569 l 60 574 l 58 574 m 70 567 l 70 564 l 75 559 l 75 562 l 70 567 m 313 562 l 318 557 l 323 557 l 323 562 l 313 562 m 326 562 l 326 559 l 336 557 l 341 557 l 341 559 l 328 562 l 326 562 m 343 559 l 343 557 l 359 557 l 359 559 l 343 559 m 78 557 l 83 551 l 85 551 l 80 557 l 78 557 m 266 551 l 266 549 l 273 549 l 273 554 l 266 551 m 381 551 l 381 549 l 391 547 q 383 551 391 551 l 381 551 m 185 469 q 198 461 185 465 l 201 461 l 201 464 l 185 469 m 228 444 l 228 441 l 238 436 l 238 441 l 231 444 l 228 444 m 245 434 l 245 429 l 253 427 l 256 427 l 256 429 l 245 434 m 273 414 l 273 409 l 283 406 l 286 406 l 286 409 l 273 414 m 291 401 q 298 396 291 396 l 303 396 l 303 399 l 291 401 m 326 381 l 326 378 l 334 376 l 334 381 l 326 381 m 346 369 l 346 366 l 368 356 l 368 361 l 349 369 l 346 369 m 47 241 l 47 238 l 58 238 l 58 241 l 47 241 m 87 228 l 87 223 l 95 223 l 95 226 l 87 228 m 111 216 l 111 213 l 120 208 l 123 208 q 113 216 123 212 l 111 216 m 278 161 l 278 155 l 291 151 l 293 151 l 293 153 l 288 153 l 288 155 l 291 158 l 291 161 l 278 161 m 309 158 l 309 155 l 311 155 l 321 158 l 321 161 l 316 161 l 309 158 m 331 138 l 331 136 l 338 133 l 338 136 l 336 138 l 331 138 m 353 125 l 353 123 l 366 120 l 374 120 l 374 123 l 356 125 l 353 125 m 376 118 l 376 115 l 386 111 l 386 115 l 378 118 l 376 118 z "},"4":{"ha":527,"x_min":0,"x_max":526,"o":"m 244 808 q 309 773 282 793 q 366 803 309 785 l 377 806 q 450 743 426 789 l 458 730 l 453 724 l 439 724 q 388 694 388 724 l 380 646 l 382 637 l 380 624 l 382 589 l 377 562 l 382 553 l 380 540 l 382 494 l 380 486 q 426 426 426 432 q 380 377 426 421 l 382 374 l 382 372 q 377 358 382 358 l 380 355 l 380 353 l 377 334 q 407 320 377 320 l 418 323 l 420 320 l 448 323 l 464 323 l 494 320 l 496 323 l 499 323 l 502 320 l 505 320 l 513 323 l 521 320 l 524 323 l 526 320 l 526 317 q 505 220 511 223 l 494 222 l 491 220 l 488 220 l 464 222 l 450 220 l 445 225 l 439 220 q 418 225 418 222 l 415 222 l 410 222 l 399 225 q 382 212 382 221 l 380 212 l 382 209 l 382 193 l 377 187 l 385 136 l 382 133 l 380 133 l 382 130 l 382 122 l 380 119 l 380 117 q 388 84 388 117 l 391 84 q 399 73 399 84 l 401 73 l 404 76 l 407 73 l 415 73 l 420 79 l 423 76 l 453 76 l 458 71 q 374 3 458 36 l 347 0 l 342 8 l 339 5 l 336 5 q 307 27 330 5 q 263 3 282 3 q 184 35 202 14 q 155 71 167 48 l 155 76 l 163 76 q 225 98 225 76 l 236 119 l 233 133 l 236 133 l 233 136 l 233 152 l 236 155 l 236 157 l 231 163 l 233 165 l 233 168 l 231 179 l 239 182 l 239 184 q 231 190 231 184 l 231 193 l 233 209 l 231 220 l 225 220 l 201 222 l 193 220 l 171 225 l 165 220 l 125 220 l 100 225 l 62 220 l 60 222 l 46 220 l 5 220 l 0 225 l 5 260 l 0 290 q 62 418 45 389 q 81 461 71 461 l 79 469 l 163 646 l 168 659 l 165 662 l 165 665 q 187 713 187 702 l 198 716 l 193 722 l 236 798 q 244 808 236 808 m 328 719 l 328 716 q 361 724 361 719 l 328 719 m 239 705 l 225 708 q 217 703 225 703 l 217 700 l 222 700 l 228 705 l 231 703 l 233 703 q 279 711 256 711 l 279 713 l 250 713 q 239 705 239 713 m 228 545 q 206 510 228 533 l 209 502 l 206 502 l 190 494 l 187 496 l 184 494 l 184 491 l 190 491 l 203 494 l 203 488 q 187 472 200 479 l 190 469 l 190 467 l 165 401 l 136 336 l 133 323 l 146 320 l 157 323 l 157 320 l 160 323 l 163 323 l 165 320 l 168 320 l 176 323 l 182 317 l 187 323 l 190 323 l 220 320 l 236 326 l 231 355 l 233 369 l 231 372 l 236 377 l 233 380 l 231 380 l 236 426 l 231 431 l 231 442 l 236 448 l 233 450 l 233 488 l 231 491 l 231 494 l 247 499 l 247 502 l 241 502 l 233 499 l 231 502 l 231 515 l 236 524 l 236 526 l 231 526 l 231 545 l 228 545 m 361 518 l 361 515 l 366 515 l 374 518 l 374 521 l 369 521 l 361 518 m 274 505 l 277 505 l 282 510 l 279 510 l 274 505 m 260 505 l 260 502 l 271 502 l 271 505 l 260 505 m 149 486 l 149 483 l 152 483 l 163 486 l 163 488 l 157 488 l 149 486 m 98 483 l 98 480 l 114 477 l 117 480 l 122 475 l 125 475 l 138 477 l 138 480 l 111 483 l 98 483 m 288 331 l 288 328 l 298 328 l 298 331 l 288 331 m 339 309 l 345 304 l 347 304 l 342 309 l 339 309 m 513 304 l 515 304 l 521 309 l 518 309 l 513 304 m 499 293 l 499 290 l 502 290 q 510 298 502 298 l 510 304 q 499 293 501 301 m 480 288 l 475 279 l 477 279 l 488 285 l 488 288 l 480 288 m 382 285 l 382 279 l 391 279 l 391 282 l 382 285 m 426 277 l 426 271 l 431 266 l 437 266 l 426 277 m 461 269 l 464 269 l 469 274 l 467 274 l 461 269 m 448 263 l 445 260 l 445 258 l 448 258 l 456 260 l 456 263 l 448 263 m 423 260 l 423 258 l 429 252 l 431 252 l 437 258 l 437 260 l 423 260 m 391 258 l 391 255 l 412 255 l 412 258 l 391 258 m 420 239 l 423 239 l 431 247 l 429 247 l 420 239 m 350 193 l 353 193 l 358 198 l 355 198 l 350 193 m 328 182 l 326 179 l 326 174 l 336 179 l 336 182 l 328 182 m 298 160 l 301 160 l 307 165 l 304 165 l 298 160 m 260 141 l 263 141 l 269 146 l 266 146 l 260 141 m 239 127 l 241 127 l 247 133 l 247 136 l 239 127 z "},"5":{"ha":500,"x_min":0,"x_max":486,"o":"m 435 863 l 435 797 l 433 749 l 435 706 l 430 690 l 430 688 l 435 680 l 433 579 l 435 567 l 427 562 l 374 562 l 349 559 l 347 562 l 347 564 l 351 645 q 347 673 347 655 l 283 673 l 268 678 l 225 673 l 225 663 q 215 612 225 620 l 215 610 l 218 612 l 220 612 l 225 607 l 225 531 l 245 531 q 486 268 486 531 l 486 240 q 361 15 486 92 q 291 0 326 0 l 275 0 q 208 20 249 20 q 111 91 147 54 q 89 190 89 149 l 89 200 q 152 271 89 246 l 159 273 q 215 225 186 273 l 222 197 l 222 182 l 215 146 q 243 91 215 91 l 275 91 q 323 210 316 91 l 326 253 l 326 288 l 321 296 l 321 304 l 323 332 l 316 349 l 319 359 q 260 427 284 427 l 248 427 q 136 387 136 410 l 111 367 q 106 402 106 378 l 109 453 q 53 486 61 475 l 53 493 q 109 521 53 500 l 109 557 l 117 557 l 117 559 q 106 614 106 559 l 106 642 l 111 675 l 106 706 l 106 744 q 33 782 92 767 l 13 782 l 0 779 l 0 782 q 38 802 0 789 l 56 802 q 96 812 71 812 l 164 810 l 187 814 l 212 814 l 313 812 l 326 814 l 336 812 l 382 814 l 395 814 q 399 822 399 814 q 430 863 421 822 l 435 863 m 332 802 l 332 797 l 344 794 q 332 802 344 799 m 385 782 q 392 777 385 777 l 397 777 l 397 779 l 385 782 m 407 774 l 407 772 l 425 766 l 427 766 l 427 769 l 410 774 l 407 774 m 159 559 l 157 557 l 157 551 l 159 551 l 162 559 l 159 559 m 124 554 l 124 551 l 139 547 l 142 547 l 142 549 l 129 554 l 124 554 m 134 531 l 136 531 l 142 536 l 142 539 l 134 531 m 170 536 l 170 534 l 180 531 q 172 536 180 536 l 170 536 m 184 531 l 190 526 l 192 526 l 187 531 l 184 531 m 208 524 l 208 519 l 218 516 q 208 524 218 520 m 260 503 l 260 501 l 266 496 l 268 496 l 260 503 m 275 496 l 275 493 l 283 491 l 288 491 l 288 493 l 278 496 l 275 496 m 86 491 l 86 486 l 94 488 l 94 491 l 86 491 m 313 483 l 313 478 l 321 478 l 321 481 l 313 483 m 329 475 q 336 471 329 471 l 339 471 l 339 473 l 329 475 m 359 465 l 359 460 l 367 460 l 367 463 l 359 465 m 382 455 q 395 448 382 450 q 382 455 395 454 m 422 437 q 433 430 422 434 l 437 430 l 437 433 l 425 437 l 422 437 m 134 114 l 132 111 l 132 109 l 154 106 l 157 106 l 157 109 l 134 114 m 167 104 q 180 96 167 100 l 182 96 l 182 98 l 167 104 m 240 83 l 240 81 l 250 79 q 243 83 250 83 l 240 83 m 258 79 l 263 73 l 266 73 l 260 79 l 258 79 m 275 73 l 275 71 l 283 68 l 283 73 l 275 73 m 304 66 l 304 61 l 316 56 l 319 56 q 304 66 319 60 m 339 53 l 339 51 q 354 43 339 46 l 357 43 l 357 45 l 339 53 z "},"6":{"ha":473,"x_min":0,"x_max":469,"o":"m 252 810 l 273 810 l 278 805 l 273 800 l 278 800 q 286 808 278 808 l 317 798 q 336 784 336 798 l 349 784 l 378 763 q 417 802 390 763 l 420 802 l 417 787 l 420 779 l 417 777 l 420 763 l 420 750 l 414 745 l 420 729 l 420 722 l 417 708 l 420 692 l 420 680 l 417 663 l 420 661 l 417 648 l 417 624 l 420 585 q 412 593 412 585 l 406 593 q 420 562 420 582 l 417 559 l 391 559 q 330 566 330 559 l 325 601 l 328 603 l 328 606 l 325 624 q 333 661 327 661 l 338 650 l 341 650 l 341 653 q 286 711 306 711 q 273 716 286 715 l 252 716 q 207 648 207 716 l 207 629 l 191 611 l 191 608 l 205 619 l 202 601 l 202 572 l 207 564 l 207 543 q 202 524 207 524 l 207 475 l 210 475 q 260 485 220 485 l 281 485 q 412 427 347 477 q 443 375 442 389 l 427 367 l 427 365 l 433 365 l 438 370 l 448 370 l 461 328 l 456 323 q 469 270 469 323 l 469 244 q 448 152 469 187 l 451 149 l 451 147 q 359 31 418 62 l 312 5 l 273 0 l 254 3 l 236 0 q 126 68 189 0 q 42 380 42 176 l 0 433 l 0 435 l 47 477 l 45 480 l 45 483 l 52 498 l 52 501 l 47 501 q 76 603 58 578 l 79 601 l 100 585 l 100 583 l 105 583 l 73 608 q 123 734 81 668 l 155 763 l 160 763 l 168 758 l 168 763 q 160 768 160 763 l 160 771 l 205 800 q 252 810 235 810 m 218 724 l 220 716 l 225 716 l 223 724 l 218 724 m 330 713 l 330 711 l 338 719 l 338 722 l 330 713 m 370 627 l 375 622 l 378 622 l 372 627 l 370 627 m 184 603 l 184 601 l 189 606 l 189 608 l 184 603 m 170 587 l 165 577 l 168 577 l 176 585 l 173 587 l 170 587 m 142 556 l 144 556 l 152 559 l 152 564 q 142 556 142 560 m 134 553 l 131 551 l 131 545 l 142 551 l 142 553 l 134 553 m 152 545 l 152 543 l 160 541 l 160 545 l 152 545 m 66 538 l 66 535 l 73 535 l 73 541 l 66 538 m 205 320 l 207 267 l 207 262 l 202 257 l 207 226 l 207 223 l 205 210 q 249 94 205 94 l 260 94 q 302 136 289 94 l 304 139 l 307 139 l 304 147 l 307 178 l 304 226 l 309 296 l 304 338 l 309 344 q 262 404 290 404 l 249 404 q 205 320 214 404 m 417 359 l 420 359 l 425 365 l 422 365 l 417 359 m 367 336 l 367 330 l 378 338 l 375 338 l 367 336 m 440 323 l 440 317 l 448 320 l 448 323 l 440 323 m 338 315 l 341 315 l 346 320 l 343 320 l 338 315 m 393 317 l 393 315 l 404 315 l 404 317 l 393 317 m 328 312 l 328 307 l 336 309 l 336 315 l 328 312 m 372 315 l 370 312 l 370 309 l 372 309 l 382 312 l 382 315 l 372 315 m 178 241 l 181 241 l 191 247 l 191 249 l 189 249 l 178 241 m 149 228 l 152 228 l 157 233 l 155 233 l 149 228 m 128 220 l 131 220 l 142 228 l 139 228 l 128 220 m 110 210 l 113 210 l 118 215 l 115 215 l 110 210 m 68 194 l 71 194 l 76 199 l 73 199 l 68 194 m 273 58 l 273 52 l 283 47 l 286 47 l 273 58 m 260 34 l 260 31 l 275 39 l 275 45 l 273 45 l 260 34 z "},"7":{"ha":456,"x_min":0,"x_max":456,"o":"m 185 880 l 187 880 l 187 878 q 175 825 175 846 l 180 810 l 197 810 l 208 804 l 243 810 l 329 807 l 359 810 l 387 807 l 443 810 q 456 800 454 804 l 405 688 q 395 673 400 673 l 380 680 l 380 675 q 395 668 391 675 q 332 488 357 581 l 327 488 l 332 481 l 329 478 l 329 475 l 352 437 q 304 370 352 430 q 281 268 288 276 l 283 266 l 283 263 l 276 228 l 279 212 l 273 208 l 276 205 l 276 202 l 271 91 l 273 91 l 283 89 l 299 89 q 347 119 323 89 l 349 119 l 349 94 q 299 10 349 52 l 263 7 l 258 7 q 177 28 228 7 q 127 0 144 0 q 45 43 81 0 l 33 81 l 33 101 l 38 106 q 68 81 49 81 q 119 126 96 81 l 127 126 l 127 134 l 121 134 l 121 136 q 132 190 127 142 l 129 192 l 129 195 l 132 197 l 129 210 l 132 220 l 129 222 l 129 225 q 149 323 129 246 q 165 385 157 323 l 167 387 l 165 395 l 172 408 l 172 410 q 149 422 163 410 l 149 430 q 213 521 213 492 q 235 576 223 521 q 273 655 263 620 l 281 668 q 261 673 266 668 l 258 673 l 241 670 l 182 675 l 177 670 l 149 670 q 35 630 115 670 l 3 612 l 0 612 q 35 670 0 621 q 83 746 35 680 q 124 819 92 771 l 127 819 l 142 814 l 142 819 q 132 825 132 819 l 132 827 l 162 867 l 165 867 l 167 865 l 170 865 l 185 880 m 152 807 l 152 804 l 167 800 l 167 804 l 155 807 l 152 807 m 185 791 q 193 787 185 787 l 195 787 l 195 789 l 185 791 m 157 764 l 157 759 l 167 759 l 167 762 l 157 764 m 175 759 l 175 756 l 185 754 l 193 754 l 193 756 l 177 759 l 175 759 m 266 746 l 266 741 l 276 739 l 266 746 m 286 736 l 286 734 q 307 721 286 730 l 307 726 q 286 736 297 726 m 337 706 l 337 703 q 345 698 337 698 l 347 698 l 347 701 l 337 706 m 362 690 q 370 686 362 686 l 375 686 l 375 688 l 362 690 m 299 473 l 299 468 l 307 471 l 307 473 l 299 473 m 281 458 l 283 458 l 289 463 l 286 463 l 281 458 m 269 453 l 271 453 l 276 458 l 273 458 l 269 453 m 251 445 l 251 440 l 261 445 l 261 450 l 251 445 m 225 437 l 225 433 l 253 433 l 253 435 l 225 437 m 337 435 l 337 433 l 347 433 l 347 435 l 337 435 m 283 433 l 283 430 l 294 430 l 294 433 l 283 433 m 301 433 l 301 430 l 311 430 l 311 433 l 301 433 m 190 420 l 190 417 l 197 417 l 197 422 l 190 420 m 175 410 l 175 408 l 177 408 l 185 410 l 185 412 l 182 412 l 175 410 m 263 200 l 263 197 l 271 205 l 269 205 l 263 200 m 231 195 l 233 195 l 238 200 l 238 202 l 231 195 m 253 192 l 256 192 l 261 197 l 258 197 l 253 192 m 218 192 l 213 182 l 218 182 l 218 180 l 228 182 l 228 184 l 220 184 l 220 190 l 225 190 l 225 192 l 218 192 m 185 164 l 187 164 l 193 170 l 190 170 l 185 164 m 167 155 l 170 155 l 175 159 l 172 159 l 167 155 m 155 152 l 152 149 l 152 146 l 155 146 l 162 149 l 162 152 l 155 152 z "},"8":{"ha":501,"x_min":0,"x_max":502,"o":"m 248 814 q 428 699 366 814 l 426 684 q 452 598 452 640 l 452 576 q 470 568 452 570 l 485 553 q 448 529 480 543 q 381 428 428 456 q 372 420 381 420 l 372 418 l 393 396 l 393 391 l 389 391 l 389 389 l 393 389 l 401 391 l 423 354 q 443 286 438 354 q 448 256 448 286 l 460 243 l 460 219 q 502 199 485 219 l 502 192 q 455 172 486 172 l 455 168 q 401 76 435 76 l 376 39 q 307 5 330 5 l 234 0 q 130 35 194 0 q 56 118 87 52 l 56 123 l 64 133 q 54 153 54 133 q 35 195 47 155 l 0 224 l 0 227 l 3 229 q 37 256 37 247 q 59 305 37 289 l 56 313 l 59 313 q 69 347 63 313 l 113 408 q 125 418 121 408 q 50 529 73 448 q 30 559 50 549 l 27 561 l 27 573 l 44 593 q 62 652 44 652 q 71 667 62 667 l 76 672 l 69 672 l 69 674 l 98 733 q 130 770 98 749 q 207 807 168 807 q 248 814 207 814 m 207 802 l 207 798 l 219 790 l 221 790 q 207 802 217 799 m 227 792 l 227 787 l 236 785 l 239 785 l 239 787 l 227 792 m 254 780 l 254 775 l 271 768 l 273 768 q 254 780 273 772 m 283 775 l 283 770 l 293 745 l 295 745 l 295 751 l 293 753 l 295 755 l 298 755 l 300 753 l 300 758 l 290 763 l 293 765 l 293 770 l 283 775 m 231 743 l 231 741 l 236 741 q 254 751 254 747 l 251 751 l 231 743 m 199 586 q 214 573 207 586 q 204 551 207 565 l 199 551 l 201 497 q 241 450 214 450 l 258 450 q 302 522 290 450 q 295 536 295 522 q 275 549 275 543 l 295 571 l 295 654 q 261 718 295 707 l 239 718 q 199 610 199 718 l 199 586 m 379 716 q 387 711 379 711 l 389 711 l 389 713 l 379 716 m 162 704 l 162 699 l 170 701 l 170 704 l 162 704 m 133 694 q 109 686 133 686 l 109 684 l 123 684 l 140 692 l 140 694 l 133 694 m 79 674 l 79 669 l 106 679 l 106 682 l 101 682 l 79 674 m 195 298 l 199 278 l 199 239 l 195 239 l 195 236 l 199 236 q 207 241 199 241 q 224 227 218 237 l 224 216 q 199 199 212 199 q 241 94 199 94 l 258 94 q 295 153 295 94 l 295 175 l 275 192 l 275 199 l 295 216 l 295 288 l 300 295 l 300 300 l 295 320 l 298 322 q 286 349 294 322 q 256 367 268 367 l 241 367 q 199 310 210 367 q 195 298 195 310 m 337 352 l 337 349 l 357 364 l 354 364 l 337 352 m 320 342 l 317 340 l 317 337 l 325 340 l 325 342 l 320 342 m 300 328 l 300 325 l 305 325 l 310 332 l 310 334 l 302 328 l 300 328 m 180 222 l 182 222 l 187 227 l 184 227 l 180 222 m 168 212 l 170 212 l 175 216 l 172 216 l 168 212 m 150 202 l 150 197 l 160 202 l 160 207 l 150 202 m 130 184 l 130 182 l 136 187 l 136 189 l 130 184 m 123 182 l 121 180 l 121 177 l 128 180 l 128 182 l 123 182 m 101 168 l 101 162 l 113 172 l 111 172 l 101 168 m 86 150 l 89 150 q 98 160 96 153 l 96 160 l 86 150 m 69 140 l 66 138 l 66 133 l 69 133 l 74 138 l 74 140 l 69 140 z "},"9":{"ha":479,"x_min":0,"x_max":472,"o":"m 194 812 l 226 812 q 357 728 300 812 q 375 696 375 705 l 370 690 l 370 686 q 397 611 383 686 l 385 599 l 387 599 l 397 606 q 417 542 407 606 q 430 432 430 531 l 472 380 l 472 378 q 425 336 441 340 l 425 330 q 405 216 425 279 q 328 55 395 135 q 286 25 311 38 q 221 0 258 0 l 201 0 q 90 50 153 0 q 52 139 52 109 l 60 142 l 60 144 q 50 169 50 144 l 52 209 l 50 211 l 50 214 l 52 216 l 52 218 l 50 229 l 55 239 l 50 254 q 57 276 52 276 l 64 273 l 79 276 l 85 271 l 90 276 l 107 273 l 129 276 l 134 271 l 139 276 q 154 269 154 273 l 154 261 l 151 251 l 154 248 l 154 246 l 149 233 l 154 229 l 154 226 q 146 191 154 201 l 146 189 q 154 172 154 189 l 151 172 l 154 169 l 154 161 l 149 157 q 161 127 149 144 l 159 119 l 161 119 q 218 94 193 94 q 263 142 254 94 l 269 146 l 271 233 l 266 271 l 269 298 l 263 328 l 263 333 l 216 328 l 211 328 q 136 340 161 328 q 72 388 106 340 q 52 408 72 392 q 75 430 52 416 l 75 432 l 72 432 q 55 412 63 432 l 47 412 q 15 457 33 412 q 0 549 0 501 l 0 562 q 27 666 0 631 q 64 728 51 728 q 157 798 73 753 q 194 812 157 806 m 75 730 l 75 728 l 92 726 l 94 726 l 94 728 l 82 730 l 75 730 m 174 703 l 176 701 l 176 698 q 164 584 164 667 l 164 522 l 154 507 l 159 507 l 159 512 l 164 512 q 211 410 164 410 l 218 410 q 263 497 263 410 l 263 542 l 278 547 l 278 549 l 276 549 l 266 547 l 263 547 l 263 631 q 221 718 263 718 l 211 718 q 179 703 197 718 l 174 703 m 146 708 l 146 705 l 157 705 l 157 708 l 146 708 m 321 671 l 321 669 l 330 669 l 330 671 l 321 671 m 306 631 l 303 624 l 308 624 l 311 631 l 306 631 m 298 559 l 298 557 l 308 557 l 308 559 l 298 559 m 127 472 l 132 472 l 146 492 l 144 492 q 127 472 128 479 m 408 318 l 410 318 l 417 326 l 417 328 l 408 318 m 313 276 l 311 273 l 311 269 l 321 273 l 321 276 l 313 276 m 281 261 l 281 256 l 288 258 l 288 261 l 281 261 m 127 181 l 129 181 l 134 186 l 132 186 l 127 181 m 115 176 l 115 172 q 124 179 124 175 l 121 179 l 115 176 m 107 172 q 100 166 107 166 l 100 164 l 104 164 q 112 169 104 169 l 112 172 l 107 172 m 82 159 l 79 157 l 79 154 l 82 154 l 90 157 l 90 159 l 82 159 z "}," ":{"ha":386,"x_min":0,"x_max":0,"o":""},"!":{"ha":312,"x_min":12,"x_max":317,"o":"m 125 829 q 168 802 144 821 q 212 829 191 829 l 241 829 q 317 761 277 829 l 317 755 l 315 755 l 285 764 l 269 761 l 266 764 l 244 731 l 247 728 l 247 726 q 236 712 241 713 l 241 699 l 239 682 l 239 677 l 241 666 l 236 658 l 241 604 l 239 574 l 241 544 l 239 541 l 239 538 l 241 528 l 241 509 q 282 460 241 503 l 285 449 q 239 384 239 400 l 241 376 l 236 346 l 241 340 l 239 338 l 241 335 l 241 313 l 239 311 l 241 308 l 241 305 l 239 302 l 241 289 l 241 283 l 236 278 l 239 275 l 236 259 l 241 227 l 239 224 l 231 224 l 228 227 l 225 224 l 206 224 l 203 227 l 201 224 l 193 224 l 190 227 l 187 224 l 184 224 l 114 227 l 92 224 l 90 227 l 90 229 l 92 283 l 90 316 l 92 327 l 90 349 l 92 357 l 90 373 l 90 384 l 92 387 l 90 389 l 90 392 l 92 395 q 73 433 73 425 l 71 430 l 68 430 q 49 457 49 448 l 76 484 q 84 500 84 484 l 92 511 l 98 511 q 90 522 94 522 l 92 555 l 92 566 l 90 576 l 95 585 l 90 606 l 90 609 l 92 623 l 90 639 l 90 642 l 92 663 l 90 680 l 95 701 q 87 734 90 701 l 84 736 l 87 736 q 52 761 79 753 l 19 755 l 19 761 q 76 807 58 807 l 90 804 l 92 804 l 92 807 l 81 810 l 81 815 q 125 829 113 829 m 103 807 l 103 802 l 111 799 l 111 804 l 103 807 m 136 796 l 136 791 l 146 791 l 146 793 l 136 796 m 231 772 l 231 769 l 241 766 l 258 766 l 258 769 l 233 772 l 231 772 m 225 590 l 228 590 l 233 595 l 231 595 l 225 590 m 217 582 l 220 582 l 225 587 l 222 587 l 217 582 m 201 571 l 203 571 l 209 576 l 206 576 l 201 571 m 182 560 l 184 560 l 193 563 l 193 568 l 182 560 m 127 555 l 127 552 l 133 547 l 136 547 l 127 555 m 157 549 l 157 547 l 163 547 l 174 555 l 171 555 l 157 549 m 130 536 l 130 533 l 133 533 l 141 536 l 141 538 l 138 538 l 130 536 m 195 302 l 201 302 l 206 313 l 203 313 q 195 302 199 313 m 165 289 l 165 283 l 176 289 l 176 292 l 174 292 l 165 289 m 209 283 l 209 281 l 225 281 l 225 283 l 209 283 m 116 197 l 119 197 l 185 109 l 289 144 l 290 142 l 228 51 q 291 -39 289 -33 l 186 -8 l 121 -96 l 119 -94 l 117 15 l 13 50 l 12 51 l 117 86 l 116 197 z "},"\"":{"ha":465,"x_min":-8,"x_max":467,"o":"m 49 1042 q 81 1029 73 1029 l 103 1010 q 138 1031 122 1031 l 149 1040 l 165 1040 q 212 1013 212 1026 l 212 1007 q 165 937 178 1007 l 168 934 l 171 934 l 165 909 l 168 899 l 163 871 l 165 863 l 163 847 l 165 823 l 163 806 l 165 798 l 163 768 l 163 766 l 165 752 l 163 749 l 160 749 l 157 752 l 155 749 l 68 749 l 57 752 l 46 749 l 43 749 l 43 771 l 41 782 l 43 793 l 38 809 l 43 833 l 38 850 l 41 852 l 35 863 l 38 880 l 35 882 l 35 885 l 38 893 l 35 912 l 41 918 l 41 926 l 35 926 l 35 937 l 33 950 l 35 950 q -3 1007 27 983 l -8 1007 l -8 1013 q 49 1042 -8 1025 m 320 1042 l 361 1010 q 410 1042 391 1040 q 467 1010 435 1042 q 426 947 426 976 l 423 945 l 426 942 l 426 934 l 423 934 l 426 893 l 426 863 l 420 814 l 423 752 l 420 749 l 372 749 l 320 755 l 315 749 l 304 749 l 296 758 l 298 771 l 296 779 l 301 806 l 296 831 l 298 850 l 296 858 l 301 858 l 301 863 l 296 863 l 296 866 l 298 869 l 293 882 l 296 896 l 296 904 l 293 915 l 296 923 l 293 926 l 293 928 l 296 931 l 296 934 q 274 991 290 970 l 250 1007 l 250 1013 q 320 1042 277 1042 m 149 1021 l 149 1018 l 160 1018 l 160 1021 l 149 1021 m 122 1010 l 119 1007 l 119 1004 l 122 1004 l 133 1007 l 133 1010 l 122 1010 m 106 999 l 106 994 l 114 996 l 114 999 l 106 999 m 71 972 l 73 972 l 79 977 l 79 980 l 71 972 m 41 964 l 38 961 l 38 958 l 41 958 l 49 961 l 49 964 l 41 964 m 358 909 l 358 904 l 366 907 l 366 909 l 358 909 m 407 904 l 407 901 l 410 901 l 423 904 l 423 907 l 415 907 l 407 904 m 393 904 l 391 901 l 391 899 l 393 899 l 401 901 l 401 904 l 393 904 m 339 899 l 339 893 l 347 896 l 347 899 l 339 899 m 68 885 q 79 877 68 881 l 81 877 l 81 880 l 71 885 l 68 885 m 149 833 q 141 828 149 828 l 141 825 l 149 825 q 160 831 149 831 l 160 833 l 149 833 m 125 820 l 125 814 l 136 820 l 136 823 l 133 823 l 125 820 m 361 817 l 361 814 l 369 812 l 372 812 l 372 814 l 363 817 l 361 817 m 103 812 l 103 806 l 114 809 l 114 812 l 103 812 m 393 806 l 393 804 l 404 801 l 407 801 l 407 804 l 396 806 l 393 806 m 87 804 l 87 798 l 95 801 l 95 804 l 87 804 z "},"#":{"ha":510,"x_min":0,"x_max":492,"o":"m 235 680 l 246 680 l 251 674 q 235 530 235 574 l 280 526 q 309 530 290 530 l 317 530 l 337 680 l 450 669 l 471 664 l 471 661 l 452 530 l 455 530 q 492 523 492 530 l 492 410 q 455 400 492 400 l 452 400 l 452 395 l 429 395 l 427 397 l 424 397 l 424 395 l 427 392 l 427 389 l 410 288 l 486 288 l 492 282 l 492 157 l 486 152 l 397 152 l 397 149 q 374 0 380 0 l 319 0 l 272 8 l 241 5 l 241 8 l 262 152 l 217 157 l 212 152 l 180 152 q 155 0 161 0 l 152 0 l 50 5 l 24 0 l 24 5 q 31 28 31 15 l 34 28 l 31 31 l 31 34 l 34 42 l 28 52 q 42 149 42 125 l 42 152 l 5 152 l 0 157 l 0 193 l 3 196 l 0 199 l 0 243 q 13 288 4 288 l 47 285 l 71 290 l 73 288 l 86 395 l 76 395 q 0 408 0 401 l 0 526 l 5 530 l 37 530 l 86 528 q 102 578 102 528 q 120 677 116 677 l 152 674 l 173 677 l 189 674 l 191 677 l 193 677 l 210 674 l 228 674 l 235 680 m 149 502 l 149 499 l 165 494 l 168 494 l 168 496 l 152 502 l 149 502 m 196 484 l 196 481 l 207 478 l 210 478 l 210 481 l 199 484 l 196 484 m 222 475 q 230 471 222 471 l 233 471 l 233 473 l 222 475 m 298 444 l 298 441 l 309 439 l 311 439 l 311 441 l 303 444 l 298 444 m 361 420 l 366 416 l 369 416 l 363 420 l 361 420 m 372 418 q 379 413 372 413 l 382 413 l 382 416 l 372 418 m 397 405 l 397 400 l 408 397 l 408 402 l 397 405 m 228 395 l 212 395 l 201 282 l 228 285 l 228 279 l 235 279 l 233 282 l 233 288 l 246 288 l 246 282 q 282 293 282 288 q 303 392 290 392 l 303 395 l 228 400 l 228 395 m 204 275 l 204 272 l 214 272 l 214 275 l 204 275 m 162 259 l 162 256 l 168 256 l 175 259 l 175 261 l 173 261 l 162 259 z "},"$":{"ha":479,"x_min":0,"x_max":461,"o":"m 298 898 q 369 846 369 889 l 369 838 l 345 857 l 320 857 q 279 827 279 850 l 279 754 q 380 692 330 743 q 423 616 423 646 l 426 608 q 399 524 426 542 q 342 499 353 499 q 274 564 274 519 q 298 632 274 593 l 298 637 q 250 656 265 656 l 236 656 q 171 602 191 656 l 165 564 l 165 545 l 168 513 l 163 507 l 163 502 q 201 450 183 463 l 201 448 l 174 445 l 174 442 l 184 442 l 187 445 l 190 445 l 201 442 l 198 439 l 198 434 l 212 437 l 214 437 l 231 420 l 247 420 l 285 418 l 320 420 q 339 347 327 420 q 382 296 368 328 q 396 274 396 289 l 393 277 l 385 277 l 385 274 q 448 198 412 274 q 461 149 461 179 l 461 114 q 426 -11 461 45 q 407 -41 422 -11 q 317 -119 342 -119 q 279 -136 279 -131 l 279 -225 l 298 -231 l 301 -231 l 339 -220 l 339 -222 q 277 -285 339 -259 l 271 -285 l 228 -271 l 193 -277 l 184 -277 q 109 -225 119 -277 l 106 -212 l 106 -209 l 111 -209 q 149 -236 111 -231 q 182 -203 182 -236 l 184 -203 q 160 -106 184 -106 q 27 -16 121 -106 q 0 68 0 33 q 38 144 0 98 l 81 168 l 87 168 l 130 152 q 165 84 165 122 q 138 30 164 63 q 160 -8 138 -8 q 217 -30 172 -18 l 241 -30 q 315 73 315 -5 l 315 87 q 269 201 315 159 q 241 217 258 217 q 233 228 241 228 l 155 228 q 144 266 149 228 l 146 277 l 136 296 q 125 315 127 296 l 106 326 l 106 331 l 122 328 l 130 328 l 130 331 l 111 334 l 92 331 q 81 350 81 343 l 84 353 q 35 396 73 353 q 3 529 3 452 l 3 534 q 87 694 3 633 q 184 762 87 707 l 179 836 l 149 844 q 111 827 132 842 l 109 827 l 109 830 q 152 890 109 856 l 168 895 l 187 895 q 233 873 208 895 l 236 873 q 298 898 264 898 m 225 844 l 225 838 l 228 836 l 225 833 l 228 833 l 231 836 l 228 844 l 225 844 m 250 825 l 255 819 l 258 819 l 252 825 l 250 825 m 252 784 l 252 779 l 266 784 l 266 787 l 263 787 l 252 784 m 144 732 l 149 727 l 152 727 l 146 732 l 144 732 m 155 727 l 152 719 l 157 719 l 160 727 l 155 727 m 168 727 l 168 724 l 174 724 l 174 722 l 176 724 l 179 724 l 190 719 l 190 724 l 176 727 l 168 727 m 209 719 l 209 716 l 220 716 l 220 719 l 209 719 m 236 716 l 236 713 l 247 711 l 250 711 l 250 713 l 239 716 l 236 716 m 195 713 l 195 711 l 228 703 q 198 713 228 707 l 195 713 m 241 700 l 241 697 l 252 694 l 260 694 l 260 697 l 244 700 l 241 700 m 339 686 l 339 684 l 353 684 l 353 686 l 339 686 m 320 673 l 320 667 l 334 665 l 339 665 l 339 667 l 320 673 m 87 350 l 87 347 l 111 339 l 117 339 l 117 342 l 90 350 l 87 350 m 141 336 l 141 334 l 149 331 l 152 331 l 152 334 l 144 336 l 141 336 m 274 312 l 274 309 l 285 309 l 285 312 l 274 312 m 296 304 l 296 301 l 328 293 l 331 293 l 331 296 l 304 304 l 296 304 m 293 293 l 293 290 l 304 288 l 304 293 l 293 293 m 415 95 l 418 95 l 423 100 l 420 100 l 415 95 m 382 87 l 382 84 l 388 84 l 399 87 l 399 90 l 393 90 l 382 87 m 366 60 l 366 57 l 380 54 q 372 60 380 60 l 366 60 m 410 30 l 410 27 l 423 22 l 426 22 l 426 24 l 412 30 l 410 30 m 49 -22 l 49 -27 l 57 -30 l 57 -24 l 49 -22 m 152 -35 l 152 -38 l 157 -38 l 174 -35 l 174 -33 l 168 -33 l 152 -35 m 125 -43 l 125 -49 l 136 -46 l 136 -43 l 125 -43 m 87 -49 l 87 -52 l 98 -52 l 98 -49 l 87 -49 m 138 -68 l 138 -71 l 146 -73 l 149 -73 l 149 -71 l 141 -68 l 138 -68 m 201 -92 q 209 -98 201 -98 l 214 -98 l 214 -95 l 201 -92 m 222 -100 l 222 -103 l 258 -114 l 260 -114 l 260 -111 l 225 -100 l 222 -100 z "},"%":{"ha":778,"x_min":0,"x_max":770,"o":"m 510 925 l 515 925 l 597 920 l 602 925 l 613 925 l 621 917 q 526 673 530 673 l 524 670 l 526 667 l 526 665 q 434 437 477 532 l 429 415 l 423 415 l 423 423 l 420 423 l 420 420 l 423 404 l 423 399 q 385 304 412 383 l 358 231 l 355 231 l 355 233 l 336 225 l 336 222 l 339 222 l 355 228 l 355 225 l 304 81 q 274 0 293 63 l 163 0 l 160 3 l 157 3 q 190 92 168 16 q 236 203 218 127 q 293 361 293 347 q 347 510 317 415 l 355 518 l 380 518 q 385 510 385 518 l 388 510 q 404 524 388 521 l 404 526 l 401 526 l 385 521 l 385 532 q 366 521 376 521 l 355 521 l 355 524 q 377 567 355 540 q 437 741 377 593 l 453 770 l 456 773 l 458 773 l 456 776 l 456 784 l 461 789 l 458 798 q 510 925 502 925 m 184 901 q 271 879 214 901 q 342 762 317 854 q 380 686 342 727 l 380 684 q 347 608 347 649 q 279 469 347 547 q 193 439 241 439 q 141 458 151 445 q 76 510 85 480 q 41 578 41 551 l 27 651 l 24 654 l 35 654 l 35 656 q 0 684 16 656 l 0 686 q 38 765 38 726 l 46 792 l 54 808 q 65 814 65 808 l 60 814 l 60 819 q 184 901 107 901 m 209 868 l 214 863 l 217 863 l 212 868 l 209 868 m 155 841 l 157 841 l 163 846 l 160 846 l 155 841 m 98 830 l 98 827 l 106 827 q 117 833 106 833 l 117 836 l 111 836 l 98 830 m 146 787 l 146 776 l 149 703 l 146 665 l 149 618 l 141 616 l 141 613 q 149 586 149 613 l 152 570 q 157 540 157 570 q 193 513 165 522 l 198 513 q 222 551 222 531 l 222 570 l 225 570 l 228 567 l 231 567 l 231 570 q 222 575 231 575 q 233 613 222 613 l 233 616 q 225 621 225 616 l 228 648 l 222 681 l 222 792 q 195 822 217 822 l 184 822 q 146 787 146 810 m 475 795 l 475 792 l 480 798 l 480 800 l 475 795 m 464 781 l 464 773 l 469 773 l 469 781 l 464 781 m 472 770 l 472 765 l 480 762 l 480 768 l 472 770 m 486 749 l 494 741 l 494 743 l 488 749 l 486 749 m 228 732 l 228 730 l 239 730 l 239 732 l 228 732 m 494 732 l 496 724 l 499 724 l 499 732 l 494 732 m 103 713 l 103 711 l 106 711 l 117 713 l 117 716 l 111 716 l 103 713 m 505 705 q 518 681 513 681 l 518 684 q 510 705 510 696 l 505 705 m 43 656 q 33 651 43 651 l 33 648 l 35 648 l 52 651 l 60 648 q 43 656 60 653 m 71 648 l 71 646 l 90 637 q 103 643 90 643 l 103 646 q 84 651 84 646 l 71 648 m 100 640 l 100 637 l 111 637 l 111 640 l 100 640 m 130 635 l 130 632 l 138 629 l 138 635 l 130 635 m 100 632 l 100 629 l 114 627 l 117 627 l 117 629 l 103 632 l 100 632 m 119 624 q 127 618 119 618 l 133 618 l 133 621 l 119 624 m 239 610 l 239 608 l 250 605 l 252 605 l 252 608 l 244 610 l 239 610 m 260 608 q 277 600 260 603 l 277 605 l 260 608 m 279 602 q 334 583 279 599 l 336 583 l 336 586 l 279 602 m 575 480 l 583 480 q 648 458 597 480 q 711 399 689 441 l 708 391 l 713 391 l 713 382 q 727 361 713 372 l 724 353 q 741 301 734 353 q 770 263 770 271 q 741 206 741 227 q 727 165 741 180 l 727 144 q 675 65 704 75 q 600 19 659 46 q 505 49 547 19 q 480 68 481 63 l 480 71 l 488 71 l 488 73 q 450 119 459 73 q 423 206 423 157 l 423 212 q 431 217 423 217 l 431 220 l 426 220 l 423 217 l 420 220 l 420 225 l 426 233 q 415 252 415 233 l 401 250 l 399 250 l 391 263 q 431 350 431 308 l 439 372 l 448 374 l 445 377 l 445 380 q 575 480 486 480 m 659 410 l 659 404 l 667 407 l 667 410 l 659 410 m 621 407 l 621 404 l 632 404 l 632 407 l 621 407 m 562 399 q 548 366 548 375 l 548 133 q 562 100 548 115 l 559 98 l 559 95 l 567 92 q 610 111 602 100 l 613 111 l 610 114 l 610 117 l 613 119 l 616 119 l 613 133 l 613 366 q 594 399 613 388 l 562 399 m 532 391 l 532 385 l 540 388 l 540 391 l 532 391 m 518 380 l 521 380 l 526 385 l 524 385 l 518 380 m 480 382 q 488 377 480 377 l 491 377 l 491 380 l 480 382 m 505 377 l 507 377 l 513 382 l 510 382 l 505 377 m 464 374 l 467 374 l 472 380 l 469 380 l 464 374 m 434 339 q 442 334 434 334 l 445 334 l 445 336 l 434 339 m 665 315 l 665 312 l 675 312 l 675 315 l 665 315 m 703 315 l 703 312 l 722 307 l 727 307 l 727 309 l 705 315 l 703 315 m 437 236 l 429 222 l 434 222 l 442 236 l 437 236 m 315 212 l 317 212 l 323 217 l 320 217 l 315 212 m 301 209 l 301 206 l 309 206 l 312 209 l 312 212 l 309 212 l 301 209 m 288 203 l 288 201 l 296 201 l 296 206 l 288 203 m 271 198 l 271 195 l 285 195 l 285 198 l 271 198 m 648 152 q 654 144 654 152 l 659 144 l 659 149 q 654 157 654 149 l 648 152 m 637 146 l 637 144 l 648 141 l 648 146 l 643 152 l 637 146 m 621 130 l 621 125 l 635 130 l 635 133 l 629 133 l 621 130 m 515 84 l 515 79 l 524 81 l 524 84 l 515 84 m 491 73 l 491 71 l 494 71 l 502 73 l 502 76 l 499 76 l 491 73 z "},"&":{"ha":663,"x_min":0,"x_max":651,"o":"m 252 879 q 361 844 318 874 q 420 770 408 814 l 418 768 l 415 768 l 369 779 q 423 762 369 772 l 429 724 l 429 700 q 363 583 429 642 q 320 521 332 530 l 320 515 l 361 456 q 285 439 297 450 l 279 445 l 277 442 l 277 437 q 315 442 315 439 l 315 448 l 328 448 l 339 450 l 350 448 l 353 448 q 366 456 353 456 q 486 317 454 342 l 494 317 q 529 382 529 362 l 537 453 l 537 469 l 526 502 l 532 524 l 532 583 l 526 591 l 526 594 q 534 600 526 600 l 616 597 l 632 600 q 646 589 644 594 l 646 564 l 651 556 l 651 553 l 646 548 l 648 529 l 648 510 l 651 464 q 572 222 651 370 l 567 206 l 567 198 q 610 163 574 186 l 621 125 q 567 30 621 78 l 537 14 l 529 14 q 475 68 507 14 q 464 81 475 76 l 461 81 q 377 38 437 56 q 312 11 361 25 q 266 0 312 3 q 87 62 191 0 q 11 163 34 109 l 0 203 l 3 260 l 3 301 l 22 350 q 46 382 22 366 q 79 391 46 391 l 79 393 q 54 399 54 393 l 60 410 l 65 410 l 65 401 l 60 401 l 65 396 q 73 404 65 404 l 68 418 l 84 434 l 79 434 l 79 437 q 144 518 110 490 l 144 521 q 84 656 93 595 l 84 665 q 100 773 90 773 l 109 773 l 109 776 l 100 779 q 252 879 156 879 m 146 830 l 168 817 l 171 817 l 171 825 l 146 830 m 187 819 l 187 817 l 220 806 l 222 806 l 222 808 l 190 819 l 187 819 m 236 806 l 236 803 l 250 800 l 255 800 l 255 803 l 239 806 l 236 806 m 263 800 l 263 798 l 274 795 l 277 795 l 277 798 l 269 800 l 263 800 m 279 800 l 279 798 l 288 795 l 290 795 l 290 798 l 282 800 l 279 800 m 233 798 l 233 795 l 244 795 l 244 798 l 233 798 m 190 787 l 190 784 l 201 784 l 203 787 l 203 789 l 201 789 l 190 787 m 206 730 l 206 700 q 220 654 212 654 l 247 621 l 258 618 q 320 732 320 684 l 320 735 q 269 787 320 768 q 220 760 229 787 l 206 730 m 326 787 l 326 784 l 336 781 q 328 787 336 787 l 326 787 m 345 784 q 353 779 345 779 l 361 779 l 361 781 l 345 784 m 122 779 l 122 776 l 138 776 l 138 779 l 122 779 m 106 605 l 106 602 l 122 600 l 125 600 l 125 602 l 111 605 l 106 605 m 182 578 l 182 575 l 252 556 l 258 556 l 258 559 q 184 578 195 569 l 182 578 m 277 548 l 277 545 l 290 543 l 296 543 l 296 545 l 279 548 l 277 548 m 309 543 l 309 540 l 320 537 l 326 537 l 326 540 l 312 543 l 309 543 m 600 505 l 600 502 l 608 502 q 621 510 621 505 l 618 510 l 600 505 m 572 499 l 572 494 l 583 496 l 583 499 l 572 499 m 250 429 l 222 431 l 220 429 l 217 429 l 206 431 l 206 426 l 209 429 l 222 426 l 252 426 q 269 439 269 426 l 250 429 m 312 437 l 312 434 l 334 434 l 334 437 l 312 437 m 290 434 l 290 431 l 301 431 l 301 434 l 290 434 m 111 412 l 111 410 l 133 410 l 203 420 l 203 423 l 201 423 l 111 412 m 152 293 q 212 179 152 222 q 258 163 241 163 l 288 163 q 374 214 374 176 q 290 309 319 257 q 231 393 279 336 l 209 412 q 157 326 188 412 l 152 293 m 100 410 q 87 404 100 404 l 87 401 q 95 396 95 401 l 103 396 l 100 399 l 100 401 q 109 407 100 407 l 109 410 l 100 410 m 358 399 l 361 399 l 380 407 l 380 410 l 377 410 q 358 399 358 404 m 84 393 l 84 391 l 92 391 l 92 396 l 84 393 m 556 220 l 559 220 l 570 228 l 567 228 l 556 220 m 524 198 l 526 198 q 545 209 545 205 l 543 209 q 524 198 524 203 m 496 184 l 496 179 l 505 182 l 505 184 l 496 184 m 456 152 l 456 149 l 475 160 l 475 163 l 472 163 q 456 152 456 157 m 407 114 l 407 111 l 415 111 l 415 117 l 407 114 m 372 87 l 374 87 l 380 92 l 377 92 l 372 87 m 358 79 l 361 79 l 366 84 l 363 84 l 358 79 m 342 68 l 345 68 l 350 73 l 347 73 l 342 68 m 304 49 l 304 43 l 312 46 l 312 49 l 304 49 m 282 30 l 285 30 q 301 38 294 38 l 301 43 q 282 30 283 37 m 269 22 l 269 16 l 277 19 l 277 22 l 269 22 z "},"'":{"ha":231,"x_min":2,"x_max":219,"o":"m 73 1022 l 113 989 q 162 1022 144 1020 q 219 989 188 1022 q 178 927 178 956 l 176 924 l 178 922 l 178 913 l 176 913 l 178 873 l 178 843 l 173 794 l 176 732 l 173 729 l 124 729 l 73 734 l 67 729 l 56 729 l 48 737 l 51 751 l 48 759 l 54 786 l 48 810 l 51 829 l 48 838 l 54 838 l 54 843 l 48 843 l 48 846 l 51 848 l 45 862 l 48 876 l 48 884 l 45 895 l 48 903 l 45 905 l 45 908 l 48 911 l 48 913 q 26 970 43 949 l 2 987 l 2 992 q 73 1022 30 1022 m 111 889 l 111 884 l 119 886 l 119 889 l 111 889 m 159 884 l 159 881 l 162 881 l 176 884 l 176 886 l 168 886 l 159 884 m 146 884 l 143 881 l 143 878 l 146 878 l 154 881 l 154 884 l 146 884 m 92 878 l 92 873 l 100 876 l 100 878 l 92 878 m 113 797 l 113 794 l 121 791 l 124 791 l 124 794 l 116 797 l 113 797 m 146 786 l 146 783 l 157 781 l 159 781 l 159 783 l 149 786 l 146 786 z "},"(":{"ha":239,"x_min":0,"x_max":229,"o":"m 224 892 l 227 890 l 227 795 q 186 729 198 777 l 177 682 l 186 612 l 182 597 l 182 593 l 184 576 l 179 571 l 184 500 l 179 458 l 179 430 q 229 359 188 407 l 229 357 q 189 300 189 309 l 189 131 q 182 -31 189 40 q 195 -88 189 -31 q 227 -123 204 -108 l 227 -161 l 222 -166 l 217 -166 l 205 -157 l 195 -159 q 130 -107 154 -144 q 92 3 94 -38 l 73 60 l 59 98 l 50 140 l 52 152 q 40 241 46 152 l 47 244 l 47 246 q 38 284 38 246 l 38 307 l 0 357 l 0 359 q 43 435 43 406 l 43 470 l 56 538 l 54 564 q 115 762 84 706 q 127 781 119 762 l 149 817 l 158 817 l 158 819 q 149 823 149 819 q 189 857 163 846 q 224 892 212 892 m 182 807 l 182 802 l 189 802 l 184 807 l 182 807 m 189 366 l 189 364 l 191 364 l 193 374 q 189 366 189 374 m 177 345 q 184 357 182 345 q 177 345 178 357 m 144 315 l 146 315 l 151 319 l 151 321 l 144 315 m 130 302 l 134 302 l 139 307 l 139 312 l 130 302 m 106 289 l 106 286 l 109 286 l 115 289 l 115 294 l 106 289 m 80 267 l 83 267 l 87 272 l 85 272 l 80 267 m 56 258 l 56 253 l 66 258 l 66 260 l 64 260 l 56 258 z "},")":{"ha":232,"x_min":-3,"x_max":224,"o":"m 3 887 q 43 847 8 887 q 100 770 66 847 q 140 676 140 704 l 140 673 q 135 681 135 673 l 130 681 q 159 617 146 673 l 170 559 l 168 533 l 182 467 l 182 441 q 218 366 182 400 l 224 357 l 224 355 q 184 294 184 306 l 182 291 l 187 287 q 173 148 187 212 l 175 139 q 140 24 166 89 q 128 3 138 3 l 133 -4 q 102 -93 125 -46 q 56 -147 87 -126 l 27 -159 l 18 -157 l 8 -166 l 3 -166 l -1 -161 l -1 -123 q 37 -37 37 -101 q 43 -27 43 -37 q 37 130 37 32 l 37 218 q 64 231 37 222 l 67 233 l 67 235 l 62 235 q 39 226 62 226 l 37 226 l 37 298 q -3 355 37 307 l -3 357 q 46 427 37 404 l 46 456 l 41 498 l 46 568 l 41 573 l 43 589 l 43 594 l 39 608 q 48 683 43 615 q 37 732 42 696 q 6 784 25 774 l -1 791 l -1 882 l 3 887 m 43 728 l 43 723 l 51 720 l 56 720 l 56 723 l 43 728 m 64 716 l 69 711 l 72 711 l 67 716 l 64 716 m 102 699 l 102 697 l 107 692 l 107 694 l 102 699 m 114 690 l 114 686 l 123 683 l 126 683 l 126 686 l 114 690 m 168 282 q 178 289 178 286 l 175 289 l 168 282 m 149 275 l 144 268 l 149 268 l 154 273 l 154 275 l 149 275 m 119 258 l 121 258 l 128 261 l 128 265 l 119 258 m 98 249 l 98 244 l 104 247 l 104 252 l 98 249 m 77 242 l 74 239 l 74 237 l 77 237 l 83 239 l 83 242 l 77 242 m 51 40 l 56 35 l 58 35 l 53 40 l 51 40 m 104 17 l 104 12 l 117 7 l 123 7 l 123 9 q 107 17 107 9 l 104 17 z "},"*":{"ha":603,"x_min":12,"x_max":621,"o":"m 232 1230 l 237 1232 l 385 1042 l 610 1122 l 611 1119 l 481 918 q 621 725 616 737 l 391 788 l 252 595 l 250 600 l 239 835 l 12 907 l 12 910 l 237 989 l 232 1230 m 321 1040 l 321 1040 l 323 1041 l 323 1042 l 321 1040 m 227 998 l 228 995 l 228 995 l 228 994 l 227 994 l 227 994 q 225 992 227 993 l 229 989 q 229 991 229 990 l 231 991 l 233 988 q 237 985 234 989 l 241 985 l 242 989 q 240 990 241 989 l 240 990 l 239 990 l 239 989 l 240 989 l 241 989 l 240 988 l 240 988 l 237 991 l 236 991 l 235 992 l 237 994 l 239 992 q 239 995 240 992 q 243 994 241 996 l 242 996 l 241 996 l 243 997 l 244 997 l 244 999 l 243 998 l 243 998 l 243 998 l 240 998 l 239 996 l 239 996 l 239 997 l 239 998 l 239 998 l 237 998 q 237 996 238 996 q 233 999 235 996 l 233 999 l 234 997 l 233 996 l 233 995 l 232 996 l 232 996 l 231 995 l 230 995 l 229 994 l 229 995 l 229 995 l 229 998 q 231 998 229 998 l 231 998 l 231 1000 l 230 999 l 228 998 l 227 998 m 280 1021 l 280 1020 l 283 1021 l 283 1022 l 283 1022 l 280 1021 m 328 1042 l 328 1041 l 333 1041 l 334 1042 q 329 1042 334 1043 l 328 1042 m 337 1045 l 337 1045 l 338 1045 l 338 1046 l 337 1045 m 224 996 l 226 996 l 226 996 l 226 997 l 225 997 l 225 997 l 224 996 m 251 1008 q 250 1002 252 1005 l 250 1002 l 250 1001 q 251 1000 251 1002 l 252 999 l 251 999 l 250 1000 l 250 1000 l 249 1000 l 248 1000 q 248 997 248 998 l 247 997 l 246 998 l 246 998 q 245 996 247 996 l 245 996 l 244 996 l 244 996 l 246 994 l 246 994 q 247 996 246 996 l 249 996 l 249 997 l 249 997 q 253 996 252 998 l 254 996 l 253 997 l 252 998 q 251 1003 252 999 l 252 1003 l 253 1004 q 252 1006 252 1004 q 253 1008 252 1008 l 253 1009 l 251 1008 m 254 1010 l 254 1006 l 254 1005 l 254 1005 l 254 1005 l 254 1006 q 255 1005 254 1006 l 256 1006 q 256 1009 255 1008 l 256 1009 l 257 1009 l 256 1010 l 254 1010 m 271 1016 l 271 1015 l 272 1015 l 274 1017 l 273 1018 l 273 1017 l 271 1016 m 323 1038 l 323 1037 l 326 1039 l 325 1039 l 323 1038 m 236 1000 l 236 1000 l 238 1000 l 238 1000 l 237 1001 l 236 1000 m 259 1001 l 259 1001 l 260 1002 l 258 1004 l 258 1004 l 259 1002 l 258 1002 l 256 1002 l 256 1002 l 258 1000 l 258 999 q 260 998 260 1000 l 261 998 q 259 996 261 998 l 259 995 q 261 995 260 996 l 262 996 l 262 996 l 263 996 l 262 997 l 263 997 q 264 996 264 996 q 265 1000 264 1000 l 266 1001 l 267 1000 l 268 1000 l 269 1000 l 269 1000 l 269 1001 l 268 1001 q 269 1004 267 1004 l 267 1006 l 268 1006 l 269 1006 l 269 1007 l 273 1008 l 272 1012 l 272 1011 l 271 1011 l 269 1012 l 269 1012 l 271 1015 l 271 1015 l 271 1015 q 263 1006 267 1011 l 259 1001 m 336 1043 l 336 1039 l 336 1038 l 337 1039 l 338 1039 l 339 1038 l 340 1038 l 339 1036 l 338 1036 l 336 1036 q 340 1036 336 1035 q 342 1034 341 1034 q 341 1038 340 1037 l 339 1044 l 336 1043 m 258 1006 l 258 1004 l 259 1006 l 259 1006 l 261 1006 l 261 1006 q 258 1006 261 1007 m 256 1004 l 256 1003 l 257 1003 l 256 1005 l 256 1004 m 267 1010 q 271 1010 271 1011 l 271 1008 l 269 1008 l 267 1006 l 267 1006 l 265 1008 l 267 1010 m 343 1042 l 344 1041 q 347 1041 345 1042 l 348 1041 l 344 1042 l 343 1042 m 253 1002 l 253 1001 l 253 1000 l 256 999 l 256 1000 q 253 1002 255 1002 m 233 993 l 239 988 l 238 987 q 232 992 233 989 l 233 993 l 233 993 m 274 1010 l 275 1008 l 275 1009 l 275 1010 l 274 1010 m 264 1006 l 265 1006 l 267 1004 l 267 1004 l 265 1004 l 264 1004 l 263 1002 l 264 1002 l 264 1002 l 264 1001 q 262 1001 263 1002 l 261 1002 q 264 1006 262 1002 m 250 999 l 250 998 l 249 998 l 248 998 l 248 998 l 250 999 m 349 1041 l 349 1040 q 353 1040 351 1041 l 353 1040 l 349 1041 m 270 1006 l 271 1004 l 272 1004 l 271 1006 l 270 1006 m 274 1007 l 273 1006 l 276 1004 l 277 1006 l 277 1007 q 274 1007 277 1008 m 255 989 l 256 989 q 260 998 258 997 l 259 998 q 256 990 258 998 l 255 989 m 356 1040 l 356 1039 q 376 1030 370 1034 l 377 1030 q 356 1040 372 1034 m 275 1004 l 275 1002 l 276 1003 l 276 1004 l 275 1004 l 275 1004 m 254 985 l 254 985 q 251 972 254 982 q 250 956 250 968 l 250 956 q 250 962 250 958 l 252 963 l 252 963 l 250 964 l 251 965 l 251 964 l 252 964 l 251 965 l 250 966 q 254 981 253 973 l 256 988 l 256 989 l 254 985 m 264 991 l 267 991 l 267 991 l 267 992 q 265 993 266 991 l 264 991 m 266 986 l 267 985 l 268 984 l 267 987 l 266 986 m 292 992 l 294 992 l 294 991 l 293 990 l 294 990 l 294 991 l 295 991 l 297 985 l 298 983 l 298 983 l 298 982 l 301 974 l 307 964 l 305 964 l 305 964 l 304 964 l 305 964 q 307 963 306 962 l 307 962 l 307 960 l 306 960 l 303 963 l 302 963 l 301 960 l 299 960 l 299 961 l 301 962 l 300 964 q 298 964 299 963 l 298 966 l 300 966 l 300 966 l 300 967 l 299 967 l 298 968 l 300 968 q 298 969 299 969 l 297 969 l 297 970 l 298 970 l 298 970 q 295 972 296 971 l 296 975 l 295 976 l 295 977 l 294 977 l 292 978 l 292 979 l 292 979 l 292 979 q 290 981 291 979 l 290 980 q 290 976 291 977 l 290 977 l 290 975 l 292 975 l 292 974 l 292 973 l 294 970 l 294 970 l 293 969 q 290 972 292 972 l 290 971 l 290 971 l 290 972 l 290 972 l 290 972 l 291 972 l 291 974 l 288 976 q 289 978 287 977 l 285 979 l 284 978 l 283 978 l 284 977 q 286 977 284 977 l 286 977 l 286 976 l 286 975 l 284 975 l 283 973 l 282 973 l 279 981 l 278 980 l 279 976 l 277 971 l 277 970 l 279 971 q 279 970 280 970 l 279 968 l 280 968 l 281 970 l 281 970 l 282 969 l 281 967 l 280 967 l 279 967 q 278 966 279 966 l 279 964 q 279 962 279 962 l 278 963 l 277 963 q 281 960 278 961 l 281 960 l 278 960 q 275 963 277 960 q 273 960 273 960 q 276 959 274 958 q 279 958 277 956 l 281 955 l 282 956 l 283 956 l 284 956 l 285 958 l 286 957 l 286 956 l 284 955 l 285 954 l 288 954 l 289 954 q 290 957 288 956 l 290 956 l 290 956 l 290 960 l 290 960 l 291 960 l 292 960 q 291 954 292 958 q 294 954 293 954 l 295 954 l 295 956 l 294 956 l 294 956 l 295 957 l 296 955 l 296 954 l 296 954 l 296 954 l 297 952 l 296 951 l 296 951 l 298 951 l 298 950 l 298 949 l 298 950 l 301 954 l 302 954 l 302 949 l 302 949 q 303 956 304 953 l 304 957 l 305 955 l 304 951 l 304 951 q 305 952 306 951 l 305 952 l 307 952 l 307 951 l 307 949 l 307 947 l 309 947 q 307 943 309 944 l 307 942 q 311 941 309 943 l 311 941 l 309 940 l 309 939 l 310 939 l 308 939 l 307 940 l 309 940 l 308 941 l 306 943 l 306 943 l 305 942 l 304 943 l 304 943 l 306 944 l 305 945 q 301 946 304 944 l 301 947 l 301 947 q 300 948 300 947 l 298 947 q 299 944 300 944 l 298 944 l 299 943 l 296 944 q 298 945 296 945 l 294 947 l 294 945 l 293 945 l 294 944 l 294 943 q 292 941 293 943 l 292 941 l 288 948 l 287 947 l 289 944 l 286 939 l 286 938 l 289 939 l 287 935 l 286 935 l 286 934 l 286 934 l 286 933 l 285 932 l 285 932 l 286 931 l 286 932 l 286 932 q 288 932 288 932 l 288 930 l 287 931 l 286 930 q 290 928 287 928 l 290 927 q 283 931 288 926 l 283 931 l 283 932 l 283 932 l 283 933 q 281 934 281 932 l 281 933 l 281 933 l 280 933 q 277 930 277 930 q 283 929 282 931 l 282 927 q 285 926 283 926 q 288 925 286 924 l 289 924 q 285 914 287 922 l 286 914 l 286 914 l 286 914 q 286 907 285 910 q 284 904 284 907 l 284 904 l 285 905 l 286 905 l 286 904 l 287 904 l 287 905 l 286 905 l 286 906 l 288 911 l 289 911 l 290 911 l 290 905 l 291 905 l 290 904 l 291 901 l 290 900 l 290 899 l 290 899 l 291 900 l 292 900 l 292 899 l 292 898 q 294 897 294 899 l 295 896 l 295 895 l 295 895 l 296 895 l 296 895 q 296 897 296 897 l 297 897 l 297 897 l 296 895 l 298 893 l 298 893 q 300 896 298 895 l 300 897 l 300 898 l 301 899 q 306 895 302 897 l 306 894 l 304 893 l 303 893 l 303 893 l 302 891 l 303 890 l 303 890 l 302 892 l 304 892 l 307 894 l 308 893 l 308 893 l 307 892 l 307 892 l 309 892 l 309 894 q 312 893 310 892 l 313 892 l 313 890 l 314 890 l 313 889 l 313 888 l 313 889 l 311 887 l 311 888 l 310 888 l 311 890 l 309 889 q 309 887 310 887 l 308 886 l 308 886 l 312 887 l 313 887 l 313 888 l 315 888 l 317 890 l 318 890 l 319 890 l 319 890 l 319 891 l 320 891 l 321 890 l 320 890 l 319 890 l 319 888 q 321 888 321 889 l 320 886 l 321 886 l 321 886 l 321 886 l 320 885 l 320 886 l 319 886 l 319 885 l 321 884 l 320 884 l 320 883 q 318 884 319 883 l 317 884 q 317 882 318 882 l 311 877 l 312 876 q 314 876 314 877 q 313 873 313 875 l 313 873 l 313 873 l 313 876 l 313 876 l 311 871 q 307 867 309 867 l 307 868 l 306 867 l 307 865 l 305 863 l 304 864 l 305 864 l 304 865 l 303 863 l 300 863 l 299 862 l 299 862 l 300 861 l 299 860 l 291 860 l 293 859 l 292 859 l 294 857 l 293 857 l 294 857 q 307 845 302 846 l 311 843 l 310 842 l 311 842 q 320 839 317 845 q 332 819 321 840 l 336 813 l 333 812 l 335 809 l 335 808 l 334 807 l 334 808 l 334 807 q 332 806 334 806 l 333 805 l 333 803 l 334 804 l 335 803 l 335 802 q 334 801 336 802 l 334 800 l 336 800 q 338 802 335 801 l 338 802 l 336 802 l 336 802 l 336 804 l 338 804 l 339 802 q 343 798 341 802 l 344 797 l 344 796 l 342 797 l 342 797 l 342 796 q 348 793 347 794 l 349 795 l 350 795 l 350 794 l 349 793 q 354 791 353 791 l 355 792 l 355 792 l 355 791 l 355 791 l 356 791 l 357 791 l 355 790 l 355 790 l 357 790 l 357 791 q 359 791 359 791 l 361 792 q 366 792 363 791 l 366 792 l 367 793 l 367 793 l 369 793 l 370 793 l 371 793 l 370 793 l 371 792 q 376 793 375 794 l 376 793 l 376 793 l 380 793 l 380 794 l 380 793 l 382 794 l 382 795 l 382 795 l 384 795 l 385 795 l 385 796 l 386 796 l 386 796 l 386 795 q 393 796 392 797 l 393 796 l 399 798 l 399 799 l 400 799 l 401 799 l 401 799 l 403 800 l 403 800 l 404 800 l 404 801 l 406 802 l 407 802 l 411 803 q 418 808 416 805 l 421 808 l 421 808 l 423 808 l 424 809 l 425 810 l 425 810 l 433 819 q 435 824 433 821 q 440 831 437 829 l 441 836 q 443 839 441 838 l 443 839 l 444 839 q 446 845 443 840 l 446 845 l 445 846 l 448 846 q 445 846 447 848 l 444 845 l 442 845 l 443 844 l 444 845 l 444 844 l 443 844 l 441 844 l 441 844 q 441 848 442 846 l 442 848 q 448 848 446 849 q 448 851 447 850 l 448 851 l 450 848 l 450 848 l 448 852 l 446 858 l 443 857 l 443 856 l 444 855 l 444 855 q 443 852 442 854 l 444 852 l 444 852 l 442 851 l 441 852 l 441 852 q 441 850 441 851 l 440 850 l 437 857 l 438 857 l 437 858 l 435 862 l 434 864 l 434 865 l 433 866 l 431 873 l 429 875 q 426 892 424 891 l 427 892 q 429 912 431 906 q 432 933 435 925 q 430 935 431 932 l 427 935 l 427 933 q 432 930 431 932 l 431 930 l 426 933 l 426 933 l 427 931 q 431 927 427 930 q 429 913 433 923 q 422 909 426 911 l 410 910 l 410 911 q 404 906 409 909 q 403 905 404 905 l 403 898 q 403 891 405 892 l 402 890 l 402 890 q 404 890 404 891 l 405 891 l 406 890 l 405 890 l 406 889 l 406 889 l 406 888 l 408 887 l 407 886 l 409 884 l 409 883 l 410 882 l 410 883 q 409 878 411 880 l 409 876 l 413 869 l 412 869 l 414 869 l 413 871 l 412 873 l 412 874 l 412 875 q 416 870 414 874 q 413 865 417 867 l 412 866 l 412 864 q 408 865 408 864 l 408 867 q 407 865 406 866 l 407 864 l 406 863 l 406 864 l 406 864 l 405 863 l 402 862 q 401 859 402 859 l 401 859 l 399 859 l 397 857 l 397 858 l 397 859 l 397 859 l 396 859 q 397 861 398 860 q 394 864 395 861 l 396 863 l 397 864 l 397 864 l 395 864 l 393 868 l 392 866 q 389 866 391 867 l 389 865 q 393 862 391 866 l 391 861 l 391 859 l 392 861 l 393 861 l 394 860 l 394 857 l 395 857 l 395 857 l 394 854 l 393 854 l 392 854 l 390 854 l 388 852 l 384 852 l 382 852 l 382 852 l 380 852 l 380 851 l 378 850 l 376 851 l 376 852 q 376 853 376 852 l 376 853 l 375 853 l 376 856 l 375 857 q 373 858 374 856 l 372 858 q 373 865 371 861 l 374 865 l 373 865 l 376 867 l 377 866 l 379 867 l 379 868 q 377 868 378 867 l 377 869 q 377 871 378 869 l 377 872 l 376 872 q 376 869 376 871 q 372 868 374 869 l 372 868 q 371 861 372 867 l 370 861 l 369 863 l 371 863 l 370 864 q 368 865 369 863 l 368 864 l 369 863 l 368 863 l 367 863 l 367 864 q 367 867 368 865 l 368 867 l 367 867 l 366 868 l 368 870 l 368 869 l 368 869 l 370 866 l 371 866 l 370 869 l 372 869 l 372 869 l 373 869 l 374 870 l 374 869 l 374 869 l 376 871 l 375 871 l 374 871 l 375 873 l 376 873 l 377 873 l 378 873 l 379 874 l 380 874 l 380 873 l 380 873 l 380 873 l 381 870 l 382 867 l 381 867 l 380 867 l 380 867 l 380 867 l 379 867 l 380 866 l 380 866 l 380 866 l 381 866 l 382 867 l 382 866 l 382 865 l 382 865 l 381 865 l 380 865 l 381 864 l 381 864 l 382 864 l 381 863 l 381 863 l 380 863 l 379 862 l 378 862 l 378 862 l 378 862 l 377 861 l 378 861 l 380 861 l 383 859 l 383 858 l 383 857 l 385 856 l 384 855 q 385 854 385 856 l 386 854 q 387 858 385 857 l 386 859 l 385 859 l 385 860 l 384 862 l 385 862 l 385 862 l 384 863 l 384 863 l 384 864 l 384 864 l 383 864 q 383 869 384 867 l 384 869 l 384 869 l 388 870 l 389 871 l 390 871 l 390 871 l 389 871 l 391 869 l 391 869 l 391 869 l 393 869 q 393 874 394 873 l 393 874 l 393 873 l 392 873 l 391 873 l 391 875 l 392 874 l 392 875 l 391 875 l 391 876 l 392 876 l 391 878 l 389 880 l 389 878 l 388 879 l 387 878 q 387 877 387 878 l 386 877 l 385 878 l 385 878 l 384 878 l 385 880 l 389 880 l 389 881 l 386 880 l 389 884 q 391 888 389 886 l 391 888 l 391 890 l 392 891 l 392 890 l 393 890 l 393 892 l 392 892 l 392 891 l 391 891 l 391 892 q 392 894 390 892 l 391 894 l 391 894 l 391 896 l 392 896 l 392 895 l 392 895 q 394 894 393 893 l 395 892 l 394 892 l 395 892 l 397 892 l 397 892 l 396 894 l 395 896 q 393 897 393 895 l 392 901 q 390 903 391 901 l 389 907 l 390 908 l 391 907 l 391 908 l 391 909 l 391 909 q 389 909 389 908 q 389 912 388 910 l 391 913 l 391 912 l 391 912 l 391 911 l 393 912 l 393 912 q 392 907 391 911 q 391 905 391 906 l 391 904 q 392 907 393 905 l 393 908 l 393 907 l 393 904 l 394 905 q 394 907 393 907 l 395 907 l 395 906 l 395 905 l 395 905 l 397 905 l 398 907 l 399 906 l 397 905 l 397 904 l 399 905 l 399 903 l 397 903 l 397 903 l 397 902 q 400 902 399 903 l 400 901 q 398 900 400 901 l 399 899 l 400 900 l 401 899 l 399 899 l 399 898 l 400 899 l 401 898 l 399 897 l 399 897 q 401 897 401 898 l 401 896 l 402 897 l 400 905 l 401 906 l 401 905 l 402 906 l 403 908 l 402 908 l 401 907 l 401 907 l 400 907 l 400 907 q 402 909 400 909 l 401 911 l 401 911 l 401 911 l 400 911 l 400 910 l 401 910 l 401 909 l 399 908 l 399 909 q 399 911 399 909 l 400 911 l 401 911 l 401 912 l 402 912 l 404 911 q 407 915 407 914 l 406 915 l 406 915 l 406 914 l 406 914 l 405 914 l 405 915 l 405 915 q 403 916 404 916 l 403 916 l 403 918 l 400 917 q 401 918 400 918 l 401 918 l 400 919 l 400 918 l 399 918 l 399 918 q 396 919 397 918 q 394 920 395 918 q 393 918 393 920 l 389 917 l 388 916 l 386 914 l 385 916 l 385 918 l 389 918 l 387 920 l 387 921 l 386 921 q 387 924 385 922 l 392 924 l 392 927 l 389 927 l 389 928 l 391 929 l 391 929 q 391 932 390 932 l 391 932 l 390 932 l 390 934 l 392 935 l 392 935 l 393 934 l 393 933 l 393 933 q 395 932 394 933 l 397 932 q 397 937 396 934 l 398 936 l 397 934 l 397 933 l 399 938 q 400 941 401 939 q 401 945 404 942 l 403 945 l 406 947 l 405 947 l 405 947 q 406 949 404 949 l 405 951 l 405 952 l 404 952 l 404 953 l 404 954 l 404 954 l 403 958 l 403 958 l 402 959 l 403 960 l 402 960 l 398 964 l 399 966 l 401 965 l 401 964 q 404 963 403 964 l 403 963 q 406 960 404 962 l 406 960 l 406 960 l 408 962 l 407 964 l 406 967 l 406 967 l 404 968 l 402 966 q 399 969 400 968 l 399 968 l 399 968 l 399 967 l 399 966 l 398 967 q 398 965 399 966 l 397 966 l 397 966 l 397 965 l 397 965 l 396 966 l 395 966 l 397 967 l 397 966 l 398 966 l 398 967 l 397 968 l 397 968 l 396 969 l 394 968 l 395 968 l 395 967 l 395 966 q 380 968 389 969 l 380 969 l 381 969 l 380 970 l 379 969 l 379 968 l 378 968 l 378 969 l 372 967 q 359 956 359 960 l 357 954 l 357 954 l 357 953 l 357 951 l 355 954 q 357 960 358 958 l 357 961 l 359 960 l 359 960 l 358 960 l 358 959 l 359 960 l 359 963 l 358 962 l 359 962 l 357 961 q 353 956 353 956 l 352 957 q 351 954 351 956 l 349 951 l 350 951 l 350 951 l 349 951 l 348 951 l 349 950 l 349 950 l 349 949 l 348 948 l 349 948 l 349 947 l 349 947 l 348 947 l 349 945 l 348 944 l 347 945 l 347 944 l 347 944 l 346 944 l 346 944 l 346 942 q 347 941 347 943 l 348 941 l 349 943 l 351 942 l 352 941 l 351 940 l 351 939 q 354 939 353 941 l 355 939 l 354 938 l 356 935 q 355 940 357 935 l 356 940 l 356 939 l 356 939 l 356 939 l 357 939 l 357 935 l 358 935 l 359 935 l 358 934 q 369 926 360 930 l 369 925 l 370 924 l 372 926 q 380 922 379 924 l 382 919 l 381 919 l 382 919 l 382 918 l 383 916 l 382 915 l 382 916 l 381 916 l 380 915 l 380 917 l 380 917 l 380 917 l 380 916 l 378 915 l 370 918 l 370 917 l 369 917 q 358 916 366 918 l 358 915 l 355 913 q 347 905 348 909 l 345 903 l 345 904 l 344 904 q 343 901 345 903 l 344 901 l 345 899 l 342 897 l 342 898 l 342 899 l 341 899 l 340 899 l 340 899 l 341 899 l 341 898 l 341 898 l 342 897 l 342 897 l 341 897 l 338 897 l 337 900 l 336 901 l 336 901 l 336 902 l 334 901 l 333 897 l 333 897 q 334 899 334 897 l 334 899 l 334 899 l 335 897 l 336 897 l 334 901 l 335 901 l 336 899 q 336 896 337 896 q 335 897 335 895 l 334 896 l 334 896 l 334 896 l 333 895 l 333 895 l 332 895 l 330 894 l 328 893 l 328 893 l 328 892 l 326 891 l 326 892 l 325 892 q 324 888 326 890 l 323 888 l 323 890 l 323 892 l 321 892 q 326 897 321 893 l 326 896 l 326 895 l 326 895 l 326 895 l 327 895 l 328 896 l 326 898 l 327 899 l 328 899 l 328 898 l 329 899 l 328 899 l 328 899 l 329 900 l 330 896 l 331 897 q 331 901 329 901 l 331 902 l 332 901 l 332 901 l 330 899 l 331 899 l 332 899 q 332 903 332 902 l 333 905 l 334 903 q 337 909 336 909 l 336 909 l 336 909 l 337 911 l 338 911 l 338 910 l 337 910 l 338 909 l 338 909 q 342 923 342 914 q 340 929 340 928 l 339 930 l 338 930 q 338 927 339 928 l 338 928 l 337 928 q 337 924 338 924 l 336 924 l 336 925 q 338 934 336 932 q 340 939 338 935 q 341 941 340 941 l 340 942 l 340 942 l 340 941 l 339 941 l 339 941 l 339 943 l 339 943 l 338 943 l 338 942 l 335 941 l 334 941 l 334 942 l 333 941 l 332 941 l 332 942 l 333 942 l 332 943 l 330 941 l 331 939 l 330 937 l 328 940 l 325 942 l 323 941 q 325 945 322 945 l 323 947 l 324 948 q 321 949 323 947 l 321 949 q 321 951 321 949 q 319 951 320 950 l 319 949 l 320 949 l 319 947 q 321 947 321 947 q 320 945 321 945 l 321 945 l 321 945 l 321 945 l 321 944 l 321 943 l 323 943 l 322 943 l 322 943 q 317 944 318 941 l 315 943 l 316 943 l 317 943 l 317 942 l 317 941 l 316 941 l 313 941 l 313 942 q 314 945 315 943 l 313 945 l 314 944 l 313 944 l 312 945 l 311 948 l 311 949 l 314 949 l 314 948 l 315 947 l 315 949 l 315 949 l 314 950 l 315 951 l 315 951 l 314 951 l 314 951 l 313 950 l 312 951 l 313 952 l 311 953 l 312 954 l 313 954 l 313 954 l 315 954 l 314 955 l 313 954 l 312 956 l 313 956 l 313 956 l 313 957 l 313 957 l 313 958 l 313 958 l 313 958 q 310 958 313 960 l 309 960 q 309 964 308 963 q 318 960 310 962 l 318 960 l 318 960 l 319 960 l 319 961 l 319 960 l 319 960 l 320 958 l 321 958 l 321 958 q 321 961 321 960 q 336 960 330 960 l 338 962 q 344 966 339 963 q 348 972 349 971 q 347 994 352 983 l 346 996 q 330 1004 340 1003 q 314 1003 328 1003 l 299 1000 l 292 993 l 292 992 m 302 998 l 304 999 q 327 1000 312 1002 l 326 1000 q 306 996 319 1000 l 304 996 q 301 990 301 992 l 300 989 q 297 992 300 991 l 297 992 l 296 991 l 296 992 q 302 998 295 994 m 382 1027 l 382 1027 l 384 1026 l 384 1026 q 382 1027 382 1027 m 309 995 q 319 997 313 996 l 320 996 l 315 995 l 313 994 q 306 985 304 988 l 305 982 l 304 983 l 304 985 l 304 985 l 304 985 q 309 995 306 994 m 258 971 l 258 970 l 260 968 l 261 968 q 258 971 260 971 m 328 1000 l 328 1000 q 342 996 336 1000 l 345 989 l 346 989 l 347 985 l 346 985 l 345 988 l 344 988 l 344 989 l 344 989 q 335 998 341 994 l 328 1000 m 385 1025 l 386 1024 q 398 1008 396 1013 l 399 1008 l 398 1009 l 396 1013 l 397 1013 q 385 1025 391 1021 m 265 972 l 267 972 l 267 972 l 266 972 l 265 972 m 283 981 l 284 979 l 284 980 l 285 981 l 283 981 m 286 981 l 286 980 l 287 981 l 287 981 l 286 981 m 323 997 l 324 997 q 340 989 337 995 q 333 970 343 975 l 330 968 q 317 970 323 965 l 316 972 l 316 972 q 328 969 322 968 l 332 970 q 337 987 341 978 l 337 988 q 323 996 334 995 l 323 997 m 288 980 l 289 980 l 290 980 l 289 981 l 288 980 m 314 992 q 333 989 325 997 l 334 987 q 329 972 337 976 q 321 972 325 971 l 321 971 q 314 978 316 974 q 318 985 315 983 l 319 986 q 330 985 323 988 q 328 979 330 980 l 328 979 l 328 982 l 328 983 q 322 984 325 985 l 319 983 l 315 979 l 316 979 l 316 979 l 315 977 l 317 976 q 325 972 321 971 l 330 975 q 334 986 336 977 l 333 986 l 333 987 l 333 987 q 317 991 330 995 q 310 985 313 989 l 310 985 q 314 992 311 988 m 260 968 q 260 964 261 966 l 261 963 l 260 962 l 262 959 l 261 959 q 260 957 260 958 l 261 958 l 261 957 l 264 959 l 264 959 q 267 958 264 958 l 267 956 l 267 955 l 267 954 l 270 956 l 269 957 l 268 959 l 270 960 l 267 962 l 266 960 l 264 962 l 264 963 l 267 964 l 267 964 q 263 966 265 966 l 263 966 l 263 968 l 262 967 l 261 966 l 261 968 l 260 968 m 273 972 l 273 971 l 273 971 l 274 971 l 274 972 l 273 972 m 309 984 l 310 985 l 311 983 q 311 979 309 983 l 312 976 l 312 975 l 312 975 l 315 973 l 315 972 l 315 972 q 310 976 313 971 q 309 984 308 983 m 262 964 l 264 963 l 264 962 l 263 962 l 262 964 m 304 981 l 304 981 l 306 981 l 307 979 l 305 978 l 304 981 m 271 964 l 271 965 q 268 962 268 963 l 271 962 l 271 963 l 271 963 l 274 964 l 275 965 l 275 966 q 272 966 273 965 l 271 964 m 257 958 l 257 958 l 257 957 l 258 958 l 257 958 m 258 956 l 258 956 l 260 956 l 259 958 l 259 957 l 258 956 m 306 977 l 307 978 l 309 973 l 309 973 q 315 966 311 968 l 314 966 l 315 966 q 317 966 316 966 l 317 965 l 316 964 l 317 964 q 308 969 310 964 l 307 970 l 306 977 m 265 960 l 266 960 l 267 959 l 267 959 l 267 958 l 266 959 l 265 960 m 252 950 l 252 950 l 253 950 l 252 951 l 252 950 m 260 954 l 261 953 q 263 956 263 954 l 262 956 l 260 954 m 281 964 l 281 964 l 283 964 l 281 963 l 281 964 m 323 983 l 325 981 l 326 981 l 325 979 l 323 979 l 322 979 l 321 979 q 323 983 321 981 m 250 949 l 250 946 l 251 947 l 250 949 l 250 950 l 250 949 m 257 953 l 258 950 l 258 953 l 258 953 l 257 953 m 264 954 l 266 955 l 264 956 l 264 954 m 252 949 l 252 947 l 253 947 l 253 948 l 252 949 m 259 951 l 259 949 l 262 949 l 260 952 l 259 951 m 297 968 l 297 968 l 297 966 l 297 966 l 296 967 l 296 968 l 297 968 m 250 945 l 250 943 l 251 943 l 252 943 l 252 943 l 252 944 l 250 945 l 251 945 l 250 945 m 265 949 l 266 949 l 267 949 l 267 950 l 266 951 l 266 951 l 265 949 m 269 952 l 271 951 l 271 951 l 272 951 l 270 952 l 269 952 m 323 976 l 326 977 l 327 977 l 324 975 l 323 976 m 250 942 l 250 940 l 250 939 l 252 939 l 251 943 l 250 942 m 399 1006 l 399 1006 l 399 1005 l 399 1004 l 401 1002 l 400 1002 l 401 1002 l 399 1006 l 399 1006 m 295 960 l 296 960 l 295 958 l 294 959 l 295 960 m 280 953 l 280 952 l 281 951 l 281 951 l 282 953 l 280 953 m 347 982 l 347 980 q 338 965 345 968 l 334 964 l 332 962 l 331 964 l 334 965 q 347 982 342 969 m 273 949 l 273 948 l 275 949 l 275 949 l 273 949 m 251 937 l 251 937 l 252 938 l 252 939 l 251 937 m 303 960 l 303 960 l 303 958 q 304 958 304 959 l 302 956 l 300 956 l 303 960 m 275 947 l 275 945 l 276 945 l 275 947 l 275 947 m 282 949 l 283 947 l 283 947 l 284 948 l 283 950 l 283 949 l 282 949 m 251 936 l 252 929 q 252 935 253 930 l 252 936 l 251 936 m 318 964 l 318 965 q 330 964 325 962 l 330 963 q 318 964 323 962 l 318 964 m 399 998 q 399 992 401 994 q 399 991 399 991 l 398 991 l 399 990 l 399 989 q 400 981 399 989 l 401 979 l 401 979 l 401 979 l 403 976 l 404 974 l 404 971 q 406 970 406 969 l 407 968 q 416 953 412 962 l 416 953 l 416 953 l 416 952 l 416 951 l 416 951 l 417 951 l 417 950 l 417 950 l 417 949 l 418 947 l 419 948 l 418 948 l 418 950 l 416 956 l 416 956 l 416 957 l 415 957 l 416 958 l 415 958 l 413 963 l 414 963 l 413 964 l 412 964 l 412 966 l 412 967 l 414 964 l 414 964 l 414 965 l 413 966 l 414 967 l 413 968 l 412 968 l 412 968 l 412 968 l 413 968 l 413 969 l 413 970 l 412 970 l 412 968 l 411 969 l 410 970 l 410 970 l 410 971 l 410 972 l 410 971 l 411 972 l 410 972 l 410 973 l 410 975 l 409 975 l 408 975 l 408 979 l 407 979 l 406 979 l 407 980 l 407 982 l 407 982 l 408 983 l 408 981 l 410 983 l 409 983 l 408 983 l 409 983 l 409 984 q 406 985 408 985 l 406 985 l 407 986 l 408 985 l 408 986 l 410 986 l 411 983 l 412 981 l 414 972 l 414 971 l 415 971 l 414 969 l 416 968 l 415 967 l 416 967 l 416 967 l 416 966 l 416 966 l 417 965 l 418 960 l 416 959 l 416 958 q 418 958 418 959 q 419 947 420 947 l 418 946 l 419 945 l 420 945 l 420 944 l 420 943 q 425 936 422 942 l 424 937 l 423 936 l 425 935 l 425 935 l 425 936 l 425 936 l 426 935 l 427 935 l 425 939 q 423 946 422 946 l 422 947 q 413 981 416 975 l 412 982 l 406 994 l 406 992 l 408 989 l 408 989 l 407 989 l 406 989 l 407 987 l 406 987 l 405 987 l 405 991 l 404 993 l 400 998 l 399 998 m 292 951 l 292 949 l 294 950 l 294 951 l 292 951 m 298 954 l 300 955 l 299 952 l 298 952 l 298 954 m 295 951 l 294 951 l 295 950 l 295 950 l 296 951 l 296 951 l 295 951 m 267 939 l 267 938 l 269 936 l 270 937 q 267 939 269 939 m 276 942 l 277 941 l 278 941 l 277 942 l 276 942 m 318 960 l 318 958 l 319 958 l 319 960 l 318 960 m 274 940 l 275 939 l 276 940 l 275 941 l 274 940 m 293 948 l 293 947 l 294 947 l 294 949 l 293 948 m 295 949 l 295 947 l 296 948 l 296 948 l 295 949 m 260 934 l 262 932 l 262 932 l 262 931 l 264 929 l 264 929 l 264 930 l 264 930 l 264 930 l 264 930 q 264 932 264 932 l 264 932 q 261 934 262 932 l 260 934 m 259 932 l 260 930 l 260 929 l 261 930 l 260 933 l 259 932 m 296 948 l 298 947 l 298 947 l 298 948 l 296 948 m 253 928 l 254 926 l 254 924 l 254 925 q 254 928 254 927 l 253 928 l 253 928 m 269 935 q 269 932 270 934 l 271 930 l 270 930 l 270 930 q 267 932 267 930 l 265 932 l 265 931 l 270 927 l 269 926 l 269 928 l 269 927 l 269 927 l 270 926 l 269 925 l 271 924 l 271 924 l 271 922 l 269 924 l 269 923 q 269 921 270 922 l 270 921 l 271 920 l 269 919 l 269 920 q 269 925 268 922 q 266 928 268 924 l 265 928 l 266 927 l 267 926 l 267 926 l 266 925 l 268 923 l 267 922 l 267 922 l 267 922 l 268 921 l 267 920 l 267 921 l 267 920 l 267 918 q 267 920 267 918 l 268 920 l 269 916 l 269 916 l 270 913 l 271 915 l 270 916 l 270 917 l 271 917 l 271 916 l 272 915 l 273 916 q 273 918 271 918 l 273 918 l 273 917 l 273 916 l 274 914 l 273 911 l 272 911 l 272 910 l 273 911 l 274 910 l 275 910 q 273 908 275 909 l 273 908 q 277 907 275 909 l 278 906 q 277 901 276 903 l 277 901 q 277 897 279 898 l 277 899 l 277 898 l 277 898 l 277 897 l 278 897 l 277 893 q 280 890 278 894 l 281 890 q 281 892 280 892 l 282 892 l 283 889 q 286 880 283 888 q 284 873 284 880 l 283 871 l 282 871 l 282 872 l 282 874 q 279 877 281 873 l 278 880 l 277 881 l 276 882 l 276 883 l 268 897 l 267 897 l 267 895 l 274 883 l 275 880 l 287 862 l 288 861 l 288 861 l 288 861 l 288 862 l 286 865 l 286 866 l 286 866 l 285 869 q 287 873 284 869 l 287 873 l 287 873 l 288 873 l 288 873 l 288 876 l 287 877 l 286 886 l 285 886 l 284 886 q 282 901 284 890 l 281 903 l 280 903 l 279 907 l 278 907 q 279 909 278 908 l 279 909 l 279 910 q 277 911 278 909 q 277 922 279 916 l 279 924 l 278 924 l 277 926 l 279 928 l 276 929 l 275 928 l 273 930 l 273 931 l 276 932 l 276 932 q 272 933 274 934 l 273 934 l 272 935 l 271 935 l 271 934 l 270 935 l 269 935 m 300 949 l 301 948 l 302 947 l 302 948 l 300 949 m 281 939 l 281 939 l 282 939 l 283 939 l 283 939 l 281 939 m 314 953 l 315 951 l 316 952 l 315 952 l 315 953 l 314 953 m 254 923 l 254 923 l 255 923 l 254 924 l 254 923 m 286 937 l 286 936 l 287 937 l 287 937 l 286 938 l 286 937 m 315 951 l 316 949 l 317 949 l 316 951 l 315 951 m 271 931 l 273 930 l 273 930 l 272 930 l 271 931 m 283 936 l 284 935 l 286 936 l 284 936 l 283 936 m 307 944 l 308 945 l 307 946 l 307 944 m 254 922 l 255 921 l 256 922 l 255 922 l 254 922 m 300 942 l 300 942 l 300 942 l 300 940 l 301 940 l 301 939 q 300 940 300 939 l 300 942 m 284 935 l 284 933 l 286 934 l 285 935 l 284 935 m 290 937 l 290 937 l 291 937 l 290 935 l 290 935 l 289 936 l 290 937 m 255 920 l 256 919 l 256 918 l 256 916 l 258 914 l 256 914 l 257 913 l 258 913 l 258 913 q 258 910 257 912 l 258 910 l 258 911 l 259 911 l 259 911 l 260 907 l 265 899 l 266 897 l 267 898 l 265 901 l 264 903 l 264 903 l 264 903 l 263 903 l 262 905 l 260 909 l 260 911 l 258 913 l 258 913 q 258 915 257 914 l 257 917 l 256 920 l 256 920 l 256 920 l 255 920 m 282 930 l 283 931 l 283 930 l 283 930 l 283 930 l 283 930 l 282 930 l 282 930 m 363 964 l 364 964 l 364 965 l 363 965 l 363 964 m 275 927 l 275 927 l 276 926 l 276 926 l 276 926 l 275 926 l 275 927 m 302 939 l 302 937 l 302 937 l 302 937 l 302 939 m 323 946 l 323 946 l 323 946 l 323 944 l 322 945 l 323 946 m 290 932 l 290 932 l 292 931 l 290 931 l 290 932 m 381 969 l 383 970 l 382 970 l 381 969 m 308 938 l 309 938 l 309 937 l 308 937 l 308 938 m 387 972 l 388 970 l 389 970 l 388 972 l 387 972 m 272 922 q 274 922 273 923 l 274 920 l 273 920 l 273 920 l 273 920 l 273 920 l 273 919 l 273 919 l 272 918 l 272 919 q 272 922 273 921 m 326 943 l 326 943 l 326 943 l 327 943 l 328 945 l 328 945 l 327 945 l 326 943 m 409 978 l 410 978 l 410 977 q 409 976 410 977 l 410 975 l 410 975 l 411 977 l 410 979 l 410 978 l 409 978 m 278 920 l 280 919 l 280 919 l 281 919 l 279 920 l 278 920 m 321 939 l 322 939 l 323 939 l 321 938 l 321 939 m 411 976 l 412 974 l 412 974 l 411 976 l 411 976 m 272 913 l 272 913 l 273 915 l 273 915 l 272 913 m 267 911 l 267 911 l 268 911 l 267 911 l 267 911 m 270 913 l 271 911 l 272 911 l 271 913 l 270 913 m 341 944 q 340 939 342 941 l 340 936 q 342 934 342 933 l 342 934 l 341 936 l 342 937 l 342 937 l 342 937 l 342 935 q 345 939 345 936 q 342 939 342 937 q 345 942 342 941 l 345 943 q 342 943 342 942 l 342 944 l 342 944 l 341 944 m 332 940 l 333 938 l 332 937 l 332 939 l 332 940 m 411 973 l 412 973 l 412 972 l 412 973 l 411 973 m 336 941 l 336 940 l 336 939 l 335 940 l 335 940 l 336 941 m 282 916 l 282 916 l 284 916 l 284 917 l 282 916 m 334 939 l 334 939 l 334 939 l 334 937 l 334 937 l 334 939 m 338 941 l 338 941 l 340 939 l 338 939 l 338 941 m 412 972 l 412 970 l 413 971 l 413 971 l 412 972 m 270 910 l 271 910 l 271 909 l 272 909 l 271 910 l 271 911 l 270 910 m 406 968 l 406 967 l 406 968 l 406 968 l 406 968 m 288 914 l 289 915 l 290 913 l 288 913 l 288 914 m 359 940 l 359 940 l 359 939 l 358 939 l 359 940 m 407 960 l 407 960 l 408 959 l 408 960 l 407 960 m 398 953 l 399 951 l 399 951 l 397 952 l 397 953 l 398 953 m 399 951 l 399 949 l 400 948 l 400 943 l 401 943 l 400 943 l 400 943 l 399 943 l 399 942 l 399 942 l 397 944 l 397 944 l 398 944 l 399 945 l 399 945 l 397 945 l 397 945 q 399 951 397 950 m 337 924 l 338 923 l 337 922 l 337 922 l 337 924 m 337 922 l 338 921 l 337 920 l 336 921 l 337 922 m 394 947 l 395 947 l 395 946 l 393 945 l 394 947 m 279 895 l 280 896 l 281 895 l 281 896 l 281 897 l 281 895 l 283 893 l 281 892 l 281 893 l 281 894 l 281 894 l 279 894 l 279 895 m 337 920 l 338 918 l 337 917 l 336 919 l 337 920 m 404 949 l 405 949 l 404 948 l 403 947 l 404 949 m 395 943 l 397 942 l 397 942 l 396 942 l 395 943 m 404 945 l 404 943 l 405 943 l 405 946 l 404 945 m 336 916 l 337 916 l 337 916 l 337 914 l 337 913 l 338 913 l 338 912 l 337 912 l 336 913 q 336 916 336 916 m 402 943 l 403 941 l 404 942 l 404 943 l 402 943 m 393 936 l 394 936 q 396 935 395 937 l 395 935 q 393 936 395 934 m 335 910 l 335 910 l 334 909 l 334 909 l 335 910 m 309 897 l 311 898 q 312 897 311 899 l 313 897 l 313 896 l 313 896 q 309 897 313 895 m 406 935 l 406 934 l 406 935 l 407 935 l 407 935 l 408 937 l 408 938 l 408 938 l 406 935 m 341 907 l 341 907 l 344 905 l 345 905 q 341 907 343 907 m 283 881 l 283 880 l 285 880 l 283 882 l 283 881 m 395 930 l 396 930 l 396 930 l 397 930 l 397 930 l 398 930 l 397 931 l 395 930 m 314 895 l 315 896 l 315 894 l 315 894 l 314 895 m 401 928 l 401 928 q 406 932 406 932 l 405 933 q 401 928 400 929 m 299 887 l 300 886 l 300 886 l 301 887 l 301 888 l 299 887 m 280 877 l 281 875 l 281 875 l 281 877 l 280 877 m 307 888 l 307 888 l 309 888 l 309 888 l 307 888 m 352 908 l 354 908 l 351 905 l 351 905 l 352 907 l 352 908 m 331 898 l 332 897 l 332 897 l 331 898 l 331 898 m 349 905 l 350 905 l 351 905 q 349 899 350 899 l 347 899 q 348 903 346 902 l 349 905 m 317 888 l 318 887 l 319 887 l 318 889 l 317 888 m 305 883 l 306 882 l 307 883 l 307 884 l 305 883 m 316 886 l 317 885 l 318 886 l 317 887 l 317 887 l 316 886 m 342 897 l 343 897 l 344 897 l 343 893 l 342 893 l 342 892 l 342 892 l 343 892 l 344 891 l 343 890 l 344 890 l 345 889 l 344 888 l 344 888 l 344 888 l 342 888 l 342 886 q 346 885 345 886 l 345 885 l 346 884 l 347 880 q 347 878 347 880 l 346 878 l 346 879 l 345 878 l 345 878 q 349 876 347 878 q 353 876 351 874 q 363 871 361 870 q 363 869 364 870 l 363 869 l 364 869 l 364 869 l 363 867 l 361 869 l 362 869 l 361 870 l 361 870 q 360 865 361 868 l 363 865 q 363 866 363 866 l 366 864 l 366 863 l 363 859 q 361 859 363 859 l 361 858 l 360 859 l 359 856 l 359 856 q 357 857 358 855 l 355 857 l 354 854 l 353 854 l 353 855 l 353 854 l 353 854 l 352 854 l 351 854 q 350 852 352 853 q 349 851 351 852 q 348 850 350 850 l 347 852 l 347 852 l 346 850 l 345 850 l 342 849 l 342 850 l 341 850 l 340 848 l 338 849 q 336 856 336 855 l 336 856 l 336 857 l 335 859 l 334 860 l 335 860 l 334 861 l 333 864 q 334 866 332 865 l 333 866 l 333 867 l 333 867 l 333 867 q 330 868 330 867 l 330 868 l 330 869 l 329 869 l 328 871 l 329 871 q 331 870 330 871 l 332 873 l 332 873 l 331 873 q 330 871 332 871 l 330 871 l 330 871 q 330 873 330 873 l 328 876 l 328 876 l 328 874 l 327 876 l 326 876 l 326 873 l 328 873 l 328 873 l 325 870 q 317 871 324 871 l 314 869 l 312 868 q 313 870 311 869 q 315 873 313 873 l 315 873 l 315 873 q 317 876 315 875 l 316 877 l 316 876 l 315 876 l 315 876 l 315 877 l 315 877 l 317 877 l 317 878 l 318 878 q 319 876 319 876 l 320 876 l 318 878 l 321 882 l 323 882 l 323 881 q 321 878 321 880 l 322 878 q 325 882 322 878 l 325 882 q 324 878 326 879 l 325 878 q 327 878 326 879 q 328 880 328 878 l 328 880 l 329 880 l 329 878 l 330 878 l 330 879 l 331 879 l 332 877 l 332 877 l 332 878 l 333 878 l 334 878 l 334 878 l 333 881 l 334 882 l 334 881 l 334 880 l 335 882 l 336 882 l 335 884 l 334 884 l 334 884 l 334 884 l 336 884 l 337 887 l 338 887 l 338 887 l 337 892 l 337 892 q 338 891 338 892 l 339 891 l 339 895 l 341 895 l 342 895 l 342 897 m 381 913 l 382 913 l 384 913 l 385 911 l 384 911 q 381 913 382 911 m 340 895 l 340 890 l 340 890 l 340 890 l 340 889 l 340 889 l 340 888 l 341 887 l 341 886 l 342 889 l 340 890 l 341 891 l 340 891 l 340 892 q 342 895 342 892 l 341 895 l 340 895 m 345 897 q 349 895 347 897 l 347 894 l 346 895 l 345 895 l 346 893 l 347 894 l 347 894 l 346 892 l 349 888 l 348 888 l 347 888 l 347 888 l 347 888 l 347 890 l 345 890 l 346 892 l 345 892 l 345 892 l 345 897 m 408 922 l 407 922 l 407 922 q 405 920 405 922 l 405 920 l 406 920 l 405 920 l 406 921 l 410 922 l 410 922 l 414 925 l 413 925 l 413 926 l 408 922 m 395 918 l 396 918 l 397 917 l 398 916 l 397 913 l 397 914 l 395 918 m 408 920 l 410 919 l 410 920 l 410 921 l 408 920 m 336 888 l 336 888 l 336 886 l 332 884 l 332 884 l 332 886 l 333 886 l 334 886 l 334 886 l 334 887 l 335 887 l 336 888 m 347 892 l 348 892 l 348 892 l 347 891 l 347 892 m 396 912 l 397 912 l 397 911 l 396 911 l 396 912 m 339 887 l 339 886 l 339 885 l 340 887 l 340 887 l 339 887 m 330 882 l 331 881 l 331 880 l 330 880 l 329 880 l 330 882 m 403 913 l 405 913 l 405 913 l 404 912 l 404 912 l 403 913 m 397 909 l 397 909 l 397 909 l 398 908 l 397 907 l 397 909 m 337 881 l 338 879 l 338 879 l 337 882 l 337 881 m 349 886 l 349 887 l 351 884 l 349 884 l 349 885 l 349 886 l 349 886 m 319 873 l 321 871 l 321 872 l 321 873 l 321 873 l 320 873 l 320 873 l 319 873 m 329 876 l 330 876 q 331 875 330 876 l 331 876 l 331 877 l 330 877 l 330 878 l 329 876 m 392 904 l 392 903 l 393 903 l 393 904 l 392 904 m 335 878 l 335 877 q 336 879 336 878 l 336 880 l 336 880 l 335 878 m 394 904 l 393 902 l 394 901 l 395 905 l 395 904 l 395 903 l 394 903 l 394 904 m 312 868 l 312 867 q 311 865 313 867 l 309 864 l 309 865 l 312 868 m 332 876 l 332 875 l 334 874 l 334 873 l 334 873 l 334 874 l 335 874 l 336 874 l 335 875 l 333 876 l 332 876 m 336 878 l 338 877 l 337 875 l 338 876 l 338 875 l 339 876 q 337 878 338 878 l 336 878 m 296 859 q 299 859 296 858 l 299 858 l 299 857 l 300 857 l 299 859 l 300 859 l 300 858 l 303 859 q 313 848 304 859 l 312 848 q 309 848 309 848 q 308 847 307 848 l 307 847 l 307 848 l 306 850 l 306 850 l 306 850 l 300 852 l 300 854 l 300 854 l 299 854 l 298 854 l 296 857 l 296 858 l 296 859 m 342 877 l 343 878 l 343 878 l 342 878 l 342 877 m 393 900 l 394 898 l 395 898 l 394 900 l 393 900 m 337 873 l 338 873 l 338 873 l 338 871 l 339 871 l 338 871 l 338 874 l 338 874 l 338 873 l 337 873 m 340 874 l 341 872 l 342 873 l 340 875 l 340 874 l 340 874 m 298 856 l 298 855 l 298 856 l 299 856 l 300 855 l 299 857 l 298 856 m 309 861 q 314 859 311 862 l 315 859 l 316 860 l 317 858 l 317 857 l 317 857 l 318 857 l 318 854 l 318 854 l 317 854 l 317 854 q 317 852 317 852 l 318 850 q 318 852 319 850 l 319 852 l 319 848 l 320 848 l 320 847 l 320 846 l 320 846 l 321 847 l 321 847 l 320 849 l 321 850 l 321 850 l 321 849 l 321 848 l 321 848 q 323 847 323 848 l 323 846 l 325 846 l 326 844 l 326 844 l 328 839 l 328 840 l 329 840 l 329 838 l 330 838 l 330 838 l 330 838 l 331 836 l 332 837 q 332 840 330 840 q 334 838 333 840 l 334 836 l 335 836 l 335 836 l 335 836 l 336 837 l 336 835 l 337 836 l 336 837 l 337 838 q 347 831 338 836 l 347 831 l 347 831 l 346 831 l 346 830 l 346 829 l 349 826 l 350 827 l 349 827 q 347 829 349 828 l 348 831 l 351 827 l 351 827 l 351 829 l 349 831 l 350 832 l 351 832 l 351 832 l 351 831 l 353 832 q 353 835 352 834 l 357 836 l 357 836 l 357 837 l 359 837 l 361 838 q 362 829 363 831 l 362 828 l 364 827 l 364 827 l 365 828 l 365 828 q 369 827 366 827 q 372 832 370 830 l 371 833 l 372 833 l 370 836 l 368 840 q 371 845 368 844 l 372 846 l 375 842 q 375 831 378 833 l 374 831 l 374 829 q 378 835 376 831 l 381 833 l 382 834 l 376 842 l 376 842 l 376 842 l 376 842 l 375 844 l 374 845 l 376 848 l 380 846 l 381 843 l 381 842 l 382 839 l 382 838 l 383 837 l 385 837 l 384 838 l 385 838 q 387 836 386 836 l 389 837 l 389 838 l 389 838 l 387 836 l 386 838 q 388 840 385 840 l 387 841 l 387 842 l 383 846 l 382 846 q 382 844 383 844 l 380 848 q 387 852 380 849 l 387 851 l 386 851 l 387 850 l 388 850 l 387 848 l 389 847 q 390 838 387 846 l 392 839 q 392 840 391 840 l 393 841 q 395 839 394 838 l 395 839 l 395 840 l 394 840 l 394 841 l 393 844 l 393 844 l 392 845 l 393 845 l 394 845 l 395 845 l 393 847 l 391 846 l 391 847 l 391 847 l 391 848 q 390 848 390 847 l 390 849 l 390 850 l 391 851 l 392 851 l 393 851 l 394 852 l 395 851 l 395 850 q 395 845 395 846 l 395 845 l 396 845 l 396 844 l 397 842 l 397 843 l 399 844 l 400 843 l 401 844 l 399 846 l 397 852 l 396 852 l 396 852 l 399 855 q 401 855 399 854 l 401 855 l 401 854 q 400 852 401 852 l 401 850 l 401 849 l 401 849 l 402 848 l 399 847 l 399 847 q 401 846 401 848 l 402 848 l 403 848 l 403 847 l 403 847 l 403 846 l 404 846 l 404 846 l 405 845 l 405 844 l 404 843 l 404 843 l 403 843 q 402 841 404 842 l 401 841 l 401 841 l 400 840 l 399 840 l 399 841 l 397 839 l 393 838 l 391 837 q 385 833 390 836 l 385 833 l 385 834 l 381 831 l 380 831 l 380 831 l 378 829 l 379 828 l 379 827 l 380 827 l 381 829 q 384 828 381 827 l 384 828 q 381 823 384 827 l 381 822 l 382 823 l 382 823 l 382 823 l 383 823 q 385 828 382 824 l 385 827 l 386 827 l 387 829 l 386 828 q 389 832 385 829 l 390 832 l 390 831 l 391 831 l 391 833 l 392 832 l 392 832 q 391 830 391 831 l 391 829 l 392 829 q 394 834 391 831 l 395 833 l 396 833 l 399 831 l 399 830 l 399 830 l 399 830 q 402 833 399 832 q 403 836 401 835 l 403 836 q 400 829 403 833 q 400 827 401 827 l 400 827 q 404 827 404 828 q 404 822 405 826 l 404 822 l 406 823 l 406 824 l 406 824 l 406 824 l 406 823 l 406 823 l 407 823 l 408 823 l 408 823 l 408 824 l 404 829 l 405 829 l 405 829 l 404 831 l 404 831 l 404 831 l 406 831 l 407 832 l 407 831 l 408 831 l 408 832 q 405 833 407 833 l 406 834 q 407 833 406 835 l 408 833 l 406 836 l 407 836 l 408 836 l 408 835 l 408 834 l 410 835 l 409 836 l 411 837 l 412 838 l 413 838 l 413 838 l 414 838 l 415 838 q 414 836 416 837 l 414 836 l 415 836 q 416 838 414 837 q 416 840 415 840 l 417 840 l 418 840 l 418 840 l 418 840 l 418 840 l 420 838 l 420 837 l 419 837 l 419 838 l 418 838 l 417 836 l 416 835 l 416 836 l 412 832 l 411 832 l 412 831 l 413 832 l 414 831 l 414 832 l 415 833 l 415 831 q 413 829 412 830 l 412 828 l 412 829 l 412 829 q 412 825 413 825 l 410 826 l 410 828 l 409 829 l 408 829 l 409 827 l 410 826 l 409 825 l 409 825 l 408 825 l 408 823 l 412 823 l 411 824 l 411 824 q 416 819 412 825 l 416 819 q 416 823 414 823 l 415 825 q 415 827 414 827 l 416 827 l 418 824 l 418 824 l 417 827 q 419 830 418 829 l 419 829 l 420 828 l 420 828 l 420 829 l 419 830 l 420 831 l 419 831 l 420 831 l 419 832 l 419 835 l 418 836 l 418 837 l 418 837 l 419 836 l 420 831 q 423 830 422 830 l 423 831 l 422 831 l 420 836 l 423 836 l 424 838 l 421 840 l 420 840 l 421 842 l 421 842 q 427 838 422 839 l 427 839 l 427 839 l 425 840 l 425 840 l 427 841 q 431 839 430 841 l 431 839 l 431 841 l 433 841 l 432 842 q 422 846 427 846 l 422 846 l 422 848 l 421 848 l 420 848 l 420 848 l 418 847 l 418 849 l 418 850 l 418 849 l 417 850 l 416 849 l 416 847 l 416 847 l 414 848 l 414 847 l 413 846 l 412 846 l 410 846 l 411 846 l 412 845 l 409 844 l 409 844 l 410 845 q 412 848 409 846 l 412 848 l 414 848 l 410 851 l 411 852 l 410 852 l 410 854 l 410 855 l 408 858 l 408 857 l 408 858 l 407 857 q 406 854 408 855 l 406 854 l 407 854 l 407 854 q 404 851 408 853 l 404 851 l 406 850 l 406 849 l 405 849 l 404 849 q 404 852 403 852 l 403 852 q 404 858 402 855 l 403 859 l 406 860 l 406 858 l 408 859 q 409 863 406 861 q 412 862 411 863 l 412 861 q 412 859 413 860 l 412 859 l 413 859 l 414 859 q 414 854 413 858 l 414 852 l 414 851 q 418 854 416 852 l 418 854 l 419 854 l 420 854 l 420 856 l 419 856 l 419 857 q 419 865 417 861 l 420 865 l 420 863 l 420 863 l 420 867 l 419 866 q 420 871 418 869 l 419 873 q 420 877 420 875 l 420 880 l 418 880 q 419 887 418 886 q 418 888 419 888 l 418 888 l 419 888 l 418 889 l 417 889 l 417 890 l 416 892 l 417 892 l 417 892 l 418 890 q 417 896 419 890 l 416 897 l 417 899 l 418 898 l 418 897 l 418 897 l 418 897 q 420 896 419 897 l 420 897 l 420 897 l 421 895 q 420 890 422 894 l 422 890 q 422 886 421 889 q 423 886 422 887 l 423 886 l 424 887 l 424 886 q 423 884 425 885 l 424 884 q 425 884 424 884 l 426 880 l 427 880 q 427 878 427 878 l 428 876 l 430 872 l 429 871 l 431 871 l 434 863 l 433 863 l 437 859 l 436 858 l 436 858 l 438 855 q 435 834 443 844 q 432 827 434 828 q 431 823 433 824 l 431 823 l 430 823 l 431 824 l 430 824 l 430 824 q 429 821 429 821 l 427 820 l 426 820 l 426 820 l 426 819 l 427 819 l 427 819 l 427 819 l 426 818 l 426 819 l 426 818 l 425 818 l 425 818 q 420 811 420 814 l 419 811 q 418 812 418 812 l 417 811 l 415 810 q 414 808 416 808 l 414 808 l 413 808 l 412 808 l 412 807 l 412 808 l 411 808 q 410 806 412 807 l 408 806 l 407 804 l 407 805 l 406 804 l 406 804 q 405 805 406 804 l 403 804 l 402 804 l 402 804 l 401 802 l 400 802 l 400 802 l 400 803 l 400 804 l 399 804 q 398 802 400 802 l 395 800 l 395 802 l 395 801 l 394 800 l 393 800 l 393 801 l 391 800 l 391 799 l 391 800 l 392 800 l 391 801 l 391 800 l 390 800 l 390 800 l 390 800 l 390 801 l 389 800 l 387 798 q 384 798 386 797 l 384 797 l 383 797 l 382 797 l 382 798 q 385 801 385 800 q 382 801 382 800 l 378 796 l 378 797 l 377 796 l 376 796 l 376 797 l 377 797 l 377 798 l 375 797 l 375 797 l 374 800 l 373 800 l 374 798 l 373 796 q 362 797 371 798 l 362 797 l 359 798 l 359 797 l 359 797 q 354 797 356 798 l 353 796 l 353 796 l 353 796 l 352 795 l 351 795 l 351 796 l 351 797 l 350 797 l 351 796 l 350 795 l 346 797 l 346 798 l 348 799 l 349 803 q 347 804 348 802 l 347 804 l 346 804 l 347 803 l 347 803 l 347 802 l 347 802 l 347 802 l 345 804 l 345 805 l 343 805 l 343 805 l 344 807 q 345 806 345 807 q 346 808 347 806 q 350 808 348 810 l 349 810 l 349 810 l 349 811 l 351 810 l 351 812 l 351 812 l 350 812 l 350 811 l 347 811 l 347 810 l 346 810 l 346 810 l 346 811 l 346 812 l 345 812 q 345 810 345 810 l 341 811 l 341 812 l 341 812 l 341 812 q 338 814 339 812 l 338 815 l 338 815 l 336 817 l 335 820 l 334 819 l 336 815 l 336 816 l 336 816 l 337 816 l 337 815 l 338 814 l 337 813 q 323 837 336 812 l 322 838 l 322 840 l 321 841 l 321 841 l 322 839 q 319 842 321 839 l 319 843 l 319 843 l 319 843 l 318 845 q 319 847 319 845 l 317 848 l 318 848 l 317 848 l 317 849 l 317 850 l 316 850 l 317 850 l 316 851 l 315 852 l 315 854 l 315 854 l 316 854 l 316 854 l 315 856 q 313 857 314 855 l 313 857 l 313 858 l 310 859 l 309 861 m 342 874 l 342 873 l 343 873 l 342 874 l 342 874 m 342 872 l 343 871 l 343 872 l 343 872 l 342 872 m 424 907 l 425 907 l 425 907 l 425 903 l 426 903 l 425 901 l 424 901 l 423 901 q 424 907 423 905 m 340 870 q 340 867 341 868 l 340 867 l 340 867 l 341 870 l 340 870 m 401 896 l 401 895 l 402 895 l 402 896 l 401 896 m 395 892 l 395 891 l 396 890 l 398 890 l 398 890 q 396 891 397 892 l 395 892 l 395 892 m 342 867 q 345 867 345 868 l 346 865 l 348 861 l 349 861 l 346 867 l 345 868 l 345 869 l 345 869 l 343 869 l 342 867 m 300 850 l 301 850 l 302 849 l 300 849 l 300 850 m 335 863 l 335 863 l 336 865 l 335 865 l 335 863 m 419 901 l 420 901 l 420 901 q 420 898 421 899 l 419 897 q 419 901 418 901 m 342 867 l 342 865 l 342 865 l 342 867 l 342 867 l 342 867 m 340 865 l 341 865 l 341 865 l 340 865 l 340 865 m 391 887 q 390 886 391 886 l 390 886 l 391 883 l 391 884 l 392 885 l 391 886 l 391 888 l 391 887 m 344 865 l 345 864 l 345 865 l 344 867 l 344 865 m 393 887 l 393 886 l 394 887 l 393 888 l 393 887 m 397 889 l 398 888 l 399 888 l 399 889 l 398 889 l 397 889 m 427 903 l 428 903 l 427 901 l 427 901 l 427 903 m 304 848 l 305 848 l 307 848 l 307 847 l 306 847 l 305 848 l 304 848 m 312 851 l 312 851 l 313 850 l 314 850 l 313 850 l 312 851 m 400 888 l 400 887 l 401 885 l 404 886 l 404 886 l 402 887 l 402 888 q 401 888 401 887 l 400 888 m 426 899 l 427 900 l 427 899 l 427 899 l 426 899 m 399 887 l 399 885 l 400 885 l 399 887 l 399 887 m 394 884 q 393 883 394 883 l 393 882 q 395 882 395 883 l 396 882 l 397 879 l 398 880 l 397 880 q 394 884 395 885 m 390 880 l 391 881 l 391 882 l 390 880 m 392 881 q 391 880 392 880 l 391 878 l 393 880 l 393 881 l 392 882 l 392 881 m 404 886 l 405 886 l 405 886 l 405 887 l 404 886 m 410 889 l 413 885 l 410 884 l 409 887 q 410 889 408 888 m 384 878 l 384 877 l 384 876 l 385 876 l 385 876 l 382 873 l 382 873 l 382 873 l 382 872 l 382 873 l 384 873 l 385 873 q 385 875 384 874 l 385 875 l 387 874 l 387 872 l 386 872 q 382 872 385 873 l 382 870 l 382 869 l 380 874 l 380 874 l 381 875 l 381 874 l 382 875 q 384 878 381 876 m 403 882 q 403 885 404 883 q 403 882 402 885 m 332 854 l 332 854 l 334 853 l 334 852 l 334 852 l 335 852 l 336 851 l 335 850 q 332 854 334 850 l 332 854 m 382 876 l 382 876 l 384 876 l 384 876 l 382 876 m 340 854 l 341 854 l 340 854 l 340 853 l 341 854 l 340 857 l 340 854 m 314 845 l 315 845 l 315 844 l 315 844 l 315 844 l 314 844 l 314 844 l 314 845 l 314 845 m 329 852 l 332 851 l 332 850 l 330 850 l 328 850 l 329 851 l 329 852 m 387 876 l 389 876 l 390 876 l 390 876 l 389 876 l 389 874 l 389 874 l 390 873 l 388 873 l 388 874 l 387 875 l 387 876 m 399 880 l 400 878 l 401 878 l 400 880 l 399 880 m 321 846 l 321 845 l 322 844 l 321 846 l 321 846 m 340 852 l 340 851 l 341 852 l 340 852 l 340 852 m 338 851 l 338 850 l 340 850 l 339 850 l 338 851 m 331 848 q 334 846 333 848 l 334 847 l 334 848 q 337 845 334 848 l 338 842 l 338 842 q 330 847 332 844 l 331 848 l 331 848 m 392 873 l 393 873 l 392 871 l 391 871 q 392 873 391 872 m 397 872 l 397 872 q 400 871 398 871 q 401 874 399 873 l 401 873 l 401 873 l 402 871 l 405 865 l 406 865 l 402 872 l 404 872 l 405 869 l 406 870 q 404 874 404 873 l 406 873 l 406 874 l 405 875 l 406 875 l 406 873 l 406 873 l 406 873 q 409 872 407 873 q 409 876 408 876 l 408 876 q 406 877 407 876 l 406 878 l 407 878 l 408 877 l 408 878 l 406 878 l 406 877 l 405 877 l 404 877 l 404 876 l 403 878 l 403 877 q 402 875 404 875 l 399 876 l 397 872 m 412 881 l 414 880 l 414 880 l 414 878 l 414 878 q 412 879 413 877 q 412 881 413 880 m 324 841 l 326 837 l 326 837 l 325 842 l 324 841 m 361 858 q 366 856 365 859 l 366 856 l 368 853 l 368 853 l 368 852 l 368 852 l 370 848 q 370 845 371 846 l 368 844 l 368 844 q 363 845 365 842 l 361 852 l 361 854 q 361 855 361 854 l 362 856 l 362 856 l 361 857 l 361 857 l 361 857 l 361 858 m 357 855 l 358 854 l 358 854 l 358 853 q 360 852 360 854 l 361 851 l 361 850 l 361 850 q 362 843 363 844 q 359 845 361 842 l 358 844 l 359 842 l 359 842 l 358 842 l 358 842 l 357 842 l 357 841 l 356 842 l 355 840 l 355 840 l 355 840 l 357 839 l 355 837 q 351 840 352 839 q 350 849 348 848 l 351 849 l 351 850 l 352 850 l 353 845 l 353 844 l 353 845 q 353 848 353 846 l 353 848 l 353 850 l 353 852 l 353 853 l 356 851 l 357 848 l 359 849 l 357 851 q 357 855 356 854 m 374 862 l 374 861 l 374 861 l 373 861 l 373 859 l 374 860 l 374 860 l 375 861 l 374 862 l 374 862 m 397 871 l 397 870 l 397 869 q 399 868 397 867 l 399 867 l 399 866 l 401 863 l 401 862 l 401 863 l 402 865 l 401 866 l 401 865 l 401 865 l 400 866 l 401 866 l 400 867 l 400 867 l 399 869 l 399 869 l 399 869 l 399 870 l 399 871 l 397 871 m 424 881 l 424 881 l 423 881 l 422 881 l 422 880 l 425 880 l 425 882 q 424 881 423 882 m 339 846 l 342 844 l 341 842 l 342 843 l 343 847 q 349 841 345 847 l 350 841 l 350 840 l 351 839 q 351 838 350 839 l 350 837 l 350 837 l 349 837 l 349 836 l 347 836 q 345 838 346 836 l 345 838 l 343 840 l 343 841 l 343 842 l 343 842 l 342 842 l 342 840 l 343 840 l 343 840 l 344 837 l 345 838 l 345 837 l 345 836 l 343 836 l 342 836 l 342 836 l 339 841 l 340 841 l 339 842 l 338 843 l 339 846 m 363 855 l 365 854 l 365 856 l 363 855 m 411 876 l 412 876 l 412 876 l 412 875 l 410 875 l 410 875 l 411 876 m 326 836 l 326 835 l 327 836 l 327 837 l 326 836 m 334 840 l 335 840 l 335 839 l 334 838 l 334 840 l 334 840 m 332 838 l 332 837 l 332 836 l 333 836 l 334 838 l 334 838 l 332 838 m 426 877 l 425 874 l 426 873 l 427 874 l 427 874 l 427 875 l 426 875 l 426 878 l 426 877 m 381 857 l 381 857 l 383 857 l 383 857 l 381 857 m 329 832 l 329 831 l 330 833 l 330 833 l 330 833 l 329 832 m 389 858 l 389 857 l 389 857 l 390 857 l 391 858 l 391 859 l 389 858 m 336 834 l 336 832 l 338 832 l 338 834 l 337 834 l 336 834 m 330 829 l 330 829 l 332 828 l 331 829 l 330 829 m 345 834 l 347 834 l 348 834 l 349 834 l 349 835 l 349 835 l 349 835 l 349 832 l 348 832 l 346 833 l 345 834 m 412 863 l 413 863 l 413 863 l 414 863 l 415 864 l 416 863 l 416 863 q 416 859 417 861 l 416 860 l 415 859 l 416 857 l 415 857 l 414 861 l 414 861 l 412 863 m 365 841 l 366 841 l 366 841 l 367 841 l 368 838 l 369 836 q 369 829 370 830 l 368 829 l 368 829 l 366 829 l 366 830 l 364 832 l 363 834 l 362 839 l 364 840 l 365 841 m 404 856 l 404 855 l 406 855 l 405 856 l 404 856 m 355 834 l 356 827 l 355 827 l 355 827 l 355 827 l 355 827 q 357 825 356 827 l 357 823 l 355 823 l 357 823 l 358 824 q 359 828 359 827 l 357 833 l 357 835 l 357 835 l 355 834 m 398 850 l 399 851 l 399 852 l 399 851 l 398 850 m 416 857 l 416 856 l 417 857 l 418 857 l 418 857 l 418 856 l 418 856 l 417 856 l 417 856 l 416 855 l 416 855 l 416 855 l 415 856 l 416 857 l 416 857 m 353 826 l 353 825 l 354 825 l 354 825 l 354 826 l 353 826 m 406 849 l 407 850 l 407 848 l 406 848 l 406 849 m 420 854 l 420 853 l 420 853 l 420 850 l 421 854 l 421 855 l 420 855 l 420 854 m 337 819 l 338 817 l 338 817 l 337 819 l 337 819 m 394 842 l 395 840 l 396 841 l 395 842 l 395 842 l 395 842 l 395 842 l 394 842 m 410 849 l 410 848 l 411 848 l 408 845 l 407 844 l 407 845 l 407 846 l 408 846 l 408 847 l 410 849 m 402 844 l 403 844 l 403 844 l 404 844 l 404 845 l 402 844 m 382 833 l 383 833 l 384 834 l 384 835 l 383 835 l 382 833 m 361 823 q 360 819 361 823 l 361 819 l 361 819 l 361 819 l 360 820 q 361 819 361 820 l 363 819 q 363 823 361 822 l 363 823 l 363 823 l 363 824 l 361 823 m 444 859 l 444 859 l 446 859 l 445 859 l 444 859 m 331 809 l 332 809 l 333 810 l 333 810 l 332 810 l 332 810 l 331 809 m 357 821 q 357 815 358 819 l 357 815 l 357 814 q 358 814 357 815 l 358 812 l 357 812 l 357 814 l 357 813 l 356 813 l 355 813 q 354 810 355 811 l 353 810 l 353 811 l 353 811 q 353 810 353 810 l 351 810 l 351 810 l 351 810 l 353 808 l 353 808 q 353 810 353 809 l 355 810 l 355 810 l 356 810 q 360 810 359 811 l 360 810 l 360 810 l 359 811 q 358 817 359 813 l 359 817 l 360 818 q 359 819 359 818 q 360 822 359 821 l 359 823 l 357 821 m 368 826 l 369 825 l 369 826 l 369 826 l 368 826 m 430 852 l 430 850 l 433 852 l 432 853 l 430 852 m 335 811 l 336 812 l 338 810 l 336 808 l 336 808 l 336 808 l 335 811 m 342 814 l 342 813 l 345 813 l 345 814 l 345 815 l 342 814 m 368 824 l 368 823 l 370 825 l 370 825 l 368 824 m 376 828 l 376 827 l 376 827 l 377 827 l 378 827 l 378 829 l 378 829 l 377 829 l 377 828 l 376 828 l 376 828 m 391 834 l 391 834 l 391 833 l 390 833 l 391 834 m 374 825 l 374 824 q 378 823 378 824 l 378 823 l 375 822 l 374 820 l 372 822 l 371 819 q 373 818 372 820 l 374 818 l 370 818 l 369 817 l 368 817 l 369 816 q 371 816 370 817 l 370 814 q 368 814 370 815 l 368 816 l 368 816 q 368 814 368 814 l 366 814 l 366 815 l 366 816 l 365 818 l 365 818 l 366 815 l 366 815 l 363 816 l 363 815 l 366 813 l 365 812 q 368 811 367 813 l 366 808 q 368 808 368 809 l 369 810 l 370 808 l 371 808 l 372 814 l 373 814 l 374 813 l 374 814 l 375 814 l 376 814 l 376 814 l 375 814 q 376 818 374 817 l 374 820 l 374 819 l 375 820 l 376 821 l 379 821 l 379 825 l 378 825 l 378 825 l 374 825 l 374 825 m 399 836 l 399 836 l 400 836 l 400 835 l 399 835 l 399 835 l 399 836 m 364 820 l 365 819 l 366 820 l 366 820 l 368 819 l 368 820 q 364 820 368 821 m 393 832 q 393 830 395 831 l 393 829 l 394 829 l 394 829 q 396 831 396 831 l 396 831 l 395 831 l 395 832 l 395 832 l 395 833 l 393 832 m 362 819 l 363 817 l 363 817 l 363 819 l 362 819 m 387 829 l 387 827 l 387 827 l 388 827 l 388 828 l 388 829 l 387 829 m 446 853 l 446 852 l 446 851 l 446 850 l 446 849 l 444 850 l 444 850 l 444 850 l 445 851 l 444 852 l 444 852 l 446 853 m 360 815 l 359 814 l 360 814 l 362 813 l 363 813 q 360 815 362 815 m 385 826 q 387 825 385 825 l 388 825 l 387 826 l 385 826 l 385 826 m 441 850 l 441 850 l 442 850 l 442 849 l 441 849 l 441 849 l 441 850 m 396 830 l 397 829 l 398 829 l 397 830 l 396 830 m 356 812 l 357 811 l 356 811 l 355 812 l 355 812 l 356 812 m 395 829 l 395 827 l 395 827 l 396 827 l 397 828 l 395 829 l 395 829 m 328 798 l 329 796 q 333 800 331 799 l 333 801 l 328 798 m 377 819 l 377 818 l 378 819 l 378 819 l 377 819 m 380 821 l 380 819 l 383 819 l 384 819 l 384 821 q 380 821 383 821 m 410 832 l 410 832 l 410 833 l 410 833 l 410 832 m 427 840 l 427 840 l 429 839 l 429 840 l 427 840 m 405 831 l 406 830 l 406 830 l 406 831 l 405 831 m 326 795 l 326 795 l 327 795 l 328 796 l 329 796 l 328 797 l 328 797 l 326 795 m 342 804 l 343 804 l 345 802 l 345 802 l 343 802 l 342 804 m 338 800 l 340 800 l 340 798 l 340 798 l 342 798 l 342 798 l 342 799 l 341 800 q 340 801 340 799 l 338 800 m 425 838 l 427 837 l 427 837 l 425 838 l 425 838 m 381 817 l 382 817 l 383 817 l 383 817 l 382 818 l 381 817 m 416 833 l 416 833 l 418 833 l 418 832 l 417 832 l 416 832 l 416 833 m 422 833 q 424 833 423 834 l 425 833 l 425 833 l 425 833 l 423 835 l 422 835 l 422 833 m 401 825 l 401 825 l 401 823 l 402 823 l 401 825 l 401 825 m 399 822 l 400 822 l 400 823 l 400 823 l 399 822 m 441 841 l 442 841 l 442 840 l 441 840 l 441 840 l 441 841 m 427 834 l 427 833 l 429 833 l 429 833 l 429 833 l 427 834 m 372 805 l 374 805 l 374 805 l 374 806 q 372 806 372 805 l 372 805 m 357 793 l 359 793 l 359 793 l 358 792 l 357 791 l 357 793 m 394 803 q 393 802 394 802 l 393 801 l 395 804 l 394 803 m 395 803 l 396 802 l 397 804 l 397 804 l 397 804 l 395 803 z "},"+":{"ha":530,"x_min":20,"x_max":530,"o":"m 210 670 l 324 670 q 340 654 340 670 l 340 640 l 335 640 l 335 665 l 210 665 l 210 488 l 205 483 l 199 483 l 199 488 l 205 488 l 205 665 l 210 670 m 221 659 l 324 659 l 330 654 l 330 477 l 506 477 l 511 472 l 511 369 l 506 363 l 330 363 q 321 350 330 350 l 311 355 l 308 355 l 308 353 q 330 342 330 347 l 330 217 l 321 217 q 330 212 321 212 l 330 184 l 324 179 l 221 179 l 216 184 l 216 296 l 224 296 l 216 307 l 216 363 l 75 363 l 72 366 l 69 363 l 39 363 l 34 369 l 34 472 l 39 477 l 216 477 l 216 654 l 221 659 m 335 635 l 338 635 q 346 618 343 635 l 343 616 l 346 602 l 346 600 l 343 589 l 346 570 l 346 488 l 359 488 l 359 483 l 340 483 l 335 488 l 335 635 m 26 488 l 64 488 l 64 483 l 28 483 l 28 358 l 58 358 l 64 353 l 47 347 l 39 347 q 20 358 25 347 l 20 483 l 26 488 m 75 488 l 156 488 l 156 483 l 75 483 l 75 488 m 370 488 l 525 488 l 530 483 l 530 353 l 525 347 l 444 347 l 438 353 l 416 347 l 368 350 l 343 345 l 346 342 l 346 307 l 340 298 l 346 293 l 340 241 l 343 217 l 340 165 l 338 163 l 316 165 l 278 163 l 275 165 l 273 165 l 262 163 l 254 163 l 243 165 l 232 163 l 227 163 l 218 168 l 210 163 l 205 168 l 205 307 l 208 309 l 205 312 l 205 347 l 199 347 l 178 353 l 83 347 l 64 347 l 64 350 l 72 358 l 205 358 l 210 353 l 210 174 l 335 174 l 335 203 l 338 206 l 335 209 l 335 353 l 340 358 l 517 358 l 517 483 l 370 483 l 370 488 m 292 475 l 286 467 l 292 467 l 297 472 l 297 475 l 292 475 m 175 467 l 170 456 l 175 456 l 180 467 l 175 467 m 262 458 l 262 456 l 270 464 l 267 464 l 262 458 m 205 458 l 205 453 l 213 456 l 213 458 l 205 458 m 245 450 l 245 448 l 254 445 l 254 453 l 245 450 m 224 448 l 224 445 l 232 445 l 243 448 l 243 450 l 235 450 l 224 448 m 156 437 l 156 434 l 164 442 l 164 445 l 156 437 m 194 439 l 194 437 l 205 437 l 205 439 l 194 439 m 151 426 l 151 431 l 145 431 l 137 423 l 137 420 l 191 434 l 191 437 l 189 437 l 151 426 m 129 420 q 115 399 129 414 l 115 396 l 118 396 l 134 418 l 132 420 l 129 420 m 102 385 l 102 382 l 104 382 l 110 393 l 110 396 q 102 385 103 396 m 218 385 q 243 374 218 380 l 245 374 l 245 377 l 218 385 m 283 363 l 283 361 l 300 358 l 294 363 l 283 363 m 227 296 l 227 293 l 235 285 l 235 282 l 240 282 l 227 296 m 256 269 l 264 260 l 267 260 l 259 269 l 256 269 m 297 236 q 308 228 297 228 l 308 222 l 313 222 l 300 236 l 297 236 m 297 528 l 297 528 l 299 528 l 299 528 l 297 528 m 197 526 l 198 524 l 198 523 l 197 522 l 197 523 l 196 523 q 195 522 196 522 l 197 517 q 197 519 197 519 l 199 518 l 199 515 q 202 511 201 515 l 205 510 l 208 513 q 207 515 207 513 l 207 515 l 206 515 l 206 514 l 207 513 l 207 513 l 206 513 l 205 513 l 204 517 l 203 517 l 203 518 l 205 518 l 206 517 q 208 519 208 517 q 211 517 210 519 l 210 519 l 210 519 l 212 519 l 212 519 l 214 520 l 213 520 l 212 520 l 212 520 l 210 521 l 209 520 l 208 520 l 208 521 l 209 522 l 209 522 l 208 522 q 207 520 208 520 q 204 525 204 522 l 203 525 l 203 523 l 203 522 l 202 522 l 202 523 l 201 522 l 201 522 l 199 523 l 199 522 l 199 523 l 199 523 l 200 526 q 202 524 200 525 l 202 525 l 202 526 l 201 526 l 199 526 l 197 526 m 254 526 l 254 526 l 256 526 l 256 526 l 256 526 l 254 526 m 304 526 l 304 526 l 309 524 l 310 524 q 305 526 310 526 l 304 526 m 313 526 l 313 526 l 315 526 l 315 526 l 313 526 m 195 525 l 196 525 l 197 525 l 197 526 l 196 526 l 196 526 l 195 525 m 223 526 q 220 520 222 523 l 220 521 l 220 520 q 220 519 220 520 l 220 518 l 220 518 l 220 519 l 219 519 l 218 519 l 217 520 q 216 518 216 518 l 215 518 l 215 519 l 215 519 q 214 517 215 517 l 213 518 l 212 518 l 212 518 l 214 515 l 214 515 q 215 517 214 517 l 216 517 l 217 517 l 217 517 q 220 515 220 516 l 221 515 l 221 515 l 220 517 q 221 522 221 517 l 222 521 l 224 522 q 223 524 223 522 q 225 526 224 526 l 225 526 l 223 526 m 227 526 l 224 523 l 224 522 l 225 522 l 224 523 l 224 524 q 226 522 226 524 l 227 522 q 228 525 227 525 l 228 525 l 229 525 l 229 526 l 227 526 m 244 525 l 244 525 l 245 525 l 247 525 l 247 526 l 246 526 l 244 525 m 298 525 l 298 524 l 301 525 l 300 526 l 298 525 m 207 525 l 207 524 l 208 524 l 209 524 l 209 525 l 207 525 m 228 517 l 228 517 l 229 518 l 228 520 l 228 520 l 228 517 l 227 517 l 226 519 l 226 518 l 227 515 l 226 515 q 228 514 228 515 l 228 513 q 226 512 228 513 l 226 511 q 227 511 227 511 l 228 511 l 229 511 l 229 511 l 229 512 l 230 512 q 231 511 230 511 q 233 514 232 514 l 234 514 l 234 513 l 235 513 l 235 513 l 236 513 l 236 513 l 235 513 q 237 516 235 516 l 237 518 l 237 518 l 237 518 l 239 519 l 242 518 l 243 522 l 243 521 l 242 521 l 240 523 l 240 523 l 243 524 l 243 525 l 243 525 q 233 519 238 523 l 228 517 m 311 525 l 310 522 l 310 520 l 311 521 l 311 521 l 313 519 l 313 519 l 311 517 l 311 517 l 309 518 q 312 517 309 517 q 313 515 313 515 q 315 519 313 517 l 315 525 l 311 525 m 228 522 l 228 520 l 229 522 l 230 522 l 231 520 l 231 520 q 228 522 231 522 m 226 522 l 226 519 l 227 519 l 227 522 l 226 522 m 238 522 q 242 520 242 521 l 241 519 l 239 519 l 236 518 l 236 519 l 236 521 l 238 522 m 317 522 l 317 520 q 321 519 319 520 l 321 519 l 318 522 l 317 522 m 222 519 l 222 519 l 222 518 l 224 517 l 224 517 q 222 519 224 519 m 201 519 l 204 513 l 204 513 q 201 519 201 516 l 201 519 l 201 519 m 245 519 l 244 517 l 245 518 l 245 519 l 245 519 m 233 519 l 235 519 l 235 517 l 235 517 l 234 517 l 234 517 l 232 517 l 233 516 l 233 515 l 231 515 q 230 515 231 515 l 230 517 q 233 519 231 517 m 218 519 l 218 517 l 217 517 l 216 518 l 217 519 l 218 519 m 322 518 l 322 517 q 325 515 324 517 l 326 515 l 322 518 m 239 517 l 239 515 l 240 515 l 240 517 l 239 517 m 243 517 l 242 515 l 244 513 l 245 514 l 245 515 q 243 517 245 516 m 220 509 l 221 507 q 227 513 226 513 l 227 515 q 220 509 226 514 l 220 509 m 328 514 l 328 513 q 342 498 338 504 l 343 498 q 328 514 340 503 m 242 513 l 242 512 l 243 512 l 243 513 l 243 513 l 242 513 m 217 505 l 217 505 q 209 494 216 502 q 202 480 207 492 l 203 480 q 205 486 203 482 l 207 486 l 207 486 l 205 488 l 207 488 l 207 488 l 207 488 l 207 488 l 207 490 q 216 501 212 494 l 220 507 l 220 507 l 217 505 m 229 506 l 231 505 l 231 505 l 231 506 q 230 507 230 506 l 229 506 m 228 501 l 228 499 l 229 498 l 229 501 l 228 501 m 254 496 l 254 496 l 254 495 l 254 494 l 254 494 l 255 495 l 256 495 l 255 488 l 255 486 l 255 486 l 255 486 l 254 477 l 255 467 l 254 467 l 254 467 l 254 467 l 254 467 q 255 465 254 465 l 255 465 l 254 463 l 254 463 l 252 467 l 252 467 l 249 465 l 248 466 l 248 467 l 250 467 l 250 468 q 248 470 249 468 l 249 471 l 250 470 l 251 471 l 251 471 l 250 471 l 250 473 l 251 473 q 250 474 251 474 l 250 474 l 250 475 l 250 475 l 250 475 q 249 478 249 476 l 250 479 l 250 481 l 250 482 l 250 482 l 248 484 l 248 485 l 248 485 l 248 486 q 248 487 248 486 l 247 487 q 245 484 246 484 l 245 484 l 245 482 l 246 481 l 245 481 l 245 480 l 246 476 l 246 476 l 245 476 q 244 479 245 479 l 243 479 l 243 479 l 243 479 l 243 480 l 244 479 l 245 479 l 245 481 l 243 484 q 245 485 243 485 l 242 488 l 241 487 l 241 487 l 241 487 q 242 486 241 486 l 242 485 l 241 485 l 241 484 l 240 485 l 238 484 l 237 484 l 237 491 l 236 491 l 236 487 l 231 484 l 231 484 l 235 483 q 233 482 235 482 l 233 480 l 234 480 l 235 481 l 235 481 l 235 480 l 234 479 l 233 479 l 232 480 q 231 479 232 479 l 231 477 q 231 475 231 475 l 230 476 l 229 476 q 232 473 229 474 l 231 472 l 229 474 q 227 477 229 474 q 224 475 224 476 q 227 473 224 473 q 229 471 227 471 l 229 468 l 231 469 l 232 468 l 233 468 l 234 469 l 234 468 l 234 467 l 233 467 l 233 466 l 235 464 l 236 464 q 237 467 236 465 l 237 466 l 239 466 l 239 469 l 240 469 l 240 469 l 241 469 q 238 463 241 467 q 240 462 240 463 l 241 462 l 242 463 l 241 463 l 241 465 l 242 465 l 243 462 l 242 462 l 242 462 l 242 461 l 242 460 l 242 459 l 242 458 l 243 458 l 242 457 l 242 457 l 243 457 l 247 460 l 248 459 l 245 455 l 246 455 q 250 460 250 457 l 251 460 l 251 458 l 249 456 l 249 455 q 250 456 250 455 l 250 456 l 251 456 l 251 454 l 250 452 l 250 452 l 250 450 q 248 448 250 448 l 248 446 q 250 444 250 446 l 250 444 l 248 444 l 249 444 l 249 443 l 247 443 l 247 444 l 248 444 l 248 446 l 247 448 l 247 448 l 246 448 l 245 448 l 245 449 l 247 449 l 247 450 q 243 452 245 450 l 244 453 l 244 454 q 243 455 243 454 l 242 455 q 241 452 242 452 l 241 452 l 241 450 l 239 452 q 241 453 239 453 l 237 456 l 237 455 l 236 455 l 237 453 l 237 452 q 234 452 235 452 l 233 452 l 233 459 l 232 459 l 232 455 l 227 452 l 227 452 l 231 451 l 227 448 l 227 448 l 226 448 l 226 448 l 226 447 l 224 446 l 224 446 l 225 446 l 226 446 l 226 446 q 227 445 227 446 l 226 443 l 226 444 l 224 444 q 228 441 224 442 l 227 440 q 222 446 224 440 l 223 446 l 222 446 l 223 448 l 223 448 q 222 449 222 448 l 221 449 l 221 449 l 220 449 q 216 447 216 448 q 222 444 222 446 l 220 443 q 222 441 220 441 q 224 439 222 439 l 224 437 q 218 431 222 437 l 218 430 l 218 430 l 218 430 q 216 424 216 427 q 213 422 214 424 l 213 422 l 214 422 l 215 422 l 215 421 l 215 421 l 216 422 l 216 422 l 216 422 l 220 427 l 220 427 l 220 425 l 218 420 l 219 420 l 218 420 l 218 416 l 216 416 l 216 416 l 217 416 l 217 416 l 218 416 l 218 414 l 218 413 q 220 412 220 413 l 220 411 l 219 410 l 219 410 l 220 410 l 220 410 q 221 411 220 411 l 222 411 l 222 411 l 221 410 l 221 407 l 222 407 q 224 408 222 408 l 224 410 l 225 410 l 226 410 q 229 406 226 408 l 229 405 l 227 405 l 226 405 l 226 405 l 224 404 l 224 403 l 224 403 l 224 404 l 226 404 l 229 405 l 230 404 l 230 403 l 229 403 l 229 402 l 230 402 l 231 404 q 233 402 231 402 l 234 400 l 233 399 l 234 398 l 233 397 l 233 397 l 233 398 l 231 397 l 230 397 l 230 398 l 231 399 l 229 399 q 228 397 229 397 l 227 397 l 227 397 l 231 396 l 231 397 l 232 397 l 235 396 l 237 397 l 237 397 l 238 397 l 239 397 l 239 397 l 240 397 l 240 395 l 239 396 l 239 396 l 238 395 q 239 394 239 395 l 238 392 l 238 392 l 239 392 l 239 391 l 237 391 l 237 392 l 237 392 l 237 392 l 237 391 l 237 390 l 237 390 q 235 392 235 390 l 235 392 q 234 390 235 390 l 227 388 l 227 387 q 229 386 229 387 q 227 384 227 385 l 227 384 l 227 385 l 227 386 l 227 386 l 224 382 q 220 380 221 380 l 220 382 l 218 380 l 218 379 l 216 378 l 216 378 l 216 378 l 216 380 l 214 378 l 212 380 l 210 379 l 210 378 l 210 378 l 210 378 l 202 380 l 203 378 l 203 378 l 203 377 l 203 376 l 203 376 q 210 361 207 363 l 213 358 l 212 357 l 212 357 q 220 351 220 357 q 222 328 222 351 l 224 322 l 221 321 l 222 319 l 222 318 l 221 317 l 220 318 l 220 318 q 218 317 220 317 l 218 315 l 218 315 l 218 315 l 220 313 l 220 313 q 218 312 220 312 l 218 311 l 219 311 q 222 312 219 312 l 222 312 l 220 312 l 220 313 l 221 313 l 223 313 l 223 311 q 225 306 224 311 l 225 304 l 224 304 l 223 305 l 223 305 l 223 305 q 227 300 227 301 l 229 301 l 229 300 l 229 300 l 229 300 q 233 296 231 296 l 233 296 l 233 296 l 233 296 l 233 296 l 234 296 l 234 294 l 233 294 l 233 294 l 234 294 l 235 294 q 237 293 237 294 l 239 294 q 243 292 240 292 l 243 292 l 243 292 l 244 292 l 245 292 l 248 292 l 248 292 l 247 291 l 247 290 q 252 289 252 290 l 252 290 l 253 290 l 256 288 l 256 288 l 256 288 l 258 288 l 258 288 l 259 288 l 260 288 l 261 288 l 261 288 l 262 288 l 262 288 l 262 287 q 268 286 268 286 l 269 286 l 275 285 l 275 286 l 275 286 l 276 285 l 277 285 l 279 286 l 279 285 l 279 286 l 279 286 l 282 285 l 283 286 l 287 285 q 296 286 292 285 l 297 285 l 298 286 l 300 285 l 300 285 l 302 286 l 302 286 l 312 290 q 317 294 312 292 q 323 298 320 298 l 326 302 q 328 304 326 304 l 329 304 l 329 304 q 334 309 329 306 l 333 309 l 333 309 l 336 309 q 333 311 335 311 l 332 309 l 330 310 l 330 309 l 332 309 l 331 309 l 330 309 l 330 309 l 330 310 q 330 313 330 311 l 332 313 q 337 310 336 312 q 338 313 337 313 l 338 313 l 338 309 l 338 309 l 338 315 l 338 320 l 335 320 l 335 319 l 336 318 l 335 318 q 334 316 334 318 l 334 315 l 334 315 l 332 315 l 332 317 l 332 317 q 331 315 332 315 l 331 315 l 331 322 l 331 323 l 331 323 l 331 328 l 330 330 l 331 330 l 330 332 l 331 338 l 330 341 q 334 357 332 357 l 334 357 q 344 374 343 368 q 355 391 355 383 q 353 394 353 391 l 351 395 l 351 393 q 353 389 353 391 l 353 389 l 349 394 l 349 394 l 349 392 q 352 387 349 391 q 344 376 352 382 q 337 374 341 374 l 326 380 l 326 380 q 319 378 325 379 q 318 378 319 378 l 315 372 q 313 366 315 366 l 312 366 l 312 365 q 313 364 313 365 l 315 365 l 315 363 l 315 363 l 315 363 l 315 362 l 314 361 l 315 360 l 315 359 l 315 356 l 315 356 l 315 355 l 316 355 q 313 351 316 353 l 313 349 l 313 342 l 313 342 l 314 342 l 315 345 l 314 346 l 314 347 l 315 348 q 317 342 317 346 q 312 339 317 339 l 311 340 l 311 338 q 307 340 307 340 l 308 342 q 307 340 307 342 l 306 340 l 306 340 l 305 340 l 305 340 l 304 339 l 301 340 q 300 338 300 338 l 299 338 l 296 338 l 296 338 l 296 338 l 296 338 l 296 339 l 295 340 q 296 341 296 340 q 295 345 295 341 l 296 344 l 297 344 l 297 345 l 296 345 l 296 349 l 294 348 q 291 349 294 349 l 291 348 q 293 344 293 348 l 291 343 l 291 342 l 292 342 l 292 342 l 293 342 l 292 339 l 293 339 l 293 338 l 292 336 l 291 336 l 290 338 l 288 337 l 286 337 l 281 338 l 279 338 l 279 339 l 278 339 l 278 338 l 275 338 l 274 340 l 274 341 q 275 342 275 341 l 275 342 l 274 342 l 275 345 l 275 345 q 274 348 275 345 l 273 348 q 277 354 273 351 l 277 353 l 277 354 l 279 354 l 281 353 l 283 354 l 283 354 q 281 355 281 354 l 281 356 q 283 358 283 356 l 283 359 l 283 359 q 281 355 281 358 q 277 357 279 357 l 277 357 q 273 351 277 355 l 273 351 l 273 354 l 274 353 l 274 354 q 273 355 273 354 l 272 355 l 272 354 l 272 354 l 271 355 l 271 355 q 272 358 272 356 l 273 358 l 272 359 l 272 359 l 273 360 l 274 359 l 274 359 l 274 356 l 275 356 l 275 358 l 277 358 l 278 357 l 278 358 l 279 358 l 279 357 l 280 357 l 281 359 l 281 359 l 280 359 l 281 359 l 282 359 l 283 359 l 284 359 l 286 359 l 286 359 l 286 359 l 286 359 l 286 358 l 286 355 l 286 352 l 285 353 l 284 353 l 283 353 l 283 353 l 283 353 l 283 352 l 283 352 l 283 351 l 284 352 l 285 352 l 285 351 l 285 351 l 285 350 l 284 351 l 283 351 l 283 350 l 283 350 l 283 349 l 283 349 l 283 349 l 282 350 l 281 349 l 280 349 l 280 349 l 279 349 l 279 349 l 279 348 l 281 348 l 283 345 l 283 344 l 283 343 l 283 342 l 283 341 q 283 340 283 341 l 284 340 q 286 342 284 342 l 286 343 l 285 343 l 285 345 l 285 347 l 286 347 l 286 347 l 286 347 l 286 348 l 286 349 l 286 349 l 286 349 q 288 353 288 351 l 288 354 l 288 354 l 292 353 l 293 353 l 294 353 l 294 353 l 293 353 l 294 350 l 294 351 l 294 351 l 296 350 q 298 354 298 353 l 298 354 l 297 354 l 296 354 l 296 354 l 296 355 l 296 355 l 297 355 l 296 355 l 296 357 l 298 357 l 298 358 l 296 360 l 296 359 l 295 360 l 294 360 q 293 359 293 360 l 292 359 l 293 361 l 292 361 l 291 361 l 293 362 l 296 361 l 296 362 l 294 362 l 298 365 q 301 368 298 366 l 301 368 l 302 370 l 303 370 l 303 369 l 304 369 l 305 370 l 304 371 l 304 370 l 302 370 l 302 370 q 304 372 302 372 l 304 372 l 304 373 l 304 374 l 305 374 l 305 373 l 304 373 q 306 371 305 371 l 306 370 l 306 370 l 306 369 l 309 369 l 309 369 l 308 370 l 309 372 q 306 374 306 372 l 307 378 q 306 380 306 378 l 307 385 l 308 385 l 309 385 l 309 385 l 309 385 l 309 386 q 307 387 307 386 q 309 389 307 388 l 311 389 l 311 389 l 311 388 l 311 388 l 313 388 l 313 387 q 309 383 311 387 q 308 382 308 383 l 308 381 q 310 384 309 381 l 311 384 l 311 382 l 309 381 l 311 381 q 311 382 311 382 l 312 382 l 312 382 l 311 381 l 311 381 l 313 380 l 315 381 l 315 380 l 313 380 l 313 379 l 315 378 l 314 378 l 313 378 l 313 378 l 312 378 q 315 376 315 377 l 315 376 q 312 375 315 375 l 312 374 l 314 374 l 314 374 l 312 374 l 312 373 l 313 373 l 313 372 l 312 372 l 312 372 q 314 371 314 372 l 313 370 l 315 370 l 316 379 l 317 379 l 317 378 l 318 378 l 319 380 l 319 380 l 317 380 l 317 380 l 317 380 l 317 380 q 319 382 317 382 l 319 384 l 319 383 l 318 383 l 318 384 l 318 383 l 318 383 l 318 382 l 316 382 l 316 383 q 318 385 317 383 l 318 385 l 319 385 l 320 385 l 320 385 l 322 383 q 325 385 325 384 l 325 385 l 325 385 l 324 385 l 324 385 l 323 385 l 323 386 l 324 386 q 322 387 324 387 l 322 387 l 323 389 l 320 389 q 321 390 320 390 l 321 391 l 321 391 l 321 391 l 319 391 l 319 391 q 317 393 319 391 q 316 394 316 393 q 315 393 315 394 l 310 393 l 309 393 l 307 393 l 307 395 l 307 395 l 311 394 l 309 397 l 310 398 l 309 399 q 311 400 309 399 l 316 399 l 317 401 l 315 403 l 315 404 l 317 404 l 317 404 q 318 406 317 406 l 318 406 l 317 407 l 317 408 l 319 408 l 320 408 l 321 407 l 320 406 l 320 406 q 321 404 321 406 l 323 404 q 326 408 323 406 l 326 407 l 324 405 l 324 405 l 328 408 q 330 410 330 408 q 332 414 332 410 l 334 414 l 336 413 l 336 414 l 336 414 q 338 416 336 416 l 337 418 l 338 418 l 337 419 l 337 419 l 338 420 l 338 421 l 338 425 l 338 425 l 338 425 l 338 426 l 338 427 l 336 431 l 338 433 l 340 431 l 339 430 q 340 429 340 430 l 340 429 q 342 426 340 427 l 342 425 l 342 425 l 344 427 l 344 428 l 344 431 l 344 431 l 343 433 l 340 432 q 339 435 339 434 l 338 435 l 339 434 l 338 433 l 338 433 l 338 434 q 337 433 338 433 l 337 433 l 336 433 l 336 433 l 336 433 l 335 433 l 335 435 l 336 435 l 336 434 l 337 434 l 337 435 l 336 436 l 337 436 l 337 437 l 334 437 l 335 437 l 335 435 l 334 435 q 322 441 330 439 l 322 443 l 323 443 l 323 443 l 321 444 l 321 443 l 320 443 l 320 444 l 315 444 q 298 439 300 443 l 296 438 l 296 437 l 296 437 l 295 436 l 294 439 q 299 444 299 441 l 299 444 l 300 443 l 300 443 l 299 443 l 299 442 l 300 442 l 301 446 l 300 446 l 300 444 l 299 445 q 293 441 294 441 l 293 443 q 291 440 292 443 l 288 439 l 289 439 l 289 438 l 288 439 l 288 439 l 288 438 l 288 438 l 288 437 l 286 437 l 287 436 l 287 436 l 286 435 l 286 435 l 285 433 l 285 433 l 284 433 l 283 433 l 283 433 l 283 433 l 283 433 l 281 432 q 283 431 283 432 l 283 431 l 285 431 l 287 430 l 287 429 l 286 428 l 286 427 q 288 427 288 427 l 288 425 l 288 425 l 288 422 q 290 427 289 422 l 290 427 l 290 426 l 290 425 l 290 425 l 290 425 l 290 421 l 290 420 l 290 420 l 290 420 q 296 408 290 416 l 296 408 l 296 408 l 298 408 q 304 401 304 403 l 305 398 l 304 398 l 305 398 l 305 397 l 304 394 l 304 394 l 304 395 l 303 395 l 302 395 l 302 397 l 302 397 l 302 397 l 302 396 l 300 396 l 294 401 l 293 401 l 293 401 q 283 404 290 403 l 283 404 l 279 404 q 269 399 271 402 l 266 398 l 266 399 l 266 399 q 264 397 266 398 l 264 397 l 264 394 l 261 394 l 261 395 l 262 395 l 261 397 l 261 397 l 261 395 l 261 395 l 261 395 l 261 395 l 261 394 l 261 394 l 260 394 l 258 395 l 258 398 l 257 399 l 258 399 l 258 400 l 256 401 l 254 397 l 254 397 q 254 398 254 397 l 255 399 l 255 399 l 255 396 l 256 396 l 256 399 l 256 399 l 257 398 q 256 395 256 395 q 255 396 255 395 l 254 395 l 254 395 l 254 396 l 253 395 l 253 395 l 252 396 l 250 395 l 248 395 l 247 395 l 247 394 l 245 394 l 245 396 l 245 396 q 242 393 245 393 l 242 393 l 242 394 l 243 397 l 241 397 q 247 399 241 398 l 247 399 l 246 399 l 246 398 l 247 398 l 247 398 l 248 398 l 248 400 l 248 401 l 250 401 l 250 400 l 250 400 l 250 401 l 250 401 l 251 401 l 251 397 l 252 397 q 253 402 252 402 l 254 402 l 254 401 l 254 401 l 252 400 l 252 400 l 253 400 q 255 403 255 401 l 256 404 l 256 402 q 262 406 261 406 l 261 406 l 261 407 l 262 408 l 263 408 l 263 407 l 262 407 l 262 406 l 263 406 q 271 417 269 409 q 272 422 271 421 l 272 424 l 271 424 q 269 422 271 422 l 269 423 l 269 423 q 267 419 269 419 l 267 420 l 267 420 q 273 427 270 427 q 275 432 273 429 q 277 433 276 433 l 277 434 l 277 434 l 277 433 l 275 433 l 275 434 l 277 435 l 277 436 l 276 436 l 275 435 l 272 435 l 271 435 l 271 437 l 271 436 l 269 436 l 269 437 l 271 437 l 271 438 l 267 437 l 267 435 l 267 433 l 265 437 l 263 439 l 262 439 q 264 443 262 443 l 264 446 l 264 446 q 262 448 264 446 l 262 448 q 264 449 264 448 q 262 450 262 449 l 261 449 l 262 448 l 260 446 q 262 446 262 446 q 260 444 262 444 l 260 444 l 261 444 l 261 444 l 261 443 l 261 443 l 262 441 l 261 441 l 261 441 q 256 445 256 441 l 256 445 l 256 444 l 256 444 l 256 443 l 256 443 l 255 443 l 253 444 l 253 444 q 255 447 254 444 l 254 447 l 254 446 l 254 446 l 253 447 l 253 450 l 254 452 l 256 450 l 256 450 l 256 449 l 258 450 l 257 450 l 257 452 l 258 452 l 258 452 l 258 452 l 257 452 l 256 452 l 255 452 l 256 454 l 255 454 l 256 455 l 257 455 l 257 454 l 259 454 l 259 456 l 257 456 l 257 457 l 258 456 l 259 456 l 259 457 l 258 458 l 258 458 l 259 458 l 259 458 q 256 460 259 460 l 256 462 q 258 465 256 465 q 264 458 258 463 l 264 458 l 264 458 l 264 458 l 265 458 l 266 458 l 266 458 l 265 456 l 266 455 l 267 455 q 267 458 267 458 q 280 452 275 453 l 283 452 q 290 454 284 453 q 295 457 295 456 q 302 477 302 465 l 302 480 q 292 493 300 488 q 277 498 289 493 l 262 501 l 254 497 l 254 496 m 264 498 l 267 498 q 288 490 275 498 l 286 490 q 267 495 280 494 l 264 495 q 260 491 261 493 l 260 491 q 258 495 260 493 l 258 494 l 256 494 l 256 495 q 264 498 256 497 m 346 494 l 346 493 l 347 492 l 347 492 q 346 494 347 494 m 269 492 q 279 490 273 492 l 279 490 l 275 490 l 272 490 q 263 485 263 488 l 261 482 l 260 484 l 262 486 l 261 486 l 261 486 q 269 492 266 492 m 215 491 l 215 490 l 216 488 l 217 488 q 215 491 217 490 m 288 490 l 288 490 q 299 481 295 488 l 299 473 l 300 473 l 299 470 l 298 470 l 298 473 l 298 473 l 298 474 l 298 474 q 293 485 297 479 l 288 490 m 348 490 l 348 490 q 353 471 353 475 l 353 471 l 353 471 l 353 475 l 353 475 q 348 490 352 485 m 222 490 l 223 488 l 224 488 l 223 490 l 222 490 m 241 490 l 241 488 l 242 488 l 243 490 l 241 490 m 243 490 l 243 488 l 245 488 l 245 488 l 243 490 m 283 489 l 283 489 q 294 476 294 481 q 281 462 292 462 l 278 461 q 267 467 270 461 l 267 469 l 267 469 q 277 463 271 465 l 280 463 q 292 475 292 465 l 292 476 q 283 488 292 483 l 283 489 m 245 488 l 245 487 l 246 487 l 246 488 l 245 488 m 273 488 q 288 479 284 488 l 289 476 q 279 465 287 465 q 272 467 275 466 l 271 467 q 267 475 267 472 q 273 480 270 480 l 275 481 q 285 476 280 481 q 280 471 283 471 l 280 471 l 281 474 l 281 475 q 277 478 280 478 l 273 478 l 269 476 l 269 476 l 269 475 l 269 475 l 269 473 q 275 467 271 467 l 280 467 q 288 475 286 467 l 288 475 l 288 476 l 288 476 q 275 486 288 485 q 267 484 271 486 l 267 484 q 273 488 268 486 m 216 487 q 214 485 216 486 l 215 482 l 213 482 l 214 479 l 214 479 q 212 477 212 479 l 213 477 l 213 477 l 216 478 l 216 477 q 218 475 216 477 l 218 474 l 217 473 l 217 473 l 220 473 l 220 474 l 220 476 l 222 477 l 220 479 l 218 479 l 218 481 l 218 481 l 221 481 l 221 481 q 218 484 220 484 l 218 485 l 218 486 l 218 486 l 216 486 l 216 487 l 216 487 m 228 486 l 228 486 l 229 485 l 229 485 l 229 486 l 228 486 m 266 483 l 267 483 l 267 482 q 264 479 264 482 l 264 475 l 264 474 l 264 474 l 266 471 l 266 470 l 265 470 q 263 475 264 470 q 266 483 264 483 m 216 482 l 217 481 l 217 481 l 216 481 l 216 482 m 260 482 l 260 482 l 261 481 l 261 479 l 260 479 l 260 482 m 224 480 l 224 481 q 221 479 221 480 l 223 479 l 223 479 l 224 479 l 227 478 l 228 479 l 228 480 q 226 481 226 480 l 224 480 m 210 480 l 209 479 l 209 479 l 210 479 l 210 480 m 210 477 l 210 477 l 212 477 l 212 478 l 211 478 l 210 477 m 260 478 l 261 478 l 261 474 l 260 473 q 264 466 261 468 l 263 465 l 263 465 q 264 464 264 465 l 264 463 l 264 463 l 264 463 q 259 470 259 465 l 259 471 l 260 478 m 217 477 l 218 477 l 218 477 l 218 476 l 218 476 l 217 477 l 217 477 m 202 475 l 202 474 l 203 474 l 203 475 l 202 475 m 210 475 l 211 473 q 214 475 213 473 l 214 475 l 210 475 m 233 476 l 233 476 l 234 475 l 233 475 l 233 476 m 278 476 l 279 475 l 279 474 l 278 473 l 275 473 l 275 474 l 275 474 q 278 476 275 475 m 200 475 l 199 472 l 199 472 l 201 475 l 201 475 l 200 475 m 208 475 l 207 473 l 209 475 l 208 475 l 208 475 m 214 474 l 216 474 l 215 475 l 214 474 m 201 473 l 201 472 l 202 472 l 202 473 l 201 473 m 209 473 l 208 471 l 211 471 l 210 473 l 209 473 m 248 473 l 248 473 l 248 471 l 248 471 l 248 473 l 248 473 l 248 473 m 199 471 l 198 469 l 199 469 l 199 469 l 199 469 l 199 469 l 199 471 l 199 471 l 199 471 m 214 469 l 214 469 l 214 469 l 215 469 l 215 470 l 214 470 l 214 469 m 218 470 l 220 469 l 220 468 l 220 468 l 218 470 l 218 470 m 275 471 l 278 471 l 278 469 l 275 469 l 275 471 m 197 468 l 197 467 l 197 466 l 197 466 l 199 468 l 197 468 m 353 468 l 353 468 l 353 467 l 353 466 l 353 465 l 353 465 l 353 465 l 353 468 l 353 468 m 243 467 l 245 467 l 243 465 l 243 467 l 243 467 m 228 467 l 228 466 l 228 465 l 229 465 l 229 466 l 228 467 m 298 467 l 298 465 q 283 455 290 455 l 280 456 l 277 456 l 277 456 l 280 456 q 298 467 288 457 m 220 466 l 220 465 l 222 465 l 222 465 l 220 466 m 196 464 l 196 463 l 197 465 l 197 465 l 196 464 m 251 465 l 251 464 l 250 463 q 252 462 252 463 l 248 461 l 247 461 l 251 465 m 221 463 l 221 461 l 222 461 l 221 463 l 221 463 m 228 462 l 228 460 l 229 460 l 229 461 l 229 463 l 229 463 l 228 462 m 196 462 l 195 456 q 196 461 195 456 l 196 462 l 196 462 m 266 463 l 266 463 q 276 457 271 458 l 276 456 q 266 462 270 458 l 266 463 m 350 460 q 348 456 350 458 q 347 455 348 455 l 347 455 l 347 454 l 347 453 q 345 446 346 453 l 345 444 l 345 443 l 345 443 l 345 440 l 345 438 l 345 436 q 346 433 345 433 l 346 432 q 348 415 348 425 l 348 415 l 348 414 l 348 414 l 348 414 l 348 413 l 348 413 l 348 412 l 348 412 l 348 412 l 348 410 l 349 410 l 349 410 l 349 412 l 349 418 l 349 418 l 349 418 l 349 419 l 349 419 l 349 420 l 349 425 l 350 425 l 350 426 l 349 426 l 349 428 l 350 429 l 350 426 l 351 426 l 351 427 l 350 427 l 351 429 l 351 429 l 350 429 l 350 430 l 351 430 l 351 430 l 351 430 l 351 431 l 351 431 l 350 431 l 350 431 l 349 433 l 350 433 l 349 433 l 349 434 l 350 433 l 351 433 l 350 435 l 350 435 l 351 437 l 350 437 l 350 437 l 351 441 l 349 441 l 349 441 l 350 442 l 351 444 l 351 444 l 352 444 l 352 443 l 353 444 l 353 444 l 353 444 l 353 445 l 353 446 q 351 446 353 446 l 351 448 l 353 448 l 353 446 l 353 447 l 355 446 l 355 443 l 355 441 l 353 432 l 353 432 l 353 431 l 353 430 l 353 429 l 353 428 l 353 427 l 353 427 l 353 427 l 353 426 l 353 425 l 352 420 l 350 420 l 350 420 q 351 418 351 420 q 349 408 350 408 l 348 408 l 348 407 l 349 407 l 349 406 l 348 405 q 349 397 349 403 l 349 397 l 348 397 l 349 396 l 349 396 l 349 397 l 350 397 l 350 395 l 351 395 l 350 399 q 351 406 351 406 l 351 408 q 356 441 356 434 l 356 442 l 355 454 l 354 454 l 355 450 l 354 450 l 353 451 l 353 451 l 353 449 l 351 449 l 351 450 l 353 453 l 353 454 l 351 460 l 350 460 m 237 460 l 237 459 l 239 459 l 239 460 l 237 460 m 244 460 l 246 460 l 245 458 l 244 459 l 244 460 m 240 460 l 240 459 l 240 458 l 240 458 l 241 459 l 241 460 l 240 460 m 210 459 l 210 458 l 212 456 l 212 456 q 210 459 212 458 m 220 458 l 220 457 l 222 457 l 221 458 l 220 458 m 264 458 l 264 456 l 264 456 l 264 458 l 264 458 m 218 457 l 218 456 l 220 456 l 218 457 l 218 457 m 237 457 l 237 456 l 237 456 l 239 457 l 237 457 m 239 457 l 239 456 l 240 456 l 240 456 l 239 457 m 203 457 l 204 455 l 203 455 l 203 454 l 205 452 l 205 452 l 205 452 l 205 452 l 205 452 l 205 453 q 207 454 205 454 l 207 454 q 204 457 204 454 l 203 457 m 202 456 l 201 454 l 201 453 l 202 453 l 203 456 l 202 456 m 241 456 l 241 455 l 242 455 l 242 456 l 241 456 m 195 455 l 194 452 l 194 452 l 195 452 q 195 455 195 454 l 195 455 l 195 455 m 212 455 q 210 452 212 454 l 211 450 l 210 450 l 210 450 q 208 454 208 452 l 207 454 l 207 452 l 209 448 l 208 448 l 208 448 l 208 448 l 208 448 l 208 446 l 208 446 l 209 445 l 209 444 l 208 443 l 208 444 l 207 444 q 206 443 207 443 l 207 442 l 207 441 l 205 441 l 205 441 q 208 446 205 444 q 206 450 206 446 l 205 450 l 205 449 l 205 448 l 205 448 l 205 448 l 205 445 l 205 444 l 204 444 l 205 444 l 205 443 l 204 443 l 204 443 l 203 443 l 203 441 q 203 441 203 441 l 204 441 l 203 438 l 204 438 l 204 436 l 205 437 l 205 438 l 205 438 l 205 438 l 207 437 l 206 436 l 207 436 q 208 438 207 438 l 208 438 l 208 437 l 208 437 l 208 435 l 205 432 l 205 433 l 205 432 l 205 432 l 207 431 l 207 431 q 205 430 207 430 l 205 429 q 208 427 208 429 l 208 427 q 205 422 205 424 l 206 422 q 205 418 205 418 l 205 419 l 204 419 l 204 419 l 205 418 l 205 418 l 203 415 q 204 411 204 415 l 205 411 q 206 412 205 412 l 207 412 l 207 409 q 205 400 206 408 q 201 394 204 400 l 199 393 l 199 394 l 199 394 l 199 397 q 199 399 199 397 l 199 404 l 197 405 l 197 406 l 198 406 l 196 422 l 195 422 l 195 420 l 196 408 l 196 405 l 199 383 l 199 383 l 199 382 l 200 382 l 200 383 l 199 387 l 201 387 l 200 388 l 200 391 q 203 393 200 391 l 203 394 l 204 394 l 204 393 l 205 393 l 205 396 l 205 397 l 207 405 l 207 406 l 207 406 q 210 420 208 410 l 210 422 l 209 422 l 210 427 l 209 427 q 210 428 209 428 l 211 429 l 211 429 q 210 430 210 429 q 214 441 212 435 l 216 441 l 216 442 l 215 444 l 217 445 l 216 447 l 214 446 l 214 449 l 214 450 l 216 449 l 216 450 q 214 452 216 452 l 214 452 l 214 454 l 214 454 l 212 454 l 212 455 l 212 455 m 245 455 l 245 454 l 245 454 l 245 454 l 245 455 m 224 454 l 224 454 l 224 453 l 225 453 l 225 454 l 224 454 m 258 454 l 258 452 l 259 452 l 259 452 l 258 454 l 258 454 m 194 450 l 194 450 l 195 450 l 195 451 l 194 450 m 227 451 l 227 449 l 228 449 l 228 450 l 227 451 l 227 451 m 258 451 l 258 449 l 259 449 l 259 451 l 258 451 m 212 450 l 213 450 l 213 449 l 212 449 l 212 450 m 224 450 l 224 449 l 226 449 l 225 450 l 224 450 m 248 449 l 250 449 l 250 450 l 248 449 m 194 449 l 194 448 l 195 448 l 195 449 l 194 449 m 241 450 l 241 449 l 242 449 l 241 448 l 241 447 l 241 446 q 241 448 241 446 l 241 450 m 224 449 l 224 448 l 225 448 l 225 449 l 224 449 m 231 449 l 231 449 l 231 448 l 230 448 l 229 448 l 229 448 l 231 449 m 194 447 l 193 446 l 194 446 l 193 443 l 194 441 l 193 441 l 193 440 l 193 440 l 193 439 q 192 437 192 439 l 193 437 l 193 437 l 193 437 l 193 437 l 193 434 l 194 425 l 194 422 l 195 422 l 195 426 l 195 428 l 195 429 l 195 429 l 194 429 l 195 431 l 194 435 l 195 437 l 194 440 l 193 440 q 195 441 193 441 l 194 443 l 194 446 l 195 446 l 195 447 l 194 447 m 221 446 l 222 446 l 222 446 l 222 446 l 222 445 l 222 445 l 221 446 l 221 446 m 305 445 l 307 445 l 307 446 l 306 446 l 305 445 m 213 446 l 214 446 l 214 445 l 214 444 l 214 444 l 213 446 l 213 446 m 242 446 l 242 444 l 241 444 l 241 444 l 242 446 m 263 444 l 264 444 l 264 444 l 262 443 l 262 444 l 263 444 m 229 444 l 229 444 l 230 443 l 229 443 l 229 444 m 323 443 l 326 442 l 324 444 l 323 443 m 247 443 l 248 442 l 247 441 l 247 441 l 247 443 m 330 443 l 330 441 l 331 441 l 330 443 l 330 443 m 209 443 q 210 441 210 443 l 210 439 l 210 439 l 209 440 l 209 440 l 209 439 l 209 439 l 209 439 l 208 439 l 208 439 q 209 443 209 441 m 264 441 l 264 441 l 264 440 l 266 440 l 267 441 l 267 441 l 266 441 l 264 441 m 351 439 l 352 439 l 352 439 q 351 438 352 438 l 351 437 l 351 437 l 353 438 l 353 440 l 352 439 l 351 439 m 214 438 l 215 437 l 215 436 l 216 436 l 214 438 l 214 438 m 259 438 l 260 438 l 260 437 l 259 437 l 259 438 m 352 437 l 352 435 l 353 435 l 353 437 l 352 437 m 205 435 l 205 434 l 207 435 l 207 436 l 205 435 m 200 435 l 200 435 l 201 434 l 201 435 l 200 435 m 204 435 l 204 433 l 205 433 l 205 435 l 204 435 m 279 435 q 276 431 279 433 l 275 429 q 276 426 275 426 l 276 427 l 275 429 l 276 429 l 277 429 l 277 429 l 277 427 q 279 429 278 427 q 277 430 277 429 q 281 432 278 432 l 281 433 q 279 435 279 433 l 279 435 l 279 435 l 279 435 m 269 435 l 269 433 l 268 433 l 268 435 l 269 435 m 351 435 l 351 435 l 353 433 l 353 434 l 351 435 m 273 435 l 273 433 l 272 433 l 271 434 l 272 435 l 273 435 m 216 433 l 216 433 l 218 433 l 218 433 l 216 433 m 269 433 l 271 433 l 271 433 l 270 432 l 269 432 l 269 433 m 274 433 l 275 433 l 275 432 l 274 432 l 274 433 m 351 433 l 351 432 l 353 432 l 353 432 l 351 433 m 203 433 l 203 432 l 203 431 l 204 431 l 204 432 l 203 433 l 203 433 m 345 433 l 345 431 l 345 432 l 345 433 l 345 433 m 221 429 l 221 429 l 221 429 l 220 429 l 221 429 m 293 425 l 293 425 l 292 424 l 292 424 l 293 425 m 342 425 l 342 424 l 343 423 l 343 425 l 342 425 m 332 422 l 333 420 l 332 420 l 331 422 l 332 422 l 332 422 m 332 420 l 332 418 l 332 417 l 330 413 l 331 412 l 330 412 l 330 412 l 330 412 l 329 412 l 329 412 l 328 414 l 328 414 l 329 414 l 330 414 l 330 414 l 329 414 l 329 416 q 332 420 330 420 m 267 419 l 267 418 l 267 418 l 267 418 l 267 419 m 267 418 l 267 417 l 266 416 l 266 417 l 267 418 m 326 418 l 326 418 l 326 417 l 325 416 l 326 418 m 205 416 l 206 416 l 207 416 l 207 416 l 208 416 l 207 414 l 208 413 l 206 413 l 206 413 l 207 414 l 207 414 l 205 414 l 205 416 m 266 416 l 266 414 l 264 413 l 264 415 l 266 416 m 335 416 l 336 416 l 336 415 l 334 415 l 335 416 m 326 414 l 327 413 l 327 412 l 326 413 l 326 414 m 334 413 l 334 411 l 334 411 l 336 413 l 334 413 m 264 412 l 264 412 l 264 412 l 264 411 l 264 410 l 264 410 l 264 409 l 263 409 l 262 410 q 264 412 263 412 m 332 411 l 332 410 l 333 410 l 333 411 l 332 411 m 321 408 l 322 408 q 323 406 323 408 l 323 406 q 321 408 322 406 m 260 408 l 260 408 l 259 407 l 259 407 l 260 408 m 233 406 l 234 406 q 235 405 235 406 l 236 405 l 236 404 l 235 404 q 233 406 235 404 m 332 403 l 332 402 l 332 403 l 333 403 l 334 403 l 335 404 l 335 405 l 334 405 l 332 403 m 264 404 l 264 403 l 266 400 l 267 400 q 264 404 267 402 m 203 402 l 203 401 l 204 401 l 204 403 l 203 402 m 321 403 l 321 402 l 321 403 l 322 403 l 323 401 l 323 402 l 323 403 l 321 403 m 236 403 l 237 403 l 237 401 l 236 401 l 236 403 m 325 399 l 325 398 q 331 401 331 400 l 331 402 q 325 399 325 400 m 220 401 l 220 400 l 220 400 l 222 400 l 222 401 l 220 401 m 199 399 l 199 397 l 199 397 l 199 399 l 199 399 m 227 399 l 227 399 l 229 398 l 229 399 l 227 399 m 274 399 l 277 399 l 273 397 l 272 397 l 274 399 l 274 399 m 252 399 l 253 398 l 253 398 l 252 399 l 252 399 m 271 398 l 272 398 l 272 397 q 269 393 269 393 l 267 394 q 269 397 267 397 l 271 398 m 236 395 l 236 394 l 237 394 l 237 395 l 236 395 m 224 395 l 224 395 l 226 395 l 226 395 l 224 395 m 234 393 l 235 393 l 236 393 l 235 394 l 235 394 l 234 393 m 262 393 l 262 393 l 263 393 l 261 390 l 260 391 l 260 390 l 260 389 l 261 389 l 261 388 l 260 387 l 260 387 l 260 386 l 260 386 l 260 385 l 260 386 l 258 386 l 258 383 q 260 382 260 382 l 260 382 l 260 381 l 260 377 q 259 375 259 377 l 258 375 l 258 376 l 256 376 l 256 376 q 259 372 258 376 q 263 370 260 370 q 271 363 269 363 q 269 361 271 361 l 269 361 l 271 361 l 271 360 l 269 359 l 269 361 l 269 361 l 269 363 l 268 363 q 266 359 268 361 l 269 357 q 269 359 269 359 l 270 356 l 270 355 l 266 351 q 264 353 266 352 l 263 353 l 262 353 l 261 351 l 261 351 q 260 353 260 351 l 258 353 l 256 351 l 255 352 l 255 353 l 255 352 l 254 352 l 254 353 l 254 353 q 252 351 254 351 q 250 351 252 351 q 248 350 250 350 l 248 352 l 248 352 l 247 351 l 247 351 l 243 351 l 243 353 l 243 353 l 241 351 l 239 353 q 241 359 240 359 l 241 359 l 241 361 l 241 363 l 241 364 l 241 364 l 241 364 l 241 368 q 242 369 241 369 l 242 370 l 242 370 l 242 370 l 242 371 q 239 373 239 372 l 239 373 l 240 374 l 239 374 l 239 376 l 240 376 q 241 374 241 375 l 243 376 l 243 377 l 243 377 q 241 375 243 375 l 241 376 l 241 376 q 242 378 241 378 l 241 380 l 241 380 l 240 379 l 240 380 l 239 380 l 238 379 l 240 378 l 240 378 l 236 376 q 230 380 236 378 l 226 379 l 224 380 q 226 380 224 380 q 228 383 227 383 l 229 383 l 229 383 q 231 385 229 384 l 231 386 l 231 385 l 229 385 l 229 386 l 230 386 l 230 387 l 231 386 l 232 386 l 233 386 q 234 384 233 384 l 234 384 l 233 387 l 237 388 l 239 388 l 239 387 q 236 385 237 387 l 237 384 q 240 387 237 385 l 241 387 q 239 384 241 384 l 239 383 q 241 382 241 383 q 242 384 242 382 l 242 384 l 243 383 l 243 382 l 243 382 l 243 382 l 245 382 l 245 380 l 245 380 l 245 380 l 245 380 l 247 380 l 247 380 l 248 383 l 248 383 l 248 382 l 248 381 l 250 383 l 250 383 l 250 385 l 250 385 l 250 385 l 250 385 l 252 385 l 253 387 l 254 387 l 254 387 l 255 391 l 255 391 q 256 389 256 391 l 256 389 l 258 393 l 260 393 l 260 393 l 262 393 m 302 393 l 302 393 l 304 393 l 304 391 l 304 391 q 302 393 302 391 m 259 392 l 256 389 l 257 389 l 256 388 l 256 388 l 257 387 l 257 387 l 256 385 l 256 385 l 258 387 l 258 389 l 258 389 l 258 389 l 258 390 q 260 392 260 390 l 260 392 l 259 392 m 264 393 q 266 389 265 393 l 265 389 l 264 390 l 264 390 l 264 389 l 264 389 l 264 389 l 263 388 l 264 384 l 264 383 l 262 383 l 262 385 l 262 385 l 263 386 l 262 386 l 262 388 l 262 388 l 262 389 l 264 393 m 329 391 l 329 392 l 328 392 q 326 390 326 392 l 326 389 l 326 389 l 326 391 l 327 391 l 331 389 l 331 390 l 335 391 l 335 392 l 334 392 l 329 391 m 316 392 l 317 392 l 318 391 l 318 389 l 317 387 l 316 388 l 316 392 m 329 389 l 330 388 l 330 389 l 330 389 l 329 389 m 252 388 l 252 388 l 252 386 l 248 386 l 248 387 l 248 387 l 250 387 l 250 387 l 250 387 l 251 388 l 252 387 l 252 388 m 264 388 l 264 388 l 264 387 l 264 387 l 264 388 m 315 387 l 315 386 l 315 386 l 315 386 l 315 387 m 255 386 l 254 385 l 254 385 l 256 386 l 256 386 l 255 386 m 245 385 l 245 384 l 245 383 l 243 383 l 243 383 l 245 385 m 321 385 l 323 385 l 323 385 l 322 383 l 321 383 l 321 385 m 315 384 l 315 384 l 315 383 l 315 382 l 315 382 l 315 384 m 251 382 l 251 379 l 252 379 l 252 382 l 251 382 m 263 382 l 264 382 l 264 378 l 263 380 l 264 380 l 263 381 l 263 382 m 233 381 l 233 380 l 234 380 l 234 381 l 234 381 l 233 381 l 233 381 l 233 381 m 242 380 l 242 380 q 243 378 243 380 l 243 378 l 243 380 l 243 380 l 243 381 l 242 380 m 308 381 l 308 380 l 309 380 l 309 381 l 308 381 m 248 379 l 248 378 q 250 380 250 379 l 250 380 l 250 380 l 248 379 m 310 380 l 309 378 l 309 378 l 311 380 l 311 380 l 311 380 l 310 380 l 310 380 m 224 380 l 224 379 q 221 377 224 378 l 220 377 l 220 378 l 224 380 m 245 378 l 245 378 l 245 376 l 245 376 l 245 376 l 245 376 l 246 376 l 247 376 l 247 377 l 245 378 l 245 378 m 249 378 l 250 378 l 249 376 l 250 376 l 250 376 l 251 376 q 250 378 250 378 l 249 378 m 207 378 q 209 376 207 376 l 209 376 l 209 375 l 209 375 l 209 376 l 210 376 l 210 375 l 212 375 q 217 361 214 375 l 216 361 q 214 363 214 363 q 212 362 212 363 l 212 363 l 212 364 l 212 366 l 212 366 l 212 366 l 208 370 l 208 372 l 208 372 l 208 372 l 207 372 l 205 375 l 205 376 l 207 378 m 254 376 l 255 376 l 255 377 l 254 377 l 254 376 m 308 376 l 308 375 l 309 375 l 309 376 l 308 376 m 248 375 l 249 374 l 249 374 l 248 372 l 250 372 l 249 373 l 250 375 l 250 375 l 249 375 l 248 375 m 251 374 l 252 372 l 252 372 l 252 375 l 252 374 l 251 374 m 207 374 l 207 373 l 208 374 l 208 374 l 208 373 l 208 374 l 207 374 m 218 374 q 222 370 221 374 l 223 370 l 224 371 l 224 369 l 224 368 l 224 368 l 224 367 l 224 365 l 224 365 l 223 366 l 223 366 q 222 363 223 363 l 222 361 q 223 363 223 361 l 224 363 l 223 359 l 223 359 l 223 358 l 223 357 l 223 357 l 224 357 l 224 357 l 224 359 l 224 361 l 225 360 l 225 359 l 224 359 l 224 359 q 226 357 226 359 l 226 355 l 227 355 l 227 353 l 227 353 l 227 348 l 227 349 l 228 349 l 228 347 l 228 346 l 228 347 l 229 347 l 229 345 l 229 345 q 231 347 229 347 q 232 345 232 347 l 231 342 l 231 342 l 232 342 l 232 343 l 233 343 l 233 341 l 234 341 l 234 343 l 235 343 q 241 334 235 341 l 241 334 l 240 334 l 240 334 l 239 334 l 239 332 l 241 329 l 241 329 l 241 329 q 240 332 241 330 l 241 333 l 243 329 l 243 329 l 243 330 l 243 332 l 244 334 l 245 333 l 245 334 l 245 332 l 246 332 q 248 334 246 334 l 252 334 l 252 334 l 252 334 l 254 334 l 256 334 q 253 326 255 327 l 253 325 l 254 324 l 255 324 l 255 324 l 256 324 q 259 322 256 323 q 263 326 260 324 l 263 326 l 264 326 l 263 330 l 263 334 q 267 337 264 337 l 269 337 l 269 332 q 266 323 269 323 l 264 323 l 264 322 q 269 325 267 322 l 272 323 l 273 323 l 271 332 l 271 332 l 271 332 l 271 333 l 271 334 l 269 336 l 273 338 l 275 334 l 275 331 l 275 330 l 275 327 l 274 327 l 275 325 l 276 325 l 276 326 l 277 326 q 278 323 277 323 l 280 323 l 280 323 l 280 323 l 279 323 l 278 325 q 280 326 278 326 l 279 328 l 280 328 l 278 333 l 278 333 q 277 332 278 332 l 276 336 q 283 337 277 337 l 283 336 l 283 336 l 283 335 l 283 334 l 283 333 l 283 332 q 281 323 283 332 l 283 323 q 284 325 283 325 l 285 325 q 286 323 285 323 l 286 323 l 288 323 l 286 323 l 286 325 l 287 328 l 286 328 l 286 329 l 286 329 l 288 328 l 288 328 l 288 330 l 286 330 l 286 331 l 286 331 l 286 332 q 285 332 285 332 l 286 334 l 286 334 l 288 334 l 288 334 l 288 334 l 290 334 l 291 334 l 291 332 q 288 328 288 329 l 289 328 l 290 328 l 289 326 l 290 325 l 290 325 l 291 325 l 292 324 l 293 324 l 292 328 l 292 333 l 292 334 l 292 334 l 296 336 q 298 334 296 334 l 298 334 l 298 334 q 296 332 297 332 l 296 330 l 296 329 l 296 329 l 296 328 l 293 328 l 293 328 q 294 326 294 328 l 296 328 l 296 328 l 296 327 l 296 326 l 296 326 l 297 325 l 296 325 l 297 324 l 297 323 l 296 323 l 296 323 l 294 323 q 294 321 294 321 l 292 321 l 292 322 l 292 321 l 291 321 l 291 323 l 288 321 l 284 321 l 283 322 q 275 321 281 321 l 275 321 l 275 322 l 271 321 l 271 321 l 270 321 l 268 320 l 269 319 l 268 318 l 269 318 l 270 319 q 272 317 270 317 l 272 317 q 268 313 272 315 l 268 313 l 269 313 l 269 313 l 269 313 l 269 313 q 273 317 269 314 l 273 315 l 274 315 l 275 317 l 274 317 q 279 319 274 317 l 279 319 l 279 318 l 279 318 l 281 318 l 281 318 l 281 317 q 279 316 279 317 l 279 315 l 280 315 q 283 319 280 317 l 284 317 l 286 317 l 288 315 l 286 313 l 286 313 l 287 313 q 290 315 287 315 q 292 317 290 317 l 292 316 q 288 312 291 314 q 286 310 288 310 l 286 310 q 290 309 290 310 q 288 304 290 307 l 288 304 l 290 304 l 290 305 l 291 305 l 291 305 l 290 304 l 290 304 l 291 304 l 291 304 l 292 304 l 292 304 l 291 310 l 291 310 l 292 310 l 291 312 l 291 312 l 292 312 l 293 312 l 294 312 l 294 311 l 294 311 l 294 312 q 293 313 294 313 l 294 315 q 294 313 294 315 l 296 313 l 295 315 l 296 315 l 296 315 l 296 314 l 296 313 l 298 313 l 298 315 l 300 315 l 301 315 l 301 315 l 302 315 l 302 315 l 304 314 q 302 313 304 313 l 302 312 l 302 312 q 304 313 302 313 q 305 315 304 315 l 306 315 l 307 315 l 307 315 l 307 315 l 307 314 l 309 312 l 307 311 l 307 311 l 307 312 l 307 313 l 304 311 l 303 311 l 303 311 l 299 310 l 298 311 l 298 309 l 299 310 l 300 309 l 300 309 l 301 310 l 301 309 q 298 307 298 309 l 298 307 l 297 307 l 296 307 q 296 304 296 304 l 294 306 l 295 307 l 294 309 l 294 309 l 294 306 l 294 306 l 294 305 l 293 305 l 293 306 l 292 304 l 294 302 l 294 303 l 295 303 q 296 297 296 303 l 297 297 q 298 300 297 300 l 298 302 q 300 305 298 305 l 300 304 l 300 300 l 301 300 l 301 304 q 304 305 302 305 l 304 305 l 304 303 l 305 303 l 305 304 l 304 306 l 305 306 l 304 307 l 305 307 l 305 307 l 306 310 l 305 311 l 306 312 l 306 312 l 307 311 l 306 306 q 307 304 307 304 l 308 304 l 307 305 l 307 310 l 310 310 l 311 310 l 309 313 l 309 314 l 310 315 l 311 315 q 314 310 311 312 l 315 310 l 315 311 l 313 312 l 313 312 l 315 312 q 318 309 318 311 l 318 309 l 319 311 l 320 310 l 320 311 q 313 319 317 317 l 313 319 l 313 320 l 313 320 l 312 321 l 312 321 l 310 320 l 311 323 l 311 323 l 310 323 l 310 323 l 309 323 l 309 321 l 308 321 l 307 323 l 306 323 l 305 321 l 304 323 l 302 323 l 303 323 l 303 321 l 300 321 l 300 322 l 301 322 q 304 325 301 323 l 305 323 l 306 324 l 304 328 l 305 328 l 304 328 l 304 330 l 305 331 l 305 334 l 305 334 l 304 334 l 304 334 q 301 332 304 332 l 301 332 l 302 332 l 302 331 q 299 330 302 330 l 299 330 l 300 328 l 300 328 l 299 328 l 298 328 q 299 331 298 331 l 298 332 q 301 336 298 334 l 301 337 l 304 337 l 304 335 l 304 335 q 307 338 304 338 q 310 336 309 338 l 310 335 q 309 334 310 334 l 309 334 l 310 334 l 310 333 q 309 328 309 332 l 307 326 l 307 326 q 312 328 311 326 l 313 328 l 313 327 l 314 327 l 315 328 l 314 328 l 314 329 q 317 336 314 333 l 318 336 l 318 334 l 318 334 l 319 337 l 318 337 q 320 340 318 340 l 320 343 q 323 347 323 345 l 323 349 l 323 350 q 326 356 325 356 q 325 357 326 357 l 325 357 l 326 357 l 326 358 l 325 358 l 325 359 l 325 361 l 326 361 l 326 361 l 326 359 q 328 364 327 359 l 327 366 l 328 367 l 329 366 l 329 366 l 328 365 l 328 364 q 330 363 330 364 l 330 363 l 331 363 l 331 362 q 329 359 331 361 l 329 357 q 328 355 328 357 q 329 353 329 355 l 329 354 l 330 354 l 330 353 q 329 352 330 352 l 329 351 q 330 351 329 351 l 329 347 l 330 347 q 329 345 330 345 l 330 343 l 330 338 l 329 338 l 330 337 l 330 330 l 330 330 l 330 324 l 330 324 l 330 323 l 330 321 q 319 303 330 309 q 314 298 317 298 q 312 294 314 295 l 311 295 l 311 296 l 312 296 l 312 296 l 311 296 q 309 294 309 294 l 307 294 l 307 294 l 306 294 l 306 294 l 307 293 l 307 293 l 306 292 l 306 292 l 306 293 l 305 292 l 305 292 l 304 293 q 298 289 299 291 l 297 289 q 296 290 297 290 l 296 290 l 293 290 q 292 288 293 288 l 291 288 l 290 288 l 290 288 l 289 288 l 290 290 l 289 290 q 288 288 289 288 l 286 288 l 283 288 l 283 288 l 283 288 l 283 288 q 282 289 282 288 l 280 288 l 279 288 l 279 288 l 277 288 l 277 288 l 277 288 l 277 289 l 277 290 l 277 290 q 275 288 277 288 l 272 288 l 272 290 l 272 290 l 271 288 l 270 288 l 270 290 l 269 289 l 268 289 l 268 290 l 269 290 l 269 290 l 267 290 l 267 290 l 267 290 l 267 290 l 267 290 l 267 290 l 264 289 q 261 290 262 289 l 260 290 l 260 290 l 260 290 l 260 290 q 262 293 262 292 q 260 294 260 293 l 255 292 l 255 292 l 254 292 l 254 292 l 254 292 l 254 292 l 254 293 l 252 293 l 253 293 l 253 296 l 252 296 l 252 294 l 251 293 q 241 298 250 296 l 241 298 l 239 299 l 239 299 l 239 299 q 234 301 236 301 l 233 300 l 233 301 l 233 300 l 232 300 l 231 301 l 231 301 l 231 302 l 231 302 l 231 301 l 231 301 l 227 304 l 227 305 l 229 305 l 232 308 q 231 310 231 308 l 231 310 l 230 310 l 230 309 l 231 309 l 231 309 l 230 308 l 229 308 l 229 311 l 229 312 l 228 312 l 228 312 l 229 313 q 230 312 230 313 q 231 315 231 312 q 235 312 233 315 l 234 314 l 234 315 l 235 315 l 236 314 l 237 315 l 237 315 l 236 315 l 236 315 l 233 316 l 233 315 l 232 315 l 232 316 l 233 317 l 233 317 l 231 317 q 231 315 231 315 l 228 318 l 228 319 l 229 319 l 229 319 q 227 322 227 320 l 227 323 l 227 323 l 226 326 l 226 328 l 225 328 l 225 324 l 226 324 l 226 324 l 227 324 l 227 323 l 226 321 l 225 321 q 222 348 224 321 l 222 349 l 222 351 l 222 352 l 222 352 l 222 350 q 220 354 220 350 l 221 355 l 221 355 l 221 355 l 221 357 q 222 359 222 357 l 221 359 l 222 359 l 221 361 l 221 361 l 221 361 l 221 362 l 221 362 l 221 363 l 221 364 l 221 366 l 222 366 l 222 366 l 222 366 l 222 368 q 220 369 221 368 l 221 370 l 221 370 l 219 373 l 218 374 m 253 374 l 253 372 l 254 372 l 254 374 l 253 374 m 252 372 l 252 370 l 253 371 l 253 372 l 252 372 m 338 372 l 338 372 l 338 371 l 338 368 l 338 368 l 336 366 l 335 366 l 334 366 q 338 372 336 370 m 250 370 q 248 368 250 368 l 248 368 l 249 368 l 250 370 l 250 370 m 313 370 l 313 369 l 314 369 l 314 370 l 313 370 m 306 369 l 306 368 l 307 367 l 309 367 l 309 367 q 307 368 309 368 l 307 369 l 306 369 m 251 368 q 253 366 253 368 l 252 363 l 253 359 l 254 359 l 254 366 l 253 367 l 253 368 l 253 368 l 252 368 l 251 368 m 207 368 l 208 368 l 208 367 l 207 368 l 207 368 m 242 367 l 243 367 l 243 368 l 243 368 l 242 367 m 331 368 l 332 368 l 332 368 q 330 365 332 366 l 330 365 q 331 368 330 368 m 250 367 l 250 366 l 250 365 l 250 367 l 250 367 l 250 367 m 248 367 l 248 366 l 249 366 l 248 367 l 248 367 m 301 367 q 300 366 301 366 l 299 366 l 299 363 l 300 363 l 301 364 l 300 366 l 301 367 l 301 367 m 251 366 l 251 364 l 252 364 l 252 366 l 251 366 m 302 366 l 302 364 l 304 366 l 304 366 l 302 366 m 307 366 l 307 364 l 309 364 l 309 365 l 308 366 l 307 366 m 339 366 l 339 366 l 338 365 l 338 365 l 339 366 m 210 365 l 210 365 l 212 364 l 212 363 l 211 363 l 210 364 l 210 365 m 217 364 l 218 364 l 218 363 l 218 363 l 218 363 l 217 364 m 310 364 l 309 363 l 310 361 l 311 361 l 311 361 l 311 362 l 311 363 q 310 364 310 363 l 310 364 m 336 364 l 338 364 l 338 363 l 337 363 l 336 364 m 308 363 l 308 361 l 309 361 l 309 363 l 308 363 m 302 363 q 301 362 302 362 l 301 361 q 302 360 302 361 l 303 360 l 303 357 l 304 357 l 304 357 q 302 363 304 363 m 298 361 l 299 361 l 299 362 l 298 361 m 299 361 q 298 359 299 359 l 298 359 l 300 359 l 300 361 l 300 361 l 299 361 m 312 361 l 313 360 l 313 361 l 313 361 l 312 361 m 319 361 l 319 356 l 317 357 l 317 359 q 319 361 317 361 m 291 361 l 291 360 l 291 359 l 291 359 l 291 359 l 288 357 l 288 358 l 288 358 l 288 357 l 288 357 l 290 357 l 290 357 q 291 358 290 358 l 291 358 l 292 357 l 292 355 l 291 355 q 288 356 291 356 l 288 355 l 286 355 l 287 359 l 287 359 l 288 359 l 288 359 l 288 359 q 291 361 288 361 m 310 357 q 311 360 311 358 q 310 357 310 360 m 236 360 l 237 360 l 237 358 l 237 357 l 237 357 l 239 357 l 239 356 l 237 355 q 236 359 237 355 l 236 360 m 289 359 l 289 359 l 290 359 l 290 359 l 289 359 m 243 357 l 244 356 l 243 356 l 243 355 l 245 357 l 245 359 l 243 357 m 217 359 l 218 358 l 218 357 l 217 357 l 217 357 l 216 357 l 216 358 l 217 359 l 217 359 m 233 359 l 235 357 l 235 357 l 233 357 l 232 358 l 233 359 l 233 359 m 293 357 l 294 357 l 296 357 l 296 357 l 295 357 l 294 356 l 294 355 l 294 355 l 293 355 l 294 356 l 293 357 l 293 357 m 305 357 l 306 355 l 306 355 l 306 357 l 305 357 m 223 356 l 223 356 l 224 355 l 224 356 l 223 356 m 242 355 l 242 354 l 243 354 l 243 355 l 242 355 m 241 355 l 241 353 l 241 353 l 241 354 l 241 355 m 233 355 q 235 353 235 355 l 235 353 l 235 354 q 237 350 237 354 l 237 347 l 236 347 q 233 354 233 351 l 233 355 l 233 355 m 296 354 l 296 353 l 296 352 l 295 352 q 296 354 295 353 m 301 351 l 301 351 q 303 349 301 350 q 304 351 303 351 l 305 351 l 304 350 l 305 349 l 305 342 l 305 342 l 305 349 l 306 349 l 307 346 l 307 346 q 308 350 307 350 l 309 349 l 309 349 l 309 351 l 309 350 l 309 349 l 309 349 l 309 348 q 311 347 310 348 q 312 350 311 350 l 312 350 q 311 351 311 350 l 311 352 l 311 352 l 313 351 l 313 351 l 311 353 l 310 352 l 309 353 l 309 353 l 309 352 l 308 353 l 307 353 q 306 351 307 351 l 303 353 l 301 351 m 317 353 l 318 352 l 318 351 l 318 349 l 317 349 q 316 351 317 349 q 317 353 317 351 m 224 351 l 224 347 l 224 347 l 226 351 l 224 351 m 264 351 q 267 348 267 351 l 267 348 l 268 345 l 268 345 l 267 345 l 268 345 l 268 340 q 266 337 268 338 l 264 338 l 264 337 q 261 340 261 337 l 262 347 l 262 349 q 263 349 262 349 l 264 350 l 264 350 l 263 351 l 263 351 l 264 351 l 264 351 m 259 351 l 260 350 l 259 349 l 259 349 q 261 348 261 349 l 260 346 l 261 345 l 261 345 q 259 338 260 338 q 256 341 258 338 l 256 341 l 256 339 l 256 338 l 255 338 l 254 339 l 254 339 l 254 338 l 253 339 l 252 338 l 252 339 l 252 338 l 252 337 l 250 336 q 248 340 248 338 q 250 349 248 349 l 252 348 l 252 349 l 252 348 l 251 344 l 252 343 l 252 343 q 253 347 252 345 l 253 347 l 253 348 l 254 351 l 254 351 l 256 348 l 256 345 l 258 345 l 258 348 q 259 351 258 351 m 277 351 l 277 349 l 276 350 l 275 350 l 275 349 l 275 349 l 276 349 l 277 349 l 277 351 l 277 351 m 300 350 l 299 349 l 299 349 q 300 347 299 347 l 300 347 l 300 345 l 300 341 l 300 340 l 300 340 l 302 343 l 302 344 l 302 343 l 301 343 l 301 345 l 302 345 l 301 345 l 301 345 l 302 348 l 301 348 l 301 348 l 301 349 l 301 349 l 300 350 m 328 349 l 328 349 l 327 349 l 326 349 l 326 348 l 328 347 l 329 350 q 328 349 328 350 m 240 350 l 241 347 l 240 346 l 241 346 l 243 349 q 247 342 245 349 l 247 341 l 247 340 l 247 339 q 246 338 246 339 l 245 338 l 245 338 l 245 338 l 245 338 l 243 338 q 241 340 241 338 l 242 340 l 241 343 l 241 344 l 241 345 l 241 345 l 241 345 l 240 343 l 241 343 l 241 342 l 240 340 l 241 340 l 241 339 l 240 338 l 239 340 l 238 339 l 238 340 l 237 345 l 238 345 l 237 346 l 237 348 l 240 350 m 264 349 l 266 347 l 266 349 l 264 349 m 315 349 l 315 349 l 315 349 l 315 348 l 313 348 l 313 349 l 315 349 m 224 347 l 224 345 l 225 346 l 225 347 l 224 347 m 233 347 l 234 347 l 233 345 l 233 345 l 233 346 l 233 347 m 231 345 l 230 345 l 230 344 l 231 344 l 231 345 l 231 345 l 231 345 m 328 345 l 326 342 l 326 342 l 328 341 l 328 342 l 328 342 l 328 342 l 328 345 l 328 345 m 281 343 l 281 343 l 283 342 l 283 343 l 281 343 m 225 342 l 225 340 l 227 341 l 227 342 l 227 342 l 225 342 m 288 342 l 288 341 l 288 340 l 288 340 l 290 340 l 290 341 l 288 342 m 233 340 l 232 338 l 233 338 l 234 340 l 233 340 l 233 340 m 225 338 l 225 338 l 226 337 l 226 338 l 225 338 m 241 337 l 241 337 l 243 336 l 243 336 l 243 336 l 244 336 l 244 336 l 243 334 l 242 334 l 241 336 l 241 337 m 311 337 l 311 337 l 311 336 l 312 337 l 313 337 l 314 336 l 314 335 q 313 332 314 333 l 312 333 l 312 333 l 312 331 l 311 331 l 311 334 l 311 334 l 311 337 m 260 336 l 261 336 l 262 335 l 262 335 l 262 332 l 262 330 q 260 324 261 324 l 258 324 l 258 323 l 256 325 l 257 326 l 256 328 l 256 330 l 257 335 l 259 334 l 260 336 m 300 334 l 300 333 l 301 333 l 301 334 l 300 334 m 250 334 l 248 327 l 247 328 l 247 328 l 246 327 l 246 326 q 248 324 248 326 l 247 323 l 245 324 l 246 323 l 248 323 q 250 326 250 325 l 250 332 l 251 333 l 250 334 l 250 334 m 293 331 l 295 331 l 295 332 l 294 332 l 293 331 m 311 330 l 312 330 l 312 330 l 313 330 l 313 330 l 313 329 l 313 329 l 312 329 l 312 329 l 311 329 l 311 329 l 311 329 l 311 330 l 311 330 l 311 330 m 243 327 l 243 326 l 245 326 l 245 326 l 245 326 l 243 327 m 300 328 l 301 328 l 300 326 l 300 327 l 300 328 m 313 326 l 314 326 l 314 325 l 313 323 l 315 326 l 315 327 l 315 327 l 313 326 m 227 326 l 227 325 l 228 325 l 228 326 l 227 326 m 286 325 l 287 324 l 288 324 l 288 325 l 288 326 l 288 326 l 287 325 l 286 325 m 302 326 l 304 325 l 304 325 l 299 323 l 299 323 l 299 323 l 300 324 l 301 324 l 301 324 l 302 326 m 294 324 l 295 324 l 295 323 l 296 324 l 296 325 l 294 324 m 273 322 l 273 322 l 275 323 l 275 323 l 274 323 l 273 322 m 250 321 q 248 318 250 321 l 248 317 l 249 317 l 248 318 l 248 319 q 250 317 250 319 l 250 317 q 252 320 250 320 l 252 320 l 252 320 l 253 321 l 250 321 m 337 321 l 337 321 l 338 321 l 338 321 l 337 321 m 218 320 l 220 320 l 220 320 l 220 321 l 220 321 l 220 321 l 218 320 m 247 321 q 243 315 246 318 l 243 316 l 243 315 q 244 315 244 315 l 243 313 l 243 313 l 243 315 l 243 315 l 242 315 l 241 315 q 239 313 240 313 l 239 313 l 239 314 l 239 314 q 237 313 239 313 l 237 313 l 236 313 l 236 313 l 237 311 l 237 311 q 239 312 237 312 l 240 312 l 241 312 l 241 312 q 244 310 244 311 l 245 310 l 245 311 l 243 312 q 245 317 245 313 l 246 316 l 248 317 q 247 319 247 317 q 249 321 248 321 l 249 321 l 247 321 m 257 321 l 258 320 l 258 321 l 258 321 l 257 321 m 321 320 l 321 319 l 325 320 l 324 321 l 321 320 m 223 321 l 224 321 l 224 318 l 222 317 l 222 318 l 222 318 l 223 321 m 231 320 l 231 319 l 232 319 l 233 319 l 233 320 l 231 320 m 256 319 l 256 319 l 259 319 l 259 320 l 256 319 m 264 320 l 264 319 l 265 319 l 266 319 l 266 318 l 267 319 l 267 320 l 267 320 l 266 319 l 266 320 l 264 320 m 280 320 l 281 320 l 280 319 l 279 319 l 280 320 m 262 318 l 262 317 q 266 315 266 316 l 264 315 l 262 315 l 260 313 l 259 316 l 258 315 q 259 312 259 315 l 259 312 l 256 313 l 255 313 l 254 313 l 254 312 q 256 311 256 312 l 255 310 q 254 311 255 311 l 254 312 l 253 312 q 252 311 253 311 l 252 312 l 252 312 l 252 313 l 252 315 l 252 315 l 252 313 l 251 313 l 250 314 l 250 313 l 250 311 l 250 311 q 252 309 252 311 l 250 307 q 250 306 250 307 l 252 307 l 252 305 l 254 305 l 256 309 l 258 309 l 258 308 l 259 309 l 259 308 l 260 308 l 260 309 l 259 309 q 261 311 259 311 l 260 313 l 261 313 l 261 313 l 262 314 l 266 313 l 267 317 l 267 316 l 266 316 l 262 318 l 262 318 m 288 318 l 288 318 l 290 317 l 289 317 l 288 317 l 288 317 l 288 318 m 252 317 l 252 315 l 253 317 l 254 317 l 255 315 l 255 315 q 252 317 255 317 m 283 317 q 281 315 283 315 l 281 315 l 281 315 l 281 314 q 284 315 284 315 l 284 315 l 283 315 l 283 316 l 283 317 l 283 317 l 283 317 m 250 317 l 250 315 l 250 315 l 250 317 l 250 317 m 275 317 l 275 315 l 275 315 l 275 315 l 276 315 l 276 317 l 275 317 m 336 315 l 336 315 l 336 314 l 335 313 l 334 313 l 333 313 l 334 315 l 334 314 l 334 315 l 334 315 l 334 315 l 336 315 m 246 315 l 245 315 l 245 313 l 248 312 l 248 312 q 246 315 248 314 m 272 315 q 274 313 272 314 l 275 313 l 275 314 l 273 315 l 272 315 m 331 315 l 331 315 l 332 314 l 332 313 l 331 313 l 331 314 l 331 315 m 283 314 l 283 313 l 286 313 l 284 314 l 283 314 m 242 314 l 242 313 l 241 313 l 240 313 l 241 314 l 242 314 m 283 313 l 281 312 l 281 311 l 283 311 l 283 312 l 283 313 l 283 313 m 212 311 l 212 310 q 217 311 214 311 l 217 313 l 212 311 m 262 312 l 262 311 l 264 311 l 264 312 l 262 312 m 267 312 l 266 311 l 268 309 l 269 309 l 269 311 q 267 312 269 311 m 296 311 l 296 311 l 298 312 l 297 312 l 296 311 m 315 312 l 315 311 l 315 310 l 317 311 l 315 312 m 292 311 l 292 311 l 292 311 l 293 311 l 292 311 m 209 310 l 209 310 l 210 310 l 211 310 l 212 310 l 212 311 l 211 311 l 209 310 m 227 311 l 227 311 l 228 309 l 228 309 l 227 310 l 227 311 m 222 310 l 222 309 l 222 307 l 222 307 l 224 306 l 224 307 l 224 307 l 224 308 q 223 310 223 308 l 222 310 m 312 310 l 313 309 l 313 309 l 313 310 l 312 310 m 266 309 l 266 307 l 267 307 l 267 308 l 267 309 l 266 309 m 302 309 l 303 309 l 304 309 l 304 308 l 303 308 l 302 309 l 302 309 m 309 307 q 309 306 309 307 l 310 306 l 310 306 l 310 306 l 310 309 l 309 309 l 309 307 m 286 308 l 286 307 l 286 306 l 287 306 l 287 308 l 286 308 m 283 306 l 284 306 l 285 307 l 285 307 l 283 306 m 328 307 l 329 306 l 328 306 l 327 306 l 327 306 l 328 307 m 313 306 l 313 305 l 314 304 l 315 304 l 315 304 l 313 306 m 253 301 l 254 300 l 255 300 l 255 301 q 254 302 254 301 l 253 301 m 235 296 l 237 296 l 237 296 l 236 295 l 235 295 l 235 296 m 272 292 q 271 290 272 290 l 271 290 l 273 292 l 272 292 m 273 290 l 273 290 l 275 290 l 275 291 l 274 291 l 273 290 z "},",":{"ha":215,"x_min":10,"x_max":203,"o":"m 119 172 l 121 172 q 146 161 146 166 l 140 161 l 119 166 l 119 172 m 92 169 l 105 169 q 178 128 178 149 q 203 66 203 106 l 203 39 q 143 -83 203 -24 l 135 -83 l 138 -86 l 138 -89 l 121 -105 l 92 -102 l 43 -105 l 43 -102 l 40 -105 l 29 -105 l 24 -100 q 64 -51 42 -88 l 67 -51 l 64 -48 q 78 -26 64 -26 l 78 -24 l 70 -24 l 67 -26 q 48 1 67 1 q 13 55 13 31 l 13 58 l 29 63 l 29 66 l 21 66 l 16 60 l 10 60 l 10 77 q 64 161 10 130 l 92 169 m 111 96 l 108 98 l 105 98 l 102 96 l 102 93 l 105 90 l 108 90 q 135 104 126 104 l 135 106 l 124 106 l 111 96 m 83 87 q 62 77 83 77 l 59 74 l 59 71 l 62 71 q 92 87 92 79 l 83 87 m 40 74 l 45 68 l 54 71 l 54 77 l 40 74 m 111 68 q 119 63 111 63 l 121 63 l 121 66 l 111 68 m 138 63 q 146 58 138 58 l 149 58 l 149 60 l 138 63 m 181 58 l 181 55 l 192 55 l 192 58 l 181 58 m 105 -51 l 111 -56 l 113 -56 l 108 -51 l 105 -51 z "}}}
